<svg xmlns="http://www.w3.org/2000/svg" xmlns:xlink="http://www.w3.org/1999/xlink" width="500" zoomAndPan="magnify" viewBox="0 0 375 374.999991" height="500" preserveAspectRatio="xMidYMid meet" version="1.0"><defs><g/><clipPath id="65c67632e8"><path d="M 0 0 L 374.996094 0 L 374.996094 374.996094 L 0 374.996094 Z M 0 0 " clip-rule="nonzero"/></clipPath><clipPath id="5ee479cc39"><path d="M 187.496094 0 C 83.945312 0 0 83.945312 0 187.496094 C 0 291.050781 83.945312 374.996094 187.496094 374.996094 C 291.050781 374.996094 374.996094 291.050781 374.996094 187.496094 C 374.996094 83.945312 291.050781 0 187.496094 0 Z M 187.496094 0 " clip-rule="nonzero"/></clipPath><clipPath id="06870e9326"><path d="M 61.691406 61.691406 L 313.296875 61.691406 L 313.296875 313.296875 L 61.691406 313.296875 Z M 61.691406 61.691406 " clip-rule="nonzero"/></clipPath><clipPath id="6edab7b37d"><path d="M 187.492188 61.691406 C 118.015625 61.691406 61.691406 118.015625 61.691406 187.492188 C 61.691406 256.972656 118.015625 313.296875 187.492188 313.296875 C 256.972656 313.296875 313.296875 256.972656 313.296875 187.492188 C 313.296875 118.015625 256.972656 61.691406 187.492188 61.691406 Z M 187.492188 61.691406 " clip-rule="nonzero"/></clipPath><clipPath id="7d317982a4"><path d="M 131 76.949219 L 246 76.949219 L 246 298.207031 L 131 298.207031 Z M 131 76.949219 " clip-rule="nonzero"/></clipPath><clipPath id="ad419b906e"><path d="M 131.742188 205.390625 C 122.277344 120.769531 213.300781 141.167969 244.496094 107.515625 C 253.191406 183.984375 164.214844 152.375 131.742188 205.390625 Z M 235.292969 170.722656 C 223.535156 190.613281 149.261719 186.878906 140.179688 223.226562 C 123.304688 293.070312 200.003906 298.167969 200.003906 298.167969 C 200.003906 298.167969 156.03125 284.398438 165.238281 244.128906 C 170.351562 224.25 238.878906 234.449219 235.292969 170.722656 Z M 175.109375 76.933594 C 163.652344 76.933594 154.363281 86.195312 154.363281 97.613281 C 154.363281 109.035156 163.652344 118.292969 175.109375 118.292969 C 186.570312 118.292969 195.859375 109.035156 195.859375 97.613281 C 195.859375 86.195312 186.570312 76.933594 175.109375 76.933594 Z M 175.109375 76.933594 " clip-rule="nonzero"/></clipPath><linearGradient x1="64.987431" gradientTransform="matrix(0.530912, 0, 0, 0.529192, 55.345264, 55.253179)" y1="353.22882" x2="430.937286" gradientUnits="userSpaceOnUse" y2="141.9482" id="b751298320"><stop stop-opacity="1" stop-color="rgb(97.999573%, 72.499084%, 8.198547%)" offset="0"/><stop stop-opacity="1" stop-color="rgb(97.999573%, 72.499084%, 8.198547%)" offset="0.125"/><stop stop-opacity="1" stop-color="rgb(97.999573%, 72.499084%, 8.198547%)" offset="0.1875"/><stop stop-opacity="1" stop-color="rgb(97.999573%, 72.499084%, 8.198547%)" offset="0.21875"/><stop stop-opacity="1" stop-color="rgb(97.999573%, 72.499084%, 8.198547%)" offset="0.234375"/><stop stop-opacity="1" stop-color="rgb(97.999573%, 72.499084%, 8.198547%)" offset="0.242188"/><stop stop-opacity="1" stop-color="rgb(97.903442%, 71.821594%, 8.395386%)" offset="0.246094"/><stop stop-opacity="1" stop-color="rgb(97.808838%, 71.144104%, 8.59375%)" offset="0.25"/><stop stop-opacity="1" stop-color="rgb(97.662354%, 70.108032%, 8.894348%)" offset="0.253906"/><stop stop-opacity="1" stop-color="rgb(97.517395%, 69.073486%, 9.196472%)" offset="0.257812"/><stop stop-opacity="1" stop-color="rgb(97.372437%, 68.03894%, 9.49707%)" offset="0.261719"/><stop stop-opacity="1" stop-color="rgb(97.227478%, 67.004395%, 9.799194%)" offset="0.265625"/><stop stop-opacity="1" stop-color="rgb(97.080994%, 65.968323%, 10.099792%)" offset="0.269531"/><stop stop-opacity="1" stop-color="rgb(96.936035%, 64.933777%, 10.401917%)" offset="0.273438"/><stop stop-opacity="1" stop-color="rgb(96.789551%, 63.897705%, 10.702515%)" offset="0.277344"/><stop stop-opacity="1" stop-color="rgb(96.644592%, 62.863159%, 11.004639%)" offset="0.28125"/><stop stop-opacity="1" stop-color="rgb(96.498108%, 61.827087%, 11.305237%)" offset="0.285156"/><stop stop-opacity="1" stop-color="rgb(96.353149%, 60.792542%, 11.607361%)" offset="0.289062"/><stop stop-opacity="1" stop-color="rgb(96.208191%, 59.75647%, 11.907959%)" offset="0.292969"/><stop stop-opacity="1" stop-color="rgb(96.063232%, 58.721924%, 12.210083%)" offset="0.296875"/><stop stop-opacity="1" stop-color="rgb(95.916748%, 57.685852%, 12.512207%)" offset="0.300781"/><stop stop-opacity="1" stop-color="rgb(95.77179%, 56.651306%, 12.814331%)" offset="0.304688"/><stop stop-opacity="1" stop-color="rgb(95.625305%, 55.615234%, 13.114929%)" offset="0.308594"/><stop stop-opacity="1" stop-color="rgb(95.480347%, 54.580688%, 13.417053%)" offset="0.3125"/><stop stop-opacity="1" stop-color="rgb(95.333862%, 53.544617%, 13.717651%)" offset="0.316406"/><stop stop-opacity="1" stop-color="rgb(95.188904%, 52.510071%, 14.019775%)" offset="0.320312"/><stop stop-opacity="1" stop-color="rgb(95.043945%, 51.473999%, 14.320374%)" offset="0.324219"/><stop stop-opacity="1" stop-color="rgb(94.898987%, 50.439453%, 14.622498%)" offset="0.328125"/><stop stop-opacity="1" stop-color="rgb(94.752502%, 49.403381%, 14.923096%)" offset="0.332031"/><stop stop-opacity="1" stop-color="rgb(94.607544%, 48.368835%, 15.22522%)" offset="0.335938"/><stop stop-opacity="1" stop-color="rgb(94.46106%, 47.332764%, 15.525818%)" offset="0.339844"/><stop stop-opacity="1" stop-color="rgb(94.316101%, 46.298218%, 15.827942%)" offset="0.34375"/><stop stop-opacity="1" stop-color="rgb(94.169617%, 45.262146%, 16.12854%)" offset="0.347656"/><stop stop-opacity="1" stop-color="rgb(94.024658%, 44.2276%, 16.430664%)" offset="0.351563"/><stop stop-opacity="1" stop-color="rgb(93.8797%, 43.191528%, 16.731262%)" offset="0.355469"/><stop stop-opacity="1" stop-color="rgb(93.734741%, 42.156982%, 17.033386%)" offset="0.359375"/><stop stop-opacity="1" stop-color="rgb(93.588257%, 41.120911%, 17.333984%)" offset="0.363281"/><stop stop-opacity="1" stop-color="rgb(93.443298%, 40.086365%, 17.636108%)" offset="0.367188"/><stop stop-opacity="1" stop-color="rgb(93.296814%, 39.051819%, 17.936707%)" offset="0.371094"/><stop stop-opacity="1" stop-color="rgb(93.151855%, 38.017273%, 18.238831%)" offset="0.375"/><stop stop-opacity="1" stop-color="rgb(93.006897%, 36.981201%, 18.539429%)" offset="0.378906"/><stop stop-opacity="1" stop-color="rgb(92.861938%, 35.946655%, 18.841553%)" offset="0.382813"/><stop stop-opacity="1" stop-color="rgb(92.715454%, 34.910583%, 19.143677%)" offset="0.386719"/><stop stop-opacity="1" stop-color="rgb(92.570496%, 33.876038%, 19.445801%)" offset="0.390625"/><stop stop-opacity="1" stop-color="rgb(92.424011%, 32.839966%, 19.746399%)" offset="0.394531"/><stop stop-opacity="1" stop-color="rgb(92.279053%, 31.80542%, 20.048523%)" offset="0.398438"/><stop stop-opacity="1" stop-color="rgb(92.132568%, 30.769348%, 20.349121%)" offset="0.402344"/><stop stop-opacity="1" stop-color="rgb(91.98761%, 29.734802%, 20.651245%)" offset="0.40625"/><stop stop-opacity="1" stop-color="rgb(91.842651%, 28.69873%, 20.951843%)" offset="0.410156"/><stop stop-opacity="1" stop-color="rgb(91.697693%, 27.664185%, 21.253967%)" offset="0.414062"/><stop stop-opacity="1" stop-color="rgb(91.551208%, 26.628113%, 21.554565%)" offset="0.417969"/><stop stop-opacity="1" stop-color="rgb(91.40625%, 25.593567%, 21.856689%)" offset="0.421875"/><stop stop-opacity="1" stop-color="rgb(91.259766%, 24.557495%, 22.157288%)" offset="0.425781"/><stop stop-opacity="1" stop-color="rgb(91.114807%, 23.522949%, 22.459412%)" offset="0.429688"/><stop stop-opacity="1" stop-color="rgb(90.708923%, 23.300171%, 23.352051%)" offset="0.433594"/><stop stop-opacity="1" stop-color="rgb(90.30304%, 23.077393%, 24.24469%)" offset="0.4375"/><stop stop-opacity="1" stop-color="rgb(89.724731%, 23.390198%, 25.527954%)" offset="0.441406"/><stop stop-opacity="1" stop-color="rgb(89.147949%, 23.703003%, 26.812744%)" offset="0.445313"/><stop stop-opacity="1" stop-color="rgb(88.569641%, 24.015808%, 28.096008%)" offset="0.449219"/><stop stop-opacity="1" stop-color="rgb(87.992859%, 24.330139%, 29.380798%)" offset="0.453125"/><stop stop-opacity="1" stop-color="rgb(87.414551%, 24.642944%, 30.664062%)" offset="0.457031"/><stop stop-opacity="1" stop-color="rgb(86.837769%, 24.957275%, 31.948853%)" offset="0.460938"/><stop stop-opacity="1" stop-color="rgb(86.25946%, 25.270081%, 33.232117%)" offset="0.464844"/><stop stop-opacity="1" stop-color="rgb(85.682678%, 25.584412%, 34.516907%)" offset="0.46875"/><stop stop-opacity="1" stop-color="rgb(85.10437%, 25.897217%, 35.800171%)" offset="0.472656"/><stop stop-opacity="1" stop-color="rgb(84.527588%, 26.210022%, 37.084961%)" offset="0.476562"/><stop stop-opacity="1" stop-color="rgb(83.94928%, 26.522827%, 38.368225%)" offset="0.480469"/><stop stop-opacity="1" stop-color="rgb(83.372498%, 26.837158%, 39.653015%)" offset="0.484375"/><stop stop-opacity="1" stop-color="rgb(82.794189%, 27.149963%, 40.936279%)" offset="0.488281"/><stop stop-opacity="1" stop-color="rgb(82.215881%, 27.464294%, 42.221069%)" offset="0.492188"/><stop stop-opacity="1" stop-color="rgb(81.637573%, 27.7771%, 43.504333%)" offset="0.496094"/><stop stop-opacity="1" stop-color="rgb(81.060791%, 28.091431%, 44.787598%)" offset="0.5"/><stop stop-opacity="1" stop-color="rgb(80.482483%, 28.404236%, 46.070862%)" offset="0.503906"/><stop stop-opacity="1" stop-color="rgb(79.905701%, 28.717041%, 47.355652%)" offset="0.507813"/><stop stop-opacity="1" stop-color="rgb(79.327393%, 29.029846%, 48.638916%)" offset="0.511719"/><stop stop-opacity="1" stop-color="rgb(78.75061%, 29.344177%, 49.923706%)" offset="0.515625"/><stop stop-opacity="1" stop-color="rgb(78.172302%, 29.656982%, 51.20697%)" offset="0.519531"/><stop stop-opacity="1" stop-color="rgb(77.59552%, 29.971313%, 52.49176%)" offset="0.523438"/><stop stop-opacity="1" stop-color="rgb(77.017212%, 30.284119%, 53.775024%)" offset="0.527344"/><stop stop-opacity="1" stop-color="rgb(76.44043%, 30.59845%, 55.059814%)" offset="0.53125"/><stop stop-opacity="1" stop-color="rgb(75.862122%, 30.911255%, 56.343079%)" offset="0.535156"/><stop stop-opacity="1" stop-color="rgb(75.285339%, 31.22406%, 57.627869%)" offset="0.539062"/><stop stop-opacity="1" stop-color="rgb(74.707031%, 31.536865%, 58.911133%)" offset="0.542969"/><stop stop-opacity="1" stop-color="rgb(74.128723%, 31.851196%, 60.195923%)" offset="0.546875"/><stop stop-opacity="1" stop-color="rgb(73.550415%, 32.164001%, 61.479187%)" offset="0.550781"/><stop stop-opacity="1" stop-color="rgb(72.973633%, 32.478333%, 62.763977%)" offset="0.554688"/><stop stop-opacity="1" stop-color="rgb(72.395325%, 32.791138%, 64.047241%)" offset="0.558594"/><stop stop-opacity="1" stop-color="rgb(71.818542%, 33.105469%, 65.330505%)" offset="0.5625"/><stop stop-opacity="1" stop-color="rgb(71.240234%, 33.418274%, 66.61377%)" offset="0.566406"/><stop stop-opacity="1" stop-color="rgb(70.663452%, 33.731079%, 67.89856%)" offset="0.570312"/><stop stop-opacity="1" stop-color="rgb(70.085144%, 34.043884%, 69.181824%)" offset="0.574219"/><stop stop-opacity="1" stop-color="rgb(69.508362%, 34.358215%, 70.466614%)" offset="0.578125"/><stop stop-opacity="1" stop-color="rgb(68.930054%, 34.671021%, 71.749878%)" offset="0.582031"/><stop stop-opacity="1" stop-color="rgb(68.353271%, 34.985352%, 73.034668%)" offset="0.585938"/><stop stop-opacity="1" stop-color="rgb(67.774963%, 35.298157%, 74.317932%)" offset="0.589844"/><stop stop-opacity="1" stop-color="rgb(67.198181%, 35.612488%, 75.602722%)" offset="0.59375"/><stop stop-opacity="1" stop-color="rgb(66.609192%, 36.068726%, 76.649475%)" offset="0.597656"/><stop stop-opacity="1" stop-color="rgb(66.020203%, 36.526489%, 77.697754%)" offset="0.601563"/><stop stop-opacity="1" stop-color="rgb(65.393066%, 37.486267%, 77.920532%)" offset="0.605469"/><stop stop-opacity="1" stop-color="rgb(64.76593%, 38.446045%, 78.143311%)" offset="0.609375"/><stop stop-opacity="1" stop-color="rgb(64.138794%, 39.405823%, 78.366089%)" offset="0.613281"/><stop stop-opacity="1" stop-color="rgb(63.511658%, 40.367126%, 78.588867%)" offset="0.617188"/><stop stop-opacity="1" stop-color="rgb(62.882996%, 41.326904%, 78.811646%)" offset="0.621094"/><stop stop-opacity="1" stop-color="rgb(62.255859%, 42.286682%, 79.034424%)" offset="0.625"/><stop stop-opacity="1" stop-color="rgb(61.628723%, 43.24646%, 79.255676%)" offset="0.628906"/><stop stop-opacity="1" stop-color="rgb(61.001587%, 44.206238%, 79.478455%)" offset="0.632812"/><stop stop-opacity="1" stop-color="rgb(60.374451%, 45.166016%, 79.701233%)" offset="0.636719"/><stop stop-opacity="1" stop-color="rgb(59.747314%, 46.127319%, 79.924011%)" offset="0.640625"/><stop stop-opacity="1" stop-color="rgb(59.120178%, 47.087097%, 80.14679%)" offset="0.644531"/><stop stop-opacity="1" stop-color="rgb(58.493042%, 48.046875%, 80.369568%)" offset="0.648438"/><stop stop-opacity="1" stop-color="rgb(57.865906%, 49.006653%, 80.592346%)" offset="0.652344"/><stop stop-opacity="1" stop-color="rgb(57.23877%, 49.966431%, 80.815125%)" offset="0.65625"/><stop stop-opacity="1" stop-color="rgb(56.610107%, 50.926208%, 81.036377%)" offset="0.660156"/><stop stop-opacity="1" stop-color="rgb(55.982971%, 51.887512%, 81.259155%)" offset="0.664063"/><stop stop-opacity="1" stop-color="rgb(55.355835%, 52.84729%, 81.481934%)" offset="0.667969"/><stop stop-opacity="1" stop-color="rgb(54.728699%, 53.807068%, 81.704712%)" offset="0.671875"/><stop stop-opacity="1" stop-color="rgb(54.101562%, 54.766846%, 81.92749%)" offset="0.675781"/><stop stop-opacity="1" stop-color="rgb(53.474426%, 55.726624%, 82.150269%)" offset="0.679688"/><stop stop-opacity="1" stop-color="rgb(52.84729%, 56.686401%, 82.373047%)" offset="0.683594"/><stop stop-opacity="1" stop-color="rgb(52.220154%, 57.647705%, 82.595825%)" offset="0.6875"/><stop stop-opacity="1" stop-color="rgb(51.593018%, 58.607483%, 82.817078%)" offset="0.691406"/><stop stop-opacity="1" stop-color="rgb(50.965881%, 59.567261%, 83.039856%)" offset="0.695312"/><stop stop-opacity="1" stop-color="rgb(50.337219%, 60.527039%, 83.262634%)" offset="0.699219"/><stop stop-opacity="1" stop-color="rgb(49.710083%, 61.486816%, 83.485413%)" offset="0.703125"/><stop stop-opacity="1" stop-color="rgb(49.082947%, 62.446594%, 83.708191%)" offset="0.707031"/><stop stop-opacity="1" stop-color="rgb(48.455811%, 63.407898%, 83.930969%)" offset="0.710938"/><stop stop-opacity="1" stop-color="rgb(47.828674%, 64.367676%, 84.153748%)" offset="0.714844"/><stop stop-opacity="1" stop-color="rgb(47.201538%, 65.327454%, 84.376526%)" offset="0.71875"/><stop stop-opacity="1" stop-color="rgb(46.574402%, 66.287231%, 84.597778%)" offset="0.722656"/><stop stop-opacity="1" stop-color="rgb(45.947266%, 67.247009%, 84.820557%)" offset="0.726563"/><stop stop-opacity="1" stop-color="rgb(45.320129%, 68.206787%, 85.043335%)" offset="0.730469"/><stop stop-opacity="1" stop-color="rgb(44.692993%, 69.168091%, 85.266113%)" offset="0.734375"/><stop stop-opacity="1" stop-color="rgb(44.064331%, 70.127869%, 85.488892%)" offset="0.738281"/><stop stop-opacity="1" stop-color="rgb(43.437195%, 71.087646%, 85.71167%)" offset="0.742188"/><stop stop-opacity="1" stop-color="rgb(42.810059%, 72.047424%, 85.934448%)" offset="0.746094"/><stop stop-opacity="1" stop-color="rgb(42.182922%, 73.008728%, 86.157227%)" offset="0.75"/><stop stop-opacity="1" stop-color="rgb(41.555786%, 73.968506%, 86.378479%)" offset="0.753906"/><stop stop-opacity="1" stop-color="rgb(40.92865%, 74.928284%, 86.601257%)" offset="0.757812"/><stop stop-opacity="1" stop-color="rgb(40.301514%, 75.888062%, 86.824036%)" offset="0.761719"/><stop stop-opacity="1" stop-color="rgb(39.674377%, 76.847839%, 87.046814%)" offset="0.765625"/><stop stop-opacity="1" stop-color="rgb(39.047241%, 77.807617%, 87.269592%)" offset="0.769531"/><stop stop-opacity="1" stop-color="rgb(38.420105%, 78.768921%, 87.492371%)" offset="0.773438"/><stop stop-opacity="1" stop-color="rgb(38.409424%, 78.78418%, 87.495422%)" offset="0.78125"/><stop stop-opacity="1" stop-color="rgb(38.398743%, 78.799438%, 87.5%)" offset="0.8125"/><stop stop-opacity="1" stop-color="rgb(38.398743%, 78.799438%, 87.5%)" offset="0.875"/><stop stop-opacity="1" stop-color="rgb(38.398743%, 78.799438%, 87.5%)" offset="1"/></linearGradient></defs><rect x="-37.5" width="450" fill="#ffffff" y="-37.499999" height="449.999989" fill-opacity="1"/><g clip-path="url(#65c67632e8)"><g clip-path="url(#5ee479cc39)"><path stroke-linecap="butt" transform="matrix(1.084584, 0, 0, 1.084584, 0.0000045, 0.000000000000085265)" fill="none" stroke-linejoin="miter" d="M 172.87376 -0.000000000000078616 C 77.398633 -0.000000000000078616 -0.00000414906 77.398637 -0.00000414906 172.873764 C -0.00000414906 268.352492 77.398633 345.75113 172.87376 345.75113 C 268.352488 345.75113 345.751126 268.352492 345.751126 172.873764 C 345.751126 77.398637 268.352488 -0.000000000000078616 172.87376 -0.000000000000078616 Z M 172.87376 -0.000000000000078616 " stroke="#000000" stroke-width="2.766038" stroke-opacity="1" stroke-miterlimit="4"/></g></g><g clip-path="url(#06870e9326)"><g clip-path="url(#6edab7b37d)"><path stroke-linecap="butt" transform="matrix(1.084584, 0, 0, 1.084584, 61.690788, 61.690784)" fill="none" stroke-linejoin="miter" d="M 115.99049 0.000573769 C 51.932216 0.000573769 0.00056962 51.93222 0.00056962 115.990494 C 0.00056962 180.05237 51.932216 231.984016 115.99049 231.984016 C 180.052366 231.984016 231.984012 180.05237 231.984012 115.990494 C 231.984012 51.93222 180.052366 0.000573769 115.99049 0.000573769 Z M 115.99049 0.000573769 " stroke="#000000" stroke-width="4.149056" stroke-opacity="1" stroke-miterlimit="4"/></g></g><g fill="#000000" fill-opacity="1"><g transform="translate(84.525508, 287.124859)"><g><path d="M -15.421875 -18.859375 C -13.972656 -16.890625 -13.144531 -15.78125 -12.9375 -15.53125 C -12.238281 -14.675781 -11.289062 -13.613281 -10.09375 -12.34375 L -11.15625 -11.46875 C -11.800781 -12.257812 -12.398438 -12.578125 -12.953125 -12.421875 C -13.515625 -12.265625 -14.453125 -11.648438 -15.765625 -10.578125 L -19.171875 -7.796875 L -12.609375 0.21875 L -9.203125 -2.5625 C -7.910156 -3.613281 -7.128906 -4.398438 -6.859375 -4.921875 C -6.585938 -5.453125 -6.769531 -6.109375 -7.40625 -6.890625 L -6.34375 -7.765625 C -5.320312 -6.316406 -4.472656 -5.175781 -3.796875 -4.34375 C -3.578125 -4.082031 -2.617188 -3.015625 -0.921875 -1.140625 L -1.984375 -0.265625 C -2.691406 -1.128906 -3.351562 -1.472656 -3.96875 -1.296875 C -4.582031 -1.128906 -5.507812 -0.539062 -6.75 0.46875 L -15.1875 7.359375 C -16.320312 8.285156 -17.035156 9.035156 -17.328125 9.609375 C -17.617188 10.179688 -17.40625 10.910156 -16.6875 11.796875 L -17.765625 12.671875 C -19.191406 10.691406 -20.039062 9.535156 -20.3125 9.203125 C -20.726562 8.703125 -21.71875 7.609375 -23.28125 5.921875 L -22.203125 5.046875 C -21.515625 5.890625 -20.875 6.222656 -20.28125 6.046875 C -19.695312 5.867188 -18.773438 5.265625 -17.515625 4.234375 L -14.40625 1.703125 L -20.96875 -6.3125 L -24.078125 -3.78125 C -25.222656 -2.84375 -25.984375 -2.097656 -26.359375 -1.546875 C -26.734375 -0.992188 -26.578125 -0.300781 -25.890625 0.53125 L -26.96875 1.40625 C -27.894531 0.0390625 -28.738281 -1.101562 -29.5 -2.03125 C -29.769531 -2.363281 -30.695312 -3.382812 -32.28125 -5.09375 L -31.203125 -5.96875 C -30.535156 -5.15625 -29.878906 -4.847656 -29.234375 -5.046875 C -28.585938 -5.253906 -27.632812 -5.875 -26.375 -6.90625 L -17.9375 -13.796875 C -16.8125 -14.722656 -16.125 -15.453125 -15.875 -15.984375 C -15.632812 -16.523438 -15.835938 -17.191406 -16.484375 -17.984375 Z M -15.421875 -18.859375 "/></g></g></g><g fill="#000000" fill-opacity="1"><g transform="translate(66.691768, 264.791924)"><g><path d="M -5.328125 -11.15625 C -4.003906 -8.675781 -3.597656 -6.378906 -4.109375 -4.265625 C -4.628906 -2.160156 -6.46875 -0.265625 -9.625 1.421875 L -15.9375 4.78125 C -17.175781 5.4375 -18.03125 6.019531 -18.5 6.53125 C -18.976562 7.050781 -18.9375 7.832031 -18.375 8.875 L -19.59375 9.53125 C -20.46875 7.675781 -21.132812 6.316406 -21.59375 5.453125 C -22.007812 4.671875 -22.78125 3.34375 -23.90625 1.46875 L -22.6875 0.8125 C -22.0625 1.9375 -21.410156 2.457031 -20.734375 2.375 C -20.066406 2.289062 -18.929688 1.820312 -17.328125 0.96875 L -12.609375 -1.546875 C -9.679688 -3.109375 -8.007812 -4.644531 -7.59375 -6.15625 C -7.1875 -7.675781 -7.382812 -9.1875 -8.1875 -10.6875 C -9.082031 -12.375 -10.253906 -13.382812 -11.703125 -13.71875 C -13.160156 -14.0625 -15.25 -13.503906 -17.96875 -12.046875 L -22.625 -9.578125 C -24.320312 -8.671875 -25.410156 -7.945312 -25.890625 -7.40625 C -26.378906 -6.863281 -26.320312 -6.023438 -25.71875 -4.890625 L -26.9375 -4.234375 C -27.65625 -5.804688 -28.210938 -6.96875 -28.609375 -7.71875 C -28.972656 -8.40625 -29.609375 -9.484375 -30.515625 -10.953125 L -29.296875 -11.609375 C -28.710938 -10.503906 -28.097656 -9.992188 -27.453125 -10.078125 C -26.816406 -10.160156 -25.757812 -10.597656 -24.28125 -11.390625 L -18.46875 -14.5 C -12.5625 -17.632812 -8.179688 -16.519531 -5.328125 -11.15625 Z M -5.328125 -11.15625 "/></g></g></g><g fill="#000000" fill-opacity="1"><g transform="translate(53.684279, 240.403583)"><g><path d="M -8.15625 -28.671875 C -7.789062 -26.972656 -7.421875 -25.46875 -7.046875 -24.15625 C -6.847656 -23.46875 -6.394531 -22.070312 -5.6875 -19.96875 L -7.015625 -19.59375 C -7.304688 -20.5 -7.601562 -21.128906 -7.90625 -21.484375 C -8.207031 -21.847656 -8.632812 -21.953125 -9.1875 -21.796875 C -9.3125 -21.753906 -13.738281 -19.9375 -22.46875 -16.34375 L -9.5 -14.390625 C -7.519531 -14.109375 -5.925781 -14.023438 -4.71875 -14.140625 L -4.28125 -12.59375 C -4.925781 -12.257812 -5.867188 -11.601562 -7.109375 -10.625 L -17.984375 -1.890625 C -10.984375 -3.035156 -6.769531 -3.8125 -5.34375 -4.21875 C -4.332031 -4.507812 -3.695312 -4.832031 -3.4375 -5.1875 C -3.1875 -5.550781 -3.222656 -6.289062 -3.546875 -7.40625 L -2.21875 -7.78125 C -1.832031 -6.03125 -1.523438 -4.75 -1.296875 -3.9375 C -1.171875 -3.507812 -0.78125 -2.335938 -0.125 -0.421875 L -1.453125 -0.046875 C -1.734375 -1.054688 -2.113281 -1.675781 -2.59375 -1.90625 C -3.070312 -2.144531 -3.734375 -2.207031 -4.578125 -2.09375 L -18.90625 0.5 C -19.664062 0.71875 -20.144531 1 -20.34375 1.34375 C -20.550781 1.695312 -20.507812 2.390625 -20.21875 3.421875 L -21.5625 3.8125 C -21.8125 2.539062 -22.078125 1.410156 -22.359375 0.421875 C -22.535156 -0.210938 -22.929688 -1.394531 -23.546875 -3.125 C -22.816406 -3.332031 -21.265625 -4.335938 -18.890625 -6.140625 L -10.609375 -12.625 L -20.296875 -14 C -23.765625 -14.4375 -25.90625 -14.535156 -26.71875 -14.296875 C -27.113281 -16.085938 -27.398438 -17.296875 -27.578125 -17.921875 C -27.660156 -18.179688 -28.023438 -19.253906 -28.671875 -21.140625 L -27.328125 -21.53125 C -27.046875 -20.539062 -26.710938 -19.925781 -26.328125 -19.6875 C -25.941406 -19.457031 -25.351562 -19.453125 -24.5625 -19.671875 C -23.570312 -19.953125 -21 -20.972656 -16.84375 -22.734375 C -12.695312 -24.492188 -10.34375 -25.539062 -9.78125 -25.875 C -9.21875 -26.207031 -9.117188 -27.015625 -9.484375 -28.296875 Z M -8.15625 -28.671875 "/></g></g></g><g fill="#000000" fill-opacity="1"><g transform="translate(45.16709, 207.932133)"><g><path d="M -1.640625 -22.921875 C -1.578125 -20.648438 -1.519531 -19.109375 -1.46875 -18.296875 C -1.40625 -17.460938 -1.238281 -15.878906 -0.96875 -13.546875 L -2.34375 -13.453125 C -2.40625 -14.390625 -2.535156 -15 -2.734375 -15.28125 C -2.929688 -15.5625 -3.273438 -15.6875 -3.765625 -15.65625 C -4.046875 -15.632812 -4.46875 -15.5 -5.03125 -15.25 L -8.671875 -13.765625 L -8.140625 -6.125 C -5.460938 -5.269531 -3.832031 -4.863281 -3.25 -4.90625 C -2.695312 -4.945312 -2.316406 -5.125 -2.109375 -5.4375 C -1.910156 -5.757812 -1.835938 -6.347656 -1.890625 -7.203125 L -0.515625 -7.296875 C -0.472656 -5.242188 -0.425781 -3.835938 -0.375 -3.078125 C -0.332031 -2.421875 -0.191406 -1.171875 0.046875 0.671875 L -1.328125 0.765625 C -1.390625 -0.191406 -1.675781 -0.894531 -2.1875 -1.34375 C -3.082031 -2.132812 -9.820312 -4.421875 -22.40625 -8.203125 L -23.203125 -11.671875 C -14.359375 -15.472656 -8.070312 -18.316406 -4.34375 -20.203125 C -3.363281 -20.679688 -2.921875 -21.554688 -3.015625 -22.828125 Z M -10.765625 -12.890625 L -19.03125 -9.4375 L -10.328125 -6.75 Z M -10.765625 -12.890625 "/></g></g></g><g fill="#000000" fill-opacity="1"><g transform="translate(43.425642, 182.166991)"><g><path d="M 2.953125 -22.9375 L 2.578125 -19.9375 C 2.117188 -19.789062 1.238281 -19.289062 -0.0625 -18.4375 L -15.703125 -8.34375 C -7.253906 -7.320312 -2.625 -6.867188 -1.8125 -6.984375 C -1.332031 -7.066406 -0.976562 -7.242188 -0.75 -7.515625 C -0.53125 -7.785156 -0.359375 -8.410156 -0.234375 -9.390625 L 1.125 -9.21875 C 0.789062 -7.3125 0.582031 -6.007812 0.5 -5.3125 C 0.425781 -4.726562 0.316406 -3.429688 0.171875 -1.421875 L -1.1875 -1.59375 C -1.070312 -2.53125 -1.09375 -3.164062 -1.25 -3.5 C -1.414062 -3.832031 -1.679688 -4.09375 -2.046875 -4.28125 C -2.992188 -4.59375 -4.613281 -4.890625 -6.90625 -5.171875 L -17.140625 -6.40625 C -18.085938 -6.519531 -18.769531 -6.4375 -19.1875 -6.15625 C -19.613281 -5.882812 -19.90625 -5.132812 -20.0625 -3.90625 L -21.453125 -4.078125 C -21.160156 -5.679688 -20.972656 -6.820312 -20.890625 -7.5 C -20.816406 -8.113281 -20.734375 -9.207031 -20.640625 -10.78125 C -19.828125 -10.945312 -18.84375 -11.378906 -17.6875 -12.078125 L -3.3125 -21.25 L -14.875 -22.65625 C -15.726562 -22.625 -16.238281 -22.597656 -16.40625 -22.578125 C -16.894531 -22.515625 -17.265625 -22.34375 -17.515625 -22.0625 C -17.773438 -21.78125 -17.960938 -21.148438 -18.078125 -20.171875 L -19.46875 -20.34375 C -19.15625 -22.175781 -18.957031 -23.441406 -18.875 -24.140625 C -18.769531 -24.972656 -18.660156 -26.25 -18.546875 -27.96875 L -17.15625 -27.796875 C -17.269531 -26.804688 -17.15625 -26.128906 -16.8125 -25.765625 C -16.476562 -25.398438 -15.507812 -25.066406 -13.90625 -24.765625 L 0.203125 -23.046875 C 1.191406 -22.921875 2.109375 -22.882812 2.953125 -22.9375 Z M 2.953125 -22.9375 "/></g></g></g><g fill="#000000" fill-opacity="1"><g transform="translate(47.915801, 152.587342)"><g/></g></g><g fill="#000000" fill-opacity="1"><g transform="translate(51.034627, 140.304061)"><g><path d="M 8.21875 -18.40625 C 7.457031 -16.632812 5.269531 -16.023438 1.65625 -16.578125 C -1.945312 -17.128906 -4.410156 -15.867188 -5.734375 -12.796875 L -6.109375 -12.96875 C -5.535156 -14.945312 -5.429688 -16.519531 -5.796875 -17.6875 C -6.160156 -18.851562 -7.0625 -19.742188 -8.5 -20.359375 C -11.007812 -21.234375 -12.847656 -20.3125 -14.015625 -17.59375 C -14.335938 -16.863281 -14.585938 -16.140625 -14.765625 -15.421875 L -1.25 -9.59375 C 0.1875 -8.976562 1.148438 -8.726562 1.640625 -8.84375 C 2.140625 -8.96875 2.625 -9.578125 3.09375 -10.671875 L 4.359375 -10.125 C 3.597656 -8.625 2.878906 -7.082031 2.203125 -5.5 C 1.910156 -4.832031 1.363281 -3.4375 0.5625 -1.3125 L -0.703125 -1.859375 C -0.210938 -3.003906 -0.144531 -3.828125 -0.5 -4.328125 C -0.851562 -4.835938 -1.703125 -5.382812 -3.046875 -5.96875 L -14.359375 -10.828125 C -15.546875 -11.335938 -16.375 -11.523438 -16.84375 -11.390625 C -17.320312 -11.253906 -17.769531 -10.691406 -18.1875 -9.703125 L -19.3125 -10.1875 C -18.351562 -12.15625 -17.707031 -13.535156 -17.375 -14.328125 C -17.070312 -15.023438 -16.722656 -15.90625 -16.328125 -16.96875 C -15.941406 -18.03125 -15.675781 -18.738281 -15.53125 -19.09375 C -13.46875 -23.769531 -10.703125 -25.550781 -7.234375 -24.4375 C -5.003906 -23.476562 -3.878906 -21.335938 -3.859375 -18.015625 C -2.753906 -19.898438 -0.835938 -20.679688 1.890625 -20.359375 C 4.628906 -20.035156 6.320312 -20.046875 6.96875 -20.390625 C 7.625 -20.742188 8.054688 -21.164062 8.265625 -21.65625 L 8.921875 -21.4375 C 8.804688 -20.375 8.570312 -19.363281 8.21875 -18.40625 Z M 8.21875 -18.40625 "/></g></g></g><g fill="#000000" fill-opacity="1"><g transform="translate(61.912416, 115.989396)"><g><path d="M 10.28125 -15.546875 C 7.875 -12.191406 6.101562 -9.664062 4.96875 -7.96875 C 4.15625 -6.726562 2.765625 -4.472656 0.796875 -1.203125 L -0.34375 -1.96875 C 0.382812 -3.082031 0.546875 -3.90625 0.140625 -4.4375 C -0.253906 -4.976562 -1.128906 -5.710938 -2.484375 -6.640625 L -12.75 -13.4375 C -13.476562 -13.914062 -14.070312 -14.125 -14.53125 -14.0625 C -14.988281 -14 -15.5 -13.546875 -16.0625 -12.703125 L -17.21875 -13.46875 C -15.1875 -16.21875 -13.554688 -18.523438 -12.328125 -20.390625 C -10.484375 -23.171875 -9.070312 -25.460938 -8.09375 -27.265625 C -6.894531 -26.515625 -5.582031 -26.050781 -4.15625 -25.875 L -4.390625 -24.484375 C -5.640625 -24.660156 -6.585938 -24.503906 -7.234375 -24.015625 C -7.890625 -23.523438 -8.75 -22.476562 -9.8125 -20.875 C -10.207031 -20.28125 -10.878906 -19.207031 -11.828125 -17.65625 L -5.625 -13.5625 L -4.21875 -15.703125 C -3.59375 -16.648438 -3.25 -17.394531 -3.1875 -17.9375 C -3.125 -18.476562 -3.4375 -18.992188 -4.125 -19.484375 L -3.3125 -20.421875 C -2.039062 -19.398438 -1.109375 -18.695312 -0.515625 -18.3125 C -0.0546875 -18 0.675781 -17.546875 1.6875 -16.953125 L 1.0625 -15.84375 L 0.90625 -15.96875 C 0.21875 -16.414062 -0.367188 -16.539062 -0.859375 -16.34375 C -1.347656 -16.15625 -1.890625 -15.613281 -2.484375 -14.71875 L -3.96875 -12.46875 L 2.765625 -8.015625 C 3.359375 -8.785156 4.101562 -9.847656 5 -11.203125 C 6.175781 -12.984375 6.84375 -14.335938 7 -15.265625 C 7.15625 -16.203125 6.707031 -17.347656 5.65625 -18.703125 L 6.78125 -19.640625 C 8.070312 -18.015625 9.238281 -16.648438 10.28125 -15.546875 Z M 10.28125 -15.546875 "/></g></g></g><g fill="#000000" fill-opacity="1"><g transform="translate(75.772461, 95.688697)"><g><path d="M 5.40625 -5.375 C 4.101562 -3.96875 2.570312 -2.863281 0.8125 -2.0625 L 0.15625 -2.6875 C -0.894531 -3.65625 -2.265625 -4.523438 -3.953125 -5.296875 L -3.171875 -6.75 C -1.535156 -5.863281 -0.140625 -5.472656 1.015625 -5.578125 C 2.179688 -5.691406 3.335938 -6.367188 4.484375 -7.609375 C 5.390625 -8.585938 5.867188 -9.566406 5.921875 -10.546875 C 5.984375 -11.535156 5.644531 -12.375 4.90625 -13.0625 C 3.320312 -14.519531 0.984375 -14.285156 -2.109375 -12.359375 C -5.210938 -10.429688 -7.742188 -10.375 -9.703125 -12.1875 C -11.117188 -13.488281 -11.804688 -15.085938 -11.765625 -16.984375 C -11.734375 -18.890625 -10.882812 -20.75 -9.21875 -22.5625 C -8.257812 -23.59375 -6.835938 -24.550781 -4.953125 -25.4375 C -3.785156 -24.363281 -2.390625 -23.460938 -0.765625 -22.734375 L -1.609375 -21.421875 C -3.910156 -22.816406 -5.945312 -22.585938 -7.71875 -20.734375 C -8.59375 -19.785156 -9.066406 -18.847656 -9.140625 -17.921875 C -9.222656 -17.003906 -8.957031 -16.257812 -8.34375 -15.6875 C -6.820312 -14.289062 -4.5 -14.613281 -1.375 -16.65625 C 1.75 -18.695312 4.300781 -18.804688 6.28125 -16.984375 C 7.863281 -15.515625 8.59375 -13.734375 8.46875 -11.640625 C 8.351562 -9.546875 7.332031 -7.457031 5.40625 -5.375 Z M 5.40625 -5.375 "/></g></g></g><g fill="#000000" fill-opacity="1"><g transform="translate(90.628385, 79.604763)"><g><path d="M 9.96875 -7.1875 C 7.289062 -5.15625 4.46875 -4.375 1.5 -4.84375 C -1.46875 -5.320312 -3.894531 -6.800781 -5.78125 -9.28125 C -7.726562 -11.84375 -8.429688 -14.660156 -7.890625 -17.734375 C -7.359375 -20.804688 -5.894531 -23.253906 -3.5 -25.078125 C -0.863281 -27.078125 1.945312 -27.851562 4.9375 -27.40625 C 7.925781 -26.96875 10.335938 -25.546875 12.171875 -23.140625 C 14.128906 -20.554688 14.894531 -17.742188 14.46875 -14.703125 C 14.050781 -11.660156 12.550781 -9.15625 9.96875 -7.1875 Z M 8.84375 -9.1875 C 10.414062 -10.382812 11.21875 -11.941406 11.25 -13.859375 C 11.28125 -15.785156 10.488281 -17.8125 8.875 -19.9375 C 7.144531 -22.21875 5.25 -23.644531 3.1875 -24.21875 C 1.125 -24.789062 -0.734375 -24.445312 -2.390625 -23.1875 C -3.941406 -22.007812 -4.742188 -20.453125 -4.796875 -18.515625 C -4.847656 -16.585938 -4.078125 -14.578125 -2.484375 -12.484375 C -0.722656 -10.171875 1.191406 -8.726562 3.265625 -8.15625 C 5.335938 -7.59375 7.195312 -7.9375 8.84375 -9.1875 Z M 8.84375 -9.1875 "/></g></g></g><g fill="#000000" fill-opacity="1"><g transform="translate(113.253386, 62.784062)"><g><path d="M 11.328125 -4.953125 C 8.804688 -3.710938 6.5 -3.378906 4.40625 -3.953125 C 2.320312 -4.535156 0.492188 -6.4375 -1.078125 -9.65625 L -4.234375 -16.078125 C -4.835938 -17.335938 -5.390625 -18.210938 -5.890625 -18.703125 C -6.390625 -19.203125 -7.171875 -19.191406 -8.234375 -18.671875 L -8.859375 -19.921875 C -6.972656 -20.722656 -5.59375 -21.34375 -4.71875 -21.78125 C -3.925781 -22.164062 -2.570312 -22.882812 -0.65625 -23.9375 L -0.03125 -22.6875 C -1.1875 -22.113281 -1.734375 -21.488281 -1.671875 -20.8125 C -1.609375 -20.132812 -1.175781 -18.976562 -0.375 -17.34375 L 1.96875 -12.546875 C 3.425781 -9.578125 4.90625 -7.859375 6.40625 -7.390625 C 7.914062 -6.921875 9.429688 -7.0625 10.953125 -7.8125 C 12.671875 -8.65625 13.722656 -9.796875 14.109375 -11.234375 C 14.492188 -12.679688 14.007812 -14.785156 12.65625 -17.546875 L 10.34375 -22.28125 C 9.488281 -24.007812 8.800781 -25.125 8.28125 -25.625 C 7.757812 -26.132812 6.921875 -26.101562 5.765625 -25.53125 L 5.140625 -26.78125 C 6.742188 -27.445312 7.925781 -27.96875 8.6875 -28.34375 C 9.382812 -28.6875 10.484375 -29.285156 11.984375 -30.140625 L 12.609375 -28.890625 C 11.484375 -28.335938 10.945312 -27.742188 11 -27.109375 C 11.0625 -26.472656 11.460938 -25.398438 12.203125 -23.890625 L 15.109375 -17.96875 C 18.046875 -11.96875 16.785156 -7.628906 11.328125 -4.953125 Z M 11.328125 -4.953125 "/></g></g></g><g fill="#000000" fill-opacity="1"><g transform="translate(138.368968, 50.855482)"><g><path d="M 19.5 -5.0625 C 17.644531 -4.550781 15.8125 -5.878906 14 -9.046875 C 12.1875 -12.210938 9.664062 -13.351562 6.4375 -12.46875 L 6.328125 -12.859375 C 8.234375 -13.648438 9.523438 -14.546875 10.203125 -15.546875 C 10.890625 -16.554688 11.023438 -17.820312 10.609375 -19.34375 C 9.734375 -21.851562 7.863281 -22.71875 5 -21.9375 C 4.238281 -21.726562 3.515625 -21.460938 2.828125 -21.140625 L 6.71875 -6.953125 C 7.125 -5.441406 7.53125 -4.53125 7.9375 -4.21875 C 8.34375 -3.914062 9.117188 -3.921875 10.265625 -4.234375 L 10.625 -2.90625 C 8.976562 -2.5625 7.328125 -2.164062 5.671875 -1.71875 C 4.960938 -1.519531 3.535156 -1.070312 1.390625 -0.375 L 1.03125 -1.703125 C 2.226562 -2.035156 2.910156 -2.492188 3.078125 -3.078125 C 3.242188 -3.671875 3.132812 -4.675781 2.75 -6.09375 L -0.5 -17.96875 C -0.84375 -19.21875 -1.210938 -19.984375 -1.609375 -20.265625 C -2.015625 -20.546875 -2.734375 -20.546875 -3.765625 -20.265625 L -4.09375 -21.46875 C -1.945312 -21.9375 -0.457031 -22.285156 0.375 -22.515625 C 1.101562 -22.722656 2 -23.003906 3.0625 -23.359375 C 4.132812 -23.722656 4.859375 -23.953125 5.234375 -24.046875 C 10.171875 -25.347656 13.289062 -24.296875 14.59375 -20.890625 C 15.226562 -18.546875 14.253906 -16.332031 11.671875 -14.25 C 13.835938 -14.5625 15.644531 -13.546875 17.09375 -11.203125 C 18.550781 -8.867188 19.617188 -7.554688 20.296875 -7.265625 C 20.972656 -6.972656 21.570312 -6.898438 22.09375 -7.046875 L 22.3125 -6.390625 C 21.414062 -5.816406 20.476562 -5.375 19.5 -5.0625 Z M 19.5 -5.0625 "/></g></g></g><g fill="#000000" fill-opacity="1"><g transform="translate(164.133957, 44.163658)"><g><path d="M 12.375 -0.765625 C 9 -0.472656 6.175781 -1.253906 3.90625 -3.109375 C 1.644531 -4.960938 0.367188 -7.535156 0.078125 -10.828125 C -0.203125 -14.078125 0.664062 -16.863281 2.6875 -19.1875 C 4.71875 -21.507812 7.347656 -22.804688 10.578125 -23.078125 C 12.992188 -23.296875 15.34375 -23.09375 17.625 -22.46875 C 17.644531 -22.050781 17.675781 -21.617188 17.71875 -21.171875 C 17.832031 -19.847656 18.070312 -18.46875 18.4375 -17.03125 L 17.046875 -16.6875 C 16.753906 -18.144531 16.054688 -19.226562 14.953125 -19.9375 C 13.859375 -20.65625 12.429688 -20.9375 10.671875 -20.78125 C 8.523438 -20.59375 6.898438 -19.71875 5.796875 -18.15625 C 4.703125 -16.59375 4.265625 -14.507812 4.484375 -11.90625 C 4.734375 -9.007812 5.632812 -6.796875 7.1875 -5.265625 C 8.738281 -3.734375 10.675781 -3.066406 13 -3.265625 C 16.019531 -3.535156 18.050781 -5.097656 19.09375 -7.953125 L 20.4375 -7.46875 C 19.65625 -5.90625 19.1875 -4.367188 19.03125 -2.859375 C 16.675781 -1.640625 14.457031 -0.941406 12.375 -0.765625 Z M 12.375 -0.765625 "/></g></g></g><g fill="#000000" fill-opacity="1"><g transform="translate(189.335649, 42.277177)"><g><path d="M 18.578125 1.609375 C 14.472656 1.097656 11.40625 0.75 9.375 0.5625 C 7.882812 0.425781 5.238281 0.28125 1.4375 0.125 L 1.5625 -1.25 C 2.882812 -1.132812 3.6875 -1.378906 3.96875 -1.984375 C 4.25 -2.597656 4.476562 -3.722656 4.65625 -5.359375 L 5.703125 -17.625 C 5.785156 -18.476562 5.6875 -19.09375 5.40625 -19.46875 C 5.125 -19.84375 4.484375 -20.070312 3.484375 -20.15625 L 3.609375 -21.546875 C 6.992188 -21.085938 9.800781 -20.765625 12.03125 -20.578125 C 15.34375 -20.285156 18.03125 -20.132812 20.09375 -20.125 C 20.007812 -18.71875 20.226562 -17.347656 20.75 -16.015625 L 19.421875 -15.546875 C 18.972656 -16.734375 18.378906 -17.492188 17.640625 -17.828125 C 16.898438 -18.171875 15.570312 -18.425781 13.65625 -18.59375 C 12.945312 -18.65625 11.679688 -18.734375 9.859375 -18.828125 L 9.21875 -11.421875 L 11.765625 -11.203125 C 12.910156 -11.109375 13.734375 -11.160156 14.234375 -11.359375 C 14.742188 -11.566406 15.046875 -12.09375 15.140625 -12.9375 L 16.34375 -12.671875 C 16.0625 -11.054688 15.890625 -9.894531 15.828125 -9.1875 C 15.773438 -8.644531 15.734375 -7.785156 15.703125 -6.609375 L 14.4375 -6.640625 L 14.453125 -6.84375 C 14.523438 -7.664062 14.359375 -8.242188 13.953125 -8.578125 C 13.546875 -8.910156 12.804688 -9.125 11.734375 -9.21875 L 9.046875 -9.453125 L 8.359375 -1.40625 C 9.316406 -1.25 10.601562 -1.097656 12.21875 -0.953125 C 14.34375 -0.773438 15.851562 -0.835938 16.75 -1.140625 C 17.644531 -1.453125 18.441406 -2.398438 19.140625 -3.984375 L 20.46875 -3.421875 C 19.664062 -1.503906 19.035156 0.171875 18.578125 1.609375 Z M 18.578125 1.609375 "/></g></g></g><g fill="#000000" fill-opacity="1"><g transform="translate(213.790295, 44.758365)"><g><path d="M 7.296875 2.171875 C 5.441406 1.691406 3.742188 0.875 2.203125 -0.28125 L 2.4375 -1.140625 C 2.78125 -2.515625 2.890625 -4.132812 2.765625 -6 L 4.421875 -6.015625 C 4.421875 -4.148438 4.742188 -2.734375 5.390625 -1.765625 C 6.046875 -0.796875 7.191406 -0.101562 8.828125 0.3125 C 10.117188 0.632812 11.207031 0.582031 12.09375 0.15625 C 12.988281 -0.257812 13.5625 -0.957031 13.8125 -1.9375 C 14.332031 -4.007812 13.003906 -5.945312 9.828125 -7.75 C 6.660156 -9.5625 5.40625 -11.757812 6.0625 -14.34375 C 6.53125 -16.207031 7.609375 -17.578125 9.296875 -18.453125 C 10.992188 -19.335938 13.035156 -19.476562 15.421875 -18.875 C 16.785156 -18.53125 18.3125 -17.738281 20 -16.5 C 19.601562 -14.96875 19.46875 -13.316406 19.59375 -11.546875 L 18.046875 -11.640625 C 18.171875 -14.328125 16.992188 -16.007812 14.515625 -16.6875 C 13.265625 -17.007812 12.21875 -16.984375 11.375 -16.609375 C 10.539062 -16.242188 10.019531 -15.648438 9.8125 -14.828125 C 9.300781 -12.828125 10.6875 -10.941406 13.96875 -9.171875 C 17.257812 -7.410156 18.578125 -5.21875 17.921875 -2.59375 C 17.390625 -0.507812 16.175781 0.976562 14.28125 1.875 C 12.382812 2.769531 10.054688 2.867188 7.296875 2.171875 Z M 7.296875 2.171875 "/></g></g></g><g fill="#000000" fill-opacity="1"><g transform="translate(235.293905, 50.732195)"><g/></g></g><g fill="#000000" fill-opacity="1"><g transform="translate(247.167745, 54.689506)"><g><path d="M 25.703125 15.109375 C 24.265625 14.140625 22.957031 13.3125 21.78125 12.625 C 21.15625 12.257812 19.863281 11.5625 17.90625 10.53125 L 18.609375 9.34375 C 19.429688 9.800781 20.078125 10.050781 20.546875 10.09375 C 21.015625 10.132812 21.394531 9.90625 21.6875 9.40625 C 21.75 9.300781 23.695312 4.929688 27.53125 -3.703125 L 16.8125 3.84375 C 15.1875 5.019531 13.972656 6.0625 13.171875 6.96875 L 11.796875 6.15625 C 12.023438 5.46875 12.253906 4.34375 12.484375 2.78125 L 14.3125 -11.0625 C 10.039062 -5.382812 7.53125 -1.910156 6.78125 -0.640625 C 6.25 0.265625 6.015625 0.9375 6.078125 1.375 C 6.148438 1.8125 6.6875 2.328125 7.6875 2.921875 L 6.984375 4.109375 C 5.484375 3.097656 4.367188 2.378906 3.640625 1.953125 C 3.265625 1.734375 2.175781 1.15625 0.375 0.21875 L 1.078125 -0.96875 C 1.984375 -0.4375 2.691406 -0.25 3.203125 -0.40625 C 3.710938 -0.5625 4.226562 -0.972656 4.75 -1.640625 L 13.34375 -13.40625 C 13.738281 -14.09375 13.890625 -14.632812 13.796875 -15.03125 C 13.703125 -15.425781 13.191406 -15.898438 12.265625 -16.453125 L 12.96875 -17.65625 C 14.03125 -16.90625 15.003906 -16.265625 15.890625 -15.734375 C 16.460938 -15.410156 17.566406 -14.828125 19.203125 -13.984375 C 18.816406 -13.328125 18.382812 -11.53125 17.90625 -8.59375 L 16.375 1.8125 L 24.359375 -3.875 C 27.171875 -5.957031 28.789062 -7.363281 29.21875 -8.09375 C 30.738281 -7.070312 31.78125 -6.398438 32.34375 -6.078125 C 32.570312 -5.929688 33.570312 -5.40625 35.34375 -4.5 L 34.640625 -3.296875 C 33.753906 -3.816406 33.085938 -4.03125 32.640625 -3.9375 C 32.203125 -3.84375 31.773438 -3.441406 31.359375 -2.734375 C 30.835938 -1.835938 29.679688 0.675781 27.890625 4.8125 C 26.097656 8.957031 25.113281 11.34375 24.9375 11.96875 C 24.757812 12.59375 25.25 13.242188 26.40625 13.921875 Z M 25.703125 15.109375 "/></g></g></g><g fill="#000000" fill-opacity="1"><g transform="translate(275.743076, 72.305006)"><g><path d="M 17.015625 15.453125 C 15.398438 13.859375 14.296875 12.785156 13.703125 12.234375 C 13.078125 11.671875 11.859375 10.632812 10.046875 9.125 L 10.96875 8.109375 C 11.664062 8.742188 12.179688 9.097656 12.515625 9.171875 C 12.859375 9.242188 13.195312 9.101562 13.53125 8.75 C 13.71875 8.539062 13.929688 8.140625 14.171875 7.546875 L 15.765625 3.96875 L 10.109375 -1.171875 C 7.597656 0.046875 6.140625 0.875 5.734375 1.3125 C 5.367188 1.71875 5.21875 2.109375 5.28125 2.484375 C 5.351562 2.859375 5.703125 3.332031 6.328125 3.90625 L 5.40625 4.921875 C 3.96875 3.472656 2.96875 2.492188 2.40625 1.984375 C 1.914062 1.535156 0.945312 0.722656 -0.5 -0.453125 L 0.421875 -1.46875 C 1.128906 -0.820312 1.816406 -0.507812 2.484375 -0.53125 C 3.691406 -0.582031 10.15625 -3.582031 21.875 -9.53125 L 24.84375 -7.578125 C 21.070312 1.285156 18.484375 7.679688 17.078125 11.609375 C 16.703125 12.628906 16.988281 13.570312 17.9375 14.4375 Z M 16.6875 1.875 L 20.296875 -6.296875 L 12.140625 -2.265625 Z M 16.6875 1.875 "/></g></g></g><g fill="#000000" fill-opacity="1"><g transform="translate(294.780119, 89.748142)"><g><path d="M 13.703125 18.625 L 11.890625 16.203125 C 12.128906 15.785156 12.421875 14.820312 12.765625 13.3125 L 17.125 -4.796875 C 10.300781 0.296875 6.632812 3.164062 6.125 3.8125 C 5.832031 4.195312 5.703125 4.5625 5.734375 4.90625 C 5.765625 5.257812 6.070312 5.828125 6.65625 6.609375 L 5.546875 7.4375 C 4.472656 5.84375 3.722656 4.757812 3.296875 4.1875 C 2.941406 3.71875 2.128906 2.707031 0.859375 1.15625 L 1.96875 0.328125 C 2.53125 1.078125 2.984375 1.519531 3.328125 1.65625 C 3.671875 1.800781 4.039062 1.8125 4.4375 1.6875 C 5.332031 1.25 6.703125 0.34375 8.546875 -1.03125 L 16.8125 -7.1875 C 17.582031 -7.757812 18.023438 -8.289062 18.140625 -8.78125 C 18.265625 -9.269531 17.957031 -10.015625 17.21875 -11.015625 L 18.328125 -11.859375 C 19.222656 -10.492188 19.875 -9.539062 20.28125 -9 C 20.65625 -8.488281 21.351562 -7.632812 22.375 -6.4375 C 21.894531 -5.757812 21.476562 -4.769531 21.125 -3.46875 L 17.078125 13.09375 L 26.40625 6.125 C 27 5.519531 27.347656 5.144531 27.453125 5 C 27.765625 4.625 27.914062 4.242188 27.90625 3.859375 C 27.90625 3.484375 27.609375 2.898438 27.015625 2.109375 L 28.125 1.265625 C 29.164062 2.828125 29.894531 3.890625 30.3125 4.453125 C 30.8125 5.117188 31.613281 6.113281 32.71875 7.4375 L 31.609375 8.28125 C 31.015625 7.476562 30.46875 7.0625 29.96875 7.03125 C 29.46875 7 28.535156 7.425781 27.171875 8.3125 L 15.765625 16.8125 C 14.972656 17.40625 14.285156 18.007812 13.703125 18.625 Z M 13.703125 18.625 "/></g></g></g><g fill="#000000" fill-opacity="1"><g transform="translate(312.081475, 113.71272)"><g><path d="M 9.96875 20.703125 C 9.070312 18.617188 8.453125 17.210938 8.109375 16.484375 C 7.742188 15.734375 7.003906 14.316406 5.890625 12.234375 L 7.125 11.640625 C 7.53125 12.484375 7.875 13.003906 8.15625 13.203125 C 8.445312 13.398438 8.8125 13.390625 9.25 13.171875 C 9.507812 13.046875 9.859375 12.765625 10.296875 12.328125 L 13.125 9.59375 L 9.8125 2.703125 C 7.019531 2.890625 5.359375 3.113281 4.828125 3.375 C 4.328125 3.613281 4.035156 3.914062 3.953125 4.28125 C 3.878906 4.65625 4.03125 5.226562 4.40625 6 L 3.171875 6.59375 C 2.378906 4.707031 1.816406 3.421875 1.484375 2.734375 C 1.203125 2.140625 0.609375 1.023438 -0.296875 -0.609375 L 0.9375 -1.203125 C 1.351562 -0.335938 1.878906 0.207031 2.515625 0.4375 C 3.648438 0.832031 10.757812 0.476562 23.84375 -0.625 L 25.875 2.3125 C 19.050781 9.101562 14.253906 14.054688 11.484375 17.171875 C 10.742188 17.984375 10.648438 18.960938 11.203125 20.109375 Z M 14.765625 8.015625 L 21.171875 1.78125 L 12.09375 2.46875 Z M 14.765625 8.015625 "/></g></g></g><g fill="#000000" fill-opacity="1"><g transform="translate(323.073244, 137.163469)"><g><path d="M 2.984375 12.09375 C 2.078125 8.75 2.304688 5.8125 3.671875 3.28125 C 5.046875 0.75 7.332031 -0.953125 10.53125 -1.828125 C 13.832031 -2.734375 16.796875 -2.375 19.421875 -0.75 C 22.046875 0.875 23.84375 3.460938 24.8125 7.015625 C 25.414062 9.222656 25.628906 11.507812 25.453125 13.875 C 23.859375 14.332031 22.226562 14.953125 20.5625 15.734375 L 19.90625 14.421875 C 22.53125 13.179688 23.367188 10.820312 22.421875 7.34375 C 21.796875 5.0625 20.597656 3.472656 18.828125 2.578125 C 17.054688 1.679688 14.878906 1.585938 12.296875 2.296875 C 9.492188 3.054688 7.46875 4.351562 6.21875 6.1875 C 4.976562 8.03125 4.6875 10.140625 5.34375 12.515625 C 5.613281 13.503906 6.125 14.539062 6.875 15.625 L 9.921875 14.796875 C 11.828125 14.160156 12.5 12.8125 11.9375 10.75 L 13.53125 10.296875 C 13.945312 12.171875 14.300781 13.632812 14.59375 14.6875 L 15.421875 17.75 C 13.785156 17.675781 12.21875 17.847656 10.71875 18.265625 L 6.234375 19.484375 C 4.773438 16.992188 3.691406 14.53125 2.984375 12.09375 Z M 2.984375 12.09375 "/></g></g></g><g fill="#000000" fill-opacity="1"><g transform="translate(329.682364, 162.62886)"><g><path d="M 1.6875 18.5625 C 1.46875 14.445312 1.269531 11.375 1.09375 9.34375 C 0.96875 7.851562 0.644531 5.21875 0.125 1.4375 L 1.5 1.3125 C 1.625 2.632812 2.007812 3.378906 2.65625 3.546875 C 3.3125 3.722656 4.453125 3.753906 6.078125 3.640625 L 18.34375 2.515625 C 19.207031 2.441406 19.800781 2.234375 20.125 1.890625 C 20.445312 1.554688 20.5625 0.890625 20.46875 -0.109375 L 21.84375 -0.234375 C 21.988281 3.171875 22.160156 5.984375 22.359375 8.203125 C 22.660156 11.523438 22.988281 14.203125 23.34375 16.234375 C 21.945312 16.398438 20.632812 16.859375 19.40625 17.609375 L 18.703125 16.359375 C 19.804688 15.710938 20.457031 15 20.65625 14.21875 C 20.863281 13.4375 20.882812 12.085938 20.71875 10.171875 C 20.644531 9.460938 20.5 8.203125 20.28125 6.390625 L 12.875 7.0625 L 13.09375 9.609375 C 13.207031 10.753906 13.410156 11.554688 13.703125 12.015625 C 13.992188 12.472656 14.554688 12.675781 15.390625 12.625 L 15.34375 13.875 C 13.71875 13.875 12.550781 13.90625 11.84375 13.96875 C 11.289062 14.019531 10.429688 14.128906 9.265625 14.296875 L 9.078125 13.03125 L 9.28125 13.015625 C 10.101562 12.941406 10.640625 12.675781 10.890625 12.21875 C 11.148438 11.769531 11.226562 11.007812 11.125 9.9375 L 10.890625 7.25 L 2.859375 7.984375 C 2.859375 8.941406 2.929688 10.234375 3.078125 11.859375 C 3.273438 13.984375 3.609375 15.457031 4.078125 16.28125 C 4.546875 17.113281 5.617188 17.726562 7.296875 18.125 L 6.984375 19.5625 C 4.953125 19.101562 3.1875 18.769531 1.6875 18.5625 Z M 1.6875 18.5625 "/></g></g></g><g fill="#000000" fill-opacity="1"><g transform="translate(332.065147, 186.815642)"><g><path d="M -3.28125 29.625 C -2.988281 27.914062 -2.765625 26.382812 -2.609375 25.03125 C -2.535156 24.320312 -2.425781 22.859375 -2.28125 20.640625 L -0.921875 20.796875 C -0.992188 21.734375 -0.953125 22.425781 -0.796875 22.875 C -0.648438 23.320312 -0.289062 23.578125 0.28125 23.640625 C 0.40625 23.660156 5.1875 23.648438 14.625 23.609375 L 3.359375 16.921875 C 1.628906 15.898438 0.1875 15.21875 -0.96875 14.875 L -0.796875 13.28125 C -0.078125 13.207031 1.039062 12.957031 2.5625 12.53125 L 15.9375 8.53125 C 9.019531 6.96875 4.820312 6.101562 3.34375 5.9375 C 2.300781 5.820312 1.59375 5.882812 1.21875 6.125 C 0.84375 6.363281 0.59375 7.054688 0.46875 8.203125 L -0.890625 8.046875 C -0.585938 6.273438 -0.390625 4.96875 -0.296875 4.125 C -0.253906 3.695312 -0.171875 2.46875 -0.046875 0.4375 L 1.3125 0.59375 C 1.195312 1.632812 1.316406 2.351562 1.671875 2.75 C 2.023438 3.15625 2.617188 3.460938 3.453125 3.671875 L 17.703125 6.6875 C 18.484375 6.769531 19.035156 6.6875 19.359375 6.4375 C 19.679688 6.195312 19.898438 5.539062 20.015625 4.46875 L 21.40625 4.609375 C 21.164062 5.878906 20.988281 7.03125 20.875 8.0625 C 20.800781 8.707031 20.710938 9.945312 20.609375 11.78125 C 19.847656 11.695312 18.035156 12.046875 15.171875 12.828125 L 5.03125 15.6875 L 13.5 20.65625 C 16.550781 22.363281 18.5 23.257812 19.34375 23.34375 C 19.03125 25.144531 18.835938 26.367188 18.765625 27.015625 C 18.734375 27.285156 18.660156 28.414062 18.546875 30.40625 L 17.15625 30.265625 C 17.269531 29.242188 17.191406 28.550781 16.921875 28.1875 C 16.660156 27.820312 16.125 27.597656 15.3125 27.515625 C 14.28125 27.398438 11.507812 27.367188 7 27.421875 C 2.5 27.472656 -0.0703125 27.546875 -0.71875 27.640625 C -1.375 27.742188 -1.773438 28.457031 -1.921875 29.78125 Z M -3.28125 29.625 "/></g></g></g><g fill="#000000" fill-opacity="1"><g transform="translate(327.609671, 220.124692)"><g><path d="M -5.703125 17.75 C -4.296875 13.875 -3.273438 10.960938 -2.640625 9.015625 C -2.179688 7.597656 -1.445312 5.050781 -0.4375 1.375 L 0.875 1.796875 C 0.46875 3.054688 0.53125 3.890625 1.0625 4.296875 C 1.59375 4.710938 2.628906 5.1875 4.171875 5.71875 L 15.890625 9.5 C 16.710938 9.757812 17.335938 9.796875 17.765625 9.609375 C 18.191406 9.429688 18.5625 8.863281 18.875 7.90625 L 20.203125 8.328125 C 19.003906 11.523438 18.0625 14.1875 17.375 16.3125 C 16.351562 19.476562 15.609375 22.066406 15.140625 24.078125 C 13.773438 23.691406 12.382812 23.601562 10.96875 23.8125 L 10.8125 22.390625 C 12.070312 22.222656 12.945312 21.816406 13.4375 21.171875 C 13.9375 20.523438 14.484375 19.285156 15.078125 17.453125 C 15.296875 16.773438 15.65625 15.5625 16.15625 13.8125 L 9.078125 11.546875 L 8.296875 13.984375 C 7.941406 15.078125 7.804688 15.890625 7.890625 16.421875 C 7.984375 16.953125 8.425781 17.359375 9.21875 17.640625 L 8.703125 18.765625 C 7.191406 18.128906 6.101562 17.703125 5.4375 17.484375 C 4.90625 17.316406 4.070312 17.085938 2.9375 16.796875 L 3.25 15.546875 L 3.4375 15.609375 C 4.21875 15.859375 4.816406 15.820312 5.234375 15.5 C 5.660156 15.1875 6.035156 14.519531 6.359375 13.5 L 7.1875 10.9375 L -0.5 8.46875 C -0.863281 9.351562 -1.296875 10.570312 -1.796875 12.125 C -2.453125 14.15625 -2.726562 15.640625 -2.625 16.578125 C -2.519531 17.523438 -1.773438 18.507812 -0.390625 19.53125 L -1.234375 20.71875 C -2.921875 19.519531 -4.410156 18.53125 -5.703125 17.75 Z M -5.703125 17.75 "/></g></g></g><g fill="#000000" fill-opacity="1"><g transform="translate(320.095486, 243.335437)"><g><path d="M -11.203125 20.234375 L -9.75 17.5625 C -9.269531 17.601562 -8.269531 17.46875 -6.75 17.15625 L 11.515625 13.546875 C 4.035156 9.472656 -0.101562 7.347656 -0.90625 7.171875 C -1.375 7.054688 -1.757812 7.082031 -2.0625 7.25 C -2.375 7.425781 -2.765625 7.945312 -3.234375 8.8125 L -4.4375 8.15625 C -3.4375 6.5 -2.765625 5.359375 -2.421875 4.734375 C -2.140625 4.222656 -1.5625 3.066406 -0.6875 1.265625 L 0.515625 1.921875 C 0.0664062 2.742188 -0.140625 3.335938 -0.109375 3.703125 C -0.0859375 4.078125 0.0546875 4.421875 0.328125 4.734375 C 1.085938 5.367188 2.476562 6.238281 4.5 7.34375 L 13.546875 12.265625 C 14.390625 12.734375 15.0625 12.914062 15.5625 12.8125 C 16.0625 12.71875 16.609375 12.128906 17.203125 11.046875 L 18.421875 11.71875 C 17.554688 13.101562 16.960938 14.09375 16.640625 14.6875 C 16.347656 15.226562 15.863281 16.210938 15.1875 17.640625 C 14.375 17.492188 13.304688 17.53125 11.984375 17.75 L -4.765625 20.96875 L 5.453125 26.546875 C 6.265625 26.835938 6.753906 27.003906 6.921875 27.046875 C 7.390625 27.160156 7.796875 27.132812 8.140625 26.96875 C 8.484375 26.800781 8.894531 26.285156 9.375 25.421875 L 10.59375 26.09375 C 9.613281 27.6875 8.957031 28.789062 8.625 29.40625 C 8.21875 30.144531 7.644531 31.289062 6.90625 32.84375 L 5.6875 32.171875 C 6.164062 31.285156 6.3125 30.609375 6.125 30.140625 C 5.945312 29.679688 5.171875 29.015625 3.796875 28.140625 L -8.6875 21.34375 C -9.5625 20.863281 -10.398438 20.492188 -11.203125 20.234375 Z M -11.203125 20.234375 "/></g></g></g><g fill="#000000" fill-opacity="1"><g transform="translate(305.576377, 269.061094)"><g><path d="M -10.734375 12.921875 C -8.910156 10.921875 -7.796875 9.679688 -7.390625 9.203125 C -6.742188 8.410156 -5.773438 7.144531 -4.484375 5.40625 L -3.421875 6.28125 C -4.347656 7.394531 -4.675781 8.210938 -4.40625 8.734375 C -4.132812 9.253906 -3.226562 10.15625 -1.6875 11.4375 L 8.6875 20.046875 L 10.34375 18.0625 C 11.320312 16.882812 11.894531 15.960938 12.0625 15.296875 C 12.226562 14.628906 12.054688 13.578125 11.546875 12.140625 L 13.015625 11.765625 C 13.554688 13.398438 14.410156 14.742188 15.578125 15.796875 C 14.972656 16.210938 13.8125 17.457031 12.09375 19.53125 L 6.4375 26.34375 C 4.507812 28.664062 3.421875 30.132812 3.171875 30.75 C 1.878906 29.832031 0.46875 29.269531 -1.0625 29.0625 L -0.828125 27.328125 C 0.484375 27.617188 1.457031 27.609375 2.09375 27.296875 C 2.726562 26.992188 3.507812 26.289062 4.4375 25.1875 L 6.125 23.140625 L -4.125 14.625 C -5.820312 13.21875 -6.957031 12.476562 -7.53125 12.40625 C -8.019531 12.207031 -8.734375 12.671875 -9.671875 13.796875 Z M -10.734375 12.921875 "/></g></g></g><g fill="#000000" fill-opacity="1"><g transform="translate(81.894835, 310.693362)"><g/></g></g><g fill="#000000" fill-opacity="1"><g transform="translate(89.986417, 317.561786)"><g><path d="M 8.734375 4.21875 L 9.84375 0.671875 L 13.5625 0.640625 L 10.546875 -1.515625 L 11.65625 -5 L 8.6875 -2.828125 L 5.671875 -4.96875 L 6.84375 -1.453125 L 3.859375 0.75 L 7.578125 0.75 Z M 5.375 3.828125 C 4.070312 2.898438 3.289062 1.648438 3.03125 0.078125 C 2.769531 -1.484375 3.097656 -2.910156 4.015625 -4.203125 C 4.929688 -5.492188 6.171875 -6.269531 7.734375 -6.53125 C 9.304688 -6.800781 10.742188 -6.472656 12.046875 -5.546875 C 13.335938 -4.628906 14.109375 -3.390625 14.359375 -1.828125 C 14.617188 -0.265625 14.289062 1.160156 13.375 2.453125 C 12.457031 3.742188 11.21875 4.523438 9.65625 4.796875 C 8.09375 5.066406 6.664062 4.742188 5.375 3.828125 Z M 5.375 3.828125 "/></g></g></g><g fill="#000000" fill-opacity="1"><g transform="translate(105.517875, 328.066759)"><g/></g></g><g fill="#000000" fill-opacity="1"><g transform="translate(114.730882, 333.336737)"><g><path d="M 9.375 2.5625 L 9.8125 -1.125 L 13.453125 -1.859375 L 10.09375 -3.40625 L 10.53125 -7.046875 L 8.046875 -4.359375 L 4.6875 -5.921875 L 6.46875 -2.6875 L 3.953125 0.046875 L 7.59375 -0.65625 Z M 5.984375 2.78125 C 4.535156 2.101562 3.539062 1.019531 3 -0.46875 C 2.457031 -1.957031 2.519531 -3.421875 3.1875 -4.859375 C 3.851562 -6.296875 4.929688 -7.289062 6.421875 -7.84375 C 7.910156 -8.394531 9.378906 -8.332031 10.828125 -7.65625 C 12.265625 -7 13.253906 -5.921875 13.796875 -4.421875 C 14.335938 -2.929688 14.273438 -1.46875 13.609375 -0.03125 C 12.941406 1.40625 11.863281 2.394531 10.375 2.9375 C 8.882812 3.488281 7.421875 3.4375 5.984375 2.78125 Z M 5.984375 2.78125 "/></g></g></g><g fill="#000000" fill-opacity="1"><g transform="translate(131.92403, 340.818168)"><g/></g></g><g fill="#000000" fill-opacity="1"><g transform="translate(141.919276, 344.253038)"><g><path d="M 5.78125 1.53125 C 4.476562 1.101562 3.640625 0.84375 3.265625 0.75 C 3.035156 0.6875 2.195312 0.503906 0.75 0.203125 L 0.9375 -0.515625 C 1.632812 -0.335938 2.085938 -0.378906 2.296875 -0.640625 C 2.515625 -0.910156 2.707031 -1.378906 2.875 -2.046875 L 4.671875 -8.8125 C 4.796875 -9.3125 4.800781 -9.679688 4.6875 -9.921875 C 4.582031 -10.171875 4.257812 -10.367188 3.71875 -10.515625 L 3.90625 -11.25 C 5.601562 -10.71875 7.09375 -10.28125 8.375 -9.9375 C 9.6875 -9.59375 11.097656 -9.265625 12.609375 -8.953125 C 12.453125 -8.117188 12.445312 -7.363281 12.59375 -6.6875 L 11.859375 -6.53125 C 11.765625 -7.101562 11.519531 -7.546875 11.125 -7.859375 C 10.738281 -8.171875 10.023438 -8.46875 8.984375 -8.75 C 8.535156 -8.863281 7.882812 -9.007812 7.03125 -9.1875 L 5.96875 -5.171875 L 7.203125 -4.859375 C 7.835938 -4.679688 8.289062 -4.632812 8.5625 -4.71875 C 8.832031 -4.8125 9.03125 -5.050781 9.15625 -5.4375 L 9.828125 -5.234375 C 9.523438 -4.460938 9.316406 -3.84375 9.203125 -3.375 L 8.875 -1.9375 L 8.203125 -2.078125 L 8.234375 -2.21875 C 8.367188 -2.71875 8.320312 -3.066406 8.09375 -3.265625 C 7.863281 -3.460938 7.476562 -3.632812 6.9375 -3.78125 L 5.6875 -4.109375 L 4.96875 -1.390625 C 4.769531 -0.660156 4.710938 -0.160156 4.796875 0.109375 C 4.878906 0.378906 5.269531 0.613281 5.96875 0.8125 Z M 5.78125 1.53125 "/></g></g></g><g fill="#000000" fill-opacity="1"><g transform="translate(157.703286, 348.180076)"><g><path d="M 6.609375 1.28125 C 5.097656 1.0625 3.960938 0.5 3.203125 -0.40625 C 2.453125 -1.320312 2.222656 -2.742188 2.515625 -4.671875 L 3.078125 -8.53125 C 3.191406 -9.28125 3.207031 -9.84375 3.125 -10.21875 C 3.050781 -10.601562 2.695312 -10.84375 2.0625 -10.9375 L 2.171875 -11.6875 C 3.273438 -11.46875 4.085938 -11.320312 4.609375 -11.25 C 5.085938 -11.175781 5.914062 -11.078125 7.09375 -10.953125 L 6.984375 -10.203125 C 6.296875 -10.296875 5.859375 -10.179688 5.671875 -9.859375 C 5.492188 -9.535156 5.332031 -8.882812 5.1875 -7.90625 L 4.765625 -5.03125 C 4.503906 -3.238281 4.640625 -2.003906 5.171875 -1.328125 C 5.703125 -0.660156 6.421875 -0.257812 7.328125 -0.125 C 8.367188 0.03125 9.195312 -0.148438 9.8125 -0.671875 C 10.425781 -1.203125 10.859375 -2.296875 11.109375 -3.953125 L 11.53125 -6.796875 C 11.6875 -7.835938 11.722656 -8.550781 11.640625 -8.9375 C 11.554688 -9.332031 11.171875 -9.582031 10.484375 -9.6875 L 10.59375 -10.4375 C 11.519531 -10.25 12.207031 -10.117188 12.65625 -10.046875 C 13.082031 -9.984375 13.765625 -9.910156 14.703125 -9.828125 L 14.59375 -9.078125 C 13.914062 -9.179688 13.488281 -9.078125 13.3125 -8.765625 C 13.144531 -8.460938 12.992188 -7.859375 12.859375 -6.953125 L 12.328125 -3.390625 C 11.796875 0.210938 9.890625 1.769531 6.609375 1.28125 Z M 6.609375 1.28125 "/></g></g></g><g fill="#000000" fill-opacity="1"><g transform="translate(176.791804, 350.639764)"><g><path d="M 9.15625 0.265625 C 7.675781 0.160156 6.769531 0.101562 6.4375 0.09375 C 5.875 0.0703125 5.003906 0.078125 3.828125 0.109375 L 3.84375 -0.640625 C 4.632812 -0.617188 5.097656 -0.753906 5.234375 -1.046875 C 5.367188 -1.335938 5.453125 -2.03125 5.484375 -3.125 L 5.703125 -10.484375 L 4.28125 -10.53125 C 3.445312 -10.550781 2.859375 -10.484375 2.515625 -10.328125 C 2.179688 -10.171875 1.789062 -9.738281 1.34375 -9.03125 L 0.6875 -9.546875 C 1.207031 -10.328125 1.492188 -11.148438 1.546875 -12.015625 C 1.929688 -11.890625 2.859375 -11.804688 4.328125 -11.765625 L 9.171875 -11.625 C 10.804688 -11.570312 11.796875 -11.597656 12.140625 -11.703125 C 12.179688 -10.835938 12.414062 -10.039062 12.84375 -9.3125 L 12.015625 -8.828125 C 11.703125 -9.492188 11.375 -9.910156 11.03125 -10.078125 C 10.6875 -10.253906 10.117188 -10.351562 9.328125 -10.375 L 7.890625 -10.421875 L 7.671875 -3.140625 C 7.640625 -1.941406 7.703125 -1.207031 7.859375 -0.9375 C 7.941406 -0.65625 8.378906 -0.503906 9.171875 -0.484375 Z M 9.15625 0.265625 "/></g></g></g><g fill="#000000" fill-opacity="1"><g transform="translate(195.228297, 350.856095)"><g><path d="M 6.734375 -0.296875 C 5.210938 -0.160156 3.976562 -0.441406 3.03125 -1.140625 C 2.082031 -1.847656 1.523438 -3.175781 1.359375 -5.125 L 1 -9.015625 C 0.9375 -9.765625 0.820312 -10.316406 0.65625 -10.671875 C 0.488281 -11.023438 0.0820312 -11.175781 -0.5625 -11.125 L -0.625 -11.875 C 0.488281 -11.914062 1.3125 -11.960938 1.84375 -12.015625 C 2.332031 -12.054688 3.164062 -12.15625 4.34375 -12.3125 L 4.40625 -11.5625 C 3.71875 -11.488281 3.320312 -11.269531 3.21875 -10.90625 C 3.113281 -10.550781 3.109375 -9.882812 3.203125 -8.90625 L 3.46875 -6.015625 C 3.625 -4.203125 4.039062 -3.03125 4.71875 -2.5 C 5.394531 -1.976562 6.1875 -1.757812 7.09375 -1.84375 C 8.144531 -1.9375 8.90625 -2.304688 9.375 -2.953125 C 9.851562 -3.609375 10.015625 -4.773438 9.859375 -6.453125 L 9.609375 -9.3125 C 9.515625 -10.351562 9.378906 -11.054688 9.203125 -11.421875 C 9.035156 -11.785156 8.609375 -11.9375 7.921875 -11.875 L 7.859375 -12.625 C 8.796875 -12.65625 9.492188 -12.691406 9.953125 -12.734375 C 10.378906 -12.773438 11.0625 -12.863281 12 -13 L 12.0625 -12.25 C 11.375 -12.1875 10.984375 -11.984375 10.890625 -11.640625 C 10.796875 -11.304688 10.789062 -10.6875 10.875 -9.78125 L 11.1875 -6.203125 C 11.519531 -2.566406 10.035156 -0.597656 6.734375 -0.296875 Z M 6.734375 -0.296875 "/></g></g></g><g fill="#000000" fill-opacity="1"><g transform="translate(214.364543, 348.779597)"><g><path d="M 10.78125 -2.125 C 9.757812 -1.914062 8.800781 -2.703125 7.90625 -4.484375 C 7.019531 -6.265625 5.6875 -6.96875 3.90625 -6.59375 L 3.859375 -6.796875 C 4.921875 -7.160156 5.65625 -7.609375 6.0625 -8.140625 C 6.46875 -8.671875 6.582031 -9.351562 6.40625 -10.1875 C 6.007812 -11.582031 5.015625 -12.109375 3.421875 -11.765625 C 3.003906 -11.679688 2.601562 -11.566406 2.21875 -11.421875 L 3.875 -3.5625 C 4.050781 -2.726562 4.242188 -2.222656 4.453125 -2.046875 C 4.660156 -1.867188 5.082031 -1.84375 5.71875 -1.96875 L 5.875 -1.234375 C 4.96875 -1.097656 4.0625 -0.9375 3.15625 -0.75 C 2.757812 -0.664062 1.960938 -0.46875 0.765625 -0.15625 L 0.609375 -0.890625 C 1.273438 -1.035156 1.664062 -1.265625 1.78125 -1.578125 C 1.894531 -1.898438 1.867188 -2.453125 1.703125 -3.234375 L 0.3125 -9.8125 C 0.164062 -10.488281 -0.0078125 -10.910156 -0.21875 -11.078125 C -0.4375 -11.253906 -0.828125 -11.28125 -1.390625 -11.15625 L -1.53125 -11.8125 C -0.363281 -12.007812 0.453125 -12.15625 0.921875 -12.25 C 1.328125 -12.34375 1.828125 -12.46875 2.421875 -12.625 C 3.015625 -12.78125 3.414062 -12.878906 3.625 -12.921875 C 6.351562 -13.472656 8.007812 -12.800781 8.59375 -10.90625 C 8.875 -9.601562 8.28125 -8.425781 6.8125 -7.375 C 7.988281 -7.476562 8.9375 -6.867188 9.65625 -5.546875 C 10.375 -4.234375 10.910156 -3.484375 11.265625 -3.296875 C 11.628906 -3.117188 11.957031 -3.0625 12.25 -3.125 L 12.359375 -2.765625 C 11.847656 -2.484375 11.320312 -2.269531 10.78125 -2.125 Z M 10.78125 -2.125 "/></g></g></g><g fill="#000000" fill-opacity="1"><g transform="translate(232.42007, 344.605568)"><g><path d="M 9.65625 -3.203125 C 7.488281 -2.578125 5.875 -2.09375 4.8125 -1.75 C 4.039062 -1.5 2.679688 -1 0.734375 -0.25 L 0.5 -0.96875 C 1.195312 -1.195312 1.550781 -1.492188 1.5625 -1.859375 C 1.570312 -2.222656 1.445312 -2.832031 1.1875 -3.6875 L -0.921875 -10.0625 C -1.078125 -10.507812 -1.265625 -10.796875 -1.484375 -10.921875 C -1.710938 -11.054688 -2.085938 -11.035156 -2.609375 -10.859375 L -2.84375 -11.5625 C -1.050781 -12.0625 0.421875 -12.503906 1.578125 -12.890625 C 3.296875 -13.460938 4.675781 -13.96875 5.71875 -14.40625 C 5.976562 -13.695312 6.382812 -13.054688 6.9375 -12.484375 L 6.359375 -11.96875 C 5.878906 -12.46875 5.421875 -12.722656 4.984375 -12.734375 C 4.546875 -12.753906 3.828125 -12.597656 2.828125 -12.265625 C 2.460938 -12.140625 1.804688 -11.898438 0.859375 -11.546875 L 2.140625 -7.703125 L 3.484375 -8.140625 C 4.078125 -8.335938 4.472656 -8.539062 4.671875 -8.75 C 4.878906 -8.96875 4.921875 -9.300781 4.796875 -9.75 L 5.453125 -9.875 C 5.648438 -9.007812 5.8125 -8.394531 5.9375 -8.03125 C 6.03125 -7.75 6.195312 -7.304688 6.4375 -6.703125 L 5.796875 -6.4375 L 5.75 -6.546875 C 5.613281 -6.960938 5.410156 -7.210938 5.140625 -7.296875 C 4.867188 -7.378906 4.453125 -7.328125 3.890625 -7.140625 L 2.484375 -6.671875 L 3.875 -2.5 C 4.394531 -2.625 5.070312 -2.828125 5.90625 -3.109375 C 7.019531 -3.472656 7.765625 -3.832031 8.140625 -4.1875 C 8.523438 -4.539062 8.71875 -5.1875 8.71875 -6.125 L 9.515625 -6.125 C 9.515625 -5 9.5625 -4.023438 9.65625 -3.203125 Z M 9.65625 -3.203125 "/></g></g></g><g fill="#000000" fill-opacity="1"><g transform="translate(248.62371, 338.818282)"><g/></g></g><g fill="#000000" fill-opacity="1"><g transform="translate(258.339555, 334.545632)"><g><path d="M 7.625 -6.015625 L 4.921875 -8.5625 L 6.515625 -11.90625 L 3.265625 -10.140625 L 0.59375 -12.65625 L 1.265625 -9.046875 L -1.984375 -7.28125 L 1.6875 -6.796875 L 2.375 -3.140625 L 3.984375 -6.484375 Z M 5.78125 -3.15625 C 4.382812 -2.394531 2.921875 -2.238281 1.390625 -2.6875 C -0.128906 -3.144531 -1.265625 -4.066406 -2.015625 -5.453125 C -2.773438 -6.835938 -2.929688 -8.289062 -2.484375 -9.8125 C -2.046875 -11.34375 -1.128906 -12.488281 0.265625 -13.25 C 1.660156 -14.007812 3.117188 -14.160156 4.640625 -13.703125 C 6.160156 -13.253906 7.300781 -12.335938 8.0625 -10.953125 C 8.8125 -9.566406 8.96875 -8.109375 8.53125 -6.578125 C 8.09375 -5.054688 7.175781 -3.914062 5.78125 -3.15625 Z M 5.78125 -3.15625 "/></g></g></g><g fill="#000000" fill-opacity="1"><g transform="translate(274.57743, 325.169568)"><g/></g></g><g fill="#000000" fill-opacity="1"><g transform="translate(283.346074, 319.189489)"><g><path d="M 6.390625 -7.3125 L 3.265625 -9.328125 L 4.203125 -12.90625 L 1.34375 -10.5625 L -1.734375 -12.5625 L -0.421875 -9.140625 L -3.28125 -6.796875 L 0.40625 -6.984375 L 1.75 -3.53125 L 2.734375 -7.109375 Z M 5.109375 -4.171875 C 3.867188 -3.160156 2.457031 -2.734375 0.875 -2.890625 C -0.695312 -3.054688 -1.984375 -3.753906 -2.984375 -4.984375 C -3.984375 -6.210938 -4.40625 -7.613281 -4.25 -9.1875 C -4.09375 -10.769531 -3.394531 -12.066406 -2.15625 -13.078125 C -0.925781 -14.078125 0.472656 -14.492188 2.046875 -14.328125 C 3.617188 -14.171875 4.90625 -13.476562 5.90625 -12.25 C 6.90625 -11.019531 7.328125 -9.613281 7.171875 -8.03125 C 7.023438 -6.457031 6.335938 -5.171875 5.109375 -4.171875 Z M 5.109375 -4.171875 "/></g></g></g><g clip-path="url(#7d317982a4)"><g clip-path="url(#ad419b906e)"><path fill="url(#b751298320)" d="M 122.277344 76.949219 L 122.277344 298.167969 L 253.191406 298.167969 L 253.191406 76.949219 Z M 122.277344 76.949219 " fill-rule="nonzero"/></g></g></svg>