<svg xmlns="http://www.w3.org/2000/svg" xmlns:xlink="http://www.w3.org/1999/xlink" width="508" zoomAndPan="magnify" viewBox="0 0 381 148.499996" height="198" preserveAspectRatio="xMidYMid meet" version="1.0"><defs><g/><clipPath id="53134ee254"><path d="M 6 0 L 83 0 L 83 148 L 6 148 Z M 6 0 " clip-rule="nonzero"/></clipPath><clipPath id="55c5b8daa2"><path d="M 7.042969 85.917969 C 0.738281 29.3125 61.390625 42.957031 82.175781 20.445312 C 87.972656 71.597656 28.683594 50.453125 7.042969 85.917969 Z M 76.042969 62.726562 C 68.207031 76.03125 18.71875 73.535156 12.664062 97.847656 C 1.421875 144.566406 52.527344 147.976562 52.527344 147.976562 C 52.527344 147.976562 23.230469 138.765625 29.363281 111.828125 C 32.769531 98.53125 78.433594 105.351562 76.042969 62.726562 Z M 35.941406 -0.0117188 C 28.308594 -0.0117188 22.117188 6.183594 22.117188 13.824219 C 22.117188 21.464844 28.308594 27.65625 35.941406 27.65625 C 43.578125 27.65625 49.765625 21.464844 49.765625 13.824219 C 49.765625 6.183594 43.578125 -0.0117188 35.941406 -0.0117188 Z M 35.941406 -0.0117188 " clip-rule="nonzero"/></clipPath><linearGradient x1="64.987441" gradientTransform="matrix(0.353771, 0, 0, 0.353986, -43.863562, -14.513433)" y1="353.228814" x2="430.937294" gradientUnits="userSpaceOnUse" y2="141.948195" id="7e1b7a5cac"><stop stop-opacity="1" stop-color="rgb(97.999573%, 72.499084%, 8.198547%)" offset="0"/><stop stop-opacity="1" stop-color="rgb(97.999573%, 72.499084%, 8.198547%)" offset="0.125"/><stop stop-opacity="1" stop-color="rgb(97.999573%, 72.499084%, 8.198547%)" offset="0.1875"/><stop stop-opacity="1" stop-color="rgb(97.999573%, 72.499084%, 8.198547%)" offset="0.21875"/><stop stop-opacity="1" stop-color="rgb(97.999573%, 72.499084%, 8.198547%)" offset="0.234375"/><stop stop-opacity="1" stop-color="rgb(97.999573%, 72.499084%, 8.198547%)" offset="0.242188"/><stop stop-opacity="1" stop-color="rgb(97.903442%, 71.821594%, 8.395386%)" offset="0.246094"/><stop stop-opacity="1" stop-color="rgb(97.808838%, 71.144104%, 8.59375%)" offset="0.25"/><stop stop-opacity="1" stop-color="rgb(97.662354%, 70.108032%, 8.894348%)" offset="0.253906"/><stop stop-opacity="1" stop-color="rgb(97.517395%, 69.073486%, 9.196472%)" offset="0.257812"/><stop stop-opacity="1" stop-color="rgb(97.372437%, 68.03894%, 9.49707%)" offset="0.261719"/><stop stop-opacity="1" stop-color="rgb(97.227478%, 67.004395%, 9.799194%)" offset="0.265625"/><stop stop-opacity="1" stop-color="rgb(97.080994%, 65.968323%, 10.099792%)" offset="0.269531"/><stop stop-opacity="1" stop-color="rgb(96.936035%, 64.933777%, 10.401917%)" offset="0.273438"/><stop stop-opacity="1" stop-color="rgb(96.789551%, 63.897705%, 10.702515%)" offset="0.277344"/><stop stop-opacity="1" stop-color="rgb(96.644592%, 62.863159%, 11.004639%)" offset="0.28125"/><stop stop-opacity="1" stop-color="rgb(96.498108%, 61.827087%, 11.305237%)" offset="0.285156"/><stop stop-opacity="1" stop-color="rgb(96.353149%, 60.792542%, 11.607361%)" offset="0.289062"/><stop stop-opacity="1" stop-color="rgb(96.208191%, 59.75647%, 11.907959%)" offset="0.292969"/><stop stop-opacity="1" stop-color="rgb(96.063232%, 58.721924%, 12.210083%)" offset="0.296875"/><stop stop-opacity="1" stop-color="rgb(95.916748%, 57.685852%, 12.512207%)" offset="0.300781"/><stop stop-opacity="1" stop-color="rgb(95.77179%, 56.651306%, 12.814331%)" offset="0.304688"/><stop stop-opacity="1" stop-color="rgb(95.625305%, 55.615234%, 13.114929%)" offset="0.308594"/><stop stop-opacity="1" stop-color="rgb(95.480347%, 54.580688%, 13.417053%)" offset="0.3125"/><stop stop-opacity="1" stop-color="rgb(95.333862%, 53.544617%, 13.717651%)" offset="0.316406"/><stop stop-opacity="1" stop-color="rgb(95.188904%, 52.510071%, 14.019775%)" offset="0.320312"/><stop stop-opacity="1" stop-color="rgb(95.043945%, 51.473999%, 14.320374%)" offset="0.324219"/><stop stop-opacity="1" stop-color="rgb(94.898987%, 50.439453%, 14.622498%)" offset="0.328125"/><stop stop-opacity="1" stop-color="rgb(94.752502%, 49.403381%, 14.923096%)" offset="0.332031"/><stop stop-opacity="1" stop-color="rgb(94.607544%, 48.368835%, 15.22522%)" offset="0.335938"/><stop stop-opacity="1" stop-color="rgb(94.46106%, 47.332764%, 15.525818%)" offset="0.339844"/><stop stop-opacity="1" stop-color="rgb(94.316101%, 46.298218%, 15.827942%)" offset="0.34375"/><stop stop-opacity="1" stop-color="rgb(94.169617%, 45.262146%, 16.12854%)" offset="0.347656"/><stop stop-opacity="1" stop-color="rgb(94.024658%, 44.2276%, 16.430664%)" offset="0.351562"/><stop stop-opacity="1" stop-color="rgb(93.8797%, 43.191528%, 16.731262%)" offset="0.355469"/><stop stop-opacity="1" stop-color="rgb(93.734741%, 42.156982%, 17.033386%)" offset="0.359375"/><stop stop-opacity="1" stop-color="rgb(93.588257%, 41.120911%, 17.333984%)" offset="0.363281"/><stop stop-opacity="1" stop-color="rgb(93.443298%, 40.086365%, 17.636108%)" offset="0.367188"/><stop stop-opacity="1" stop-color="rgb(93.296814%, 39.051819%, 17.936707%)" offset="0.371094"/><stop stop-opacity="1" stop-color="rgb(93.151855%, 38.017273%, 18.238831%)" offset="0.375"/><stop stop-opacity="1" stop-color="rgb(93.006897%, 36.981201%, 18.539429%)" offset="0.378906"/><stop stop-opacity="1" stop-color="rgb(92.861938%, 35.946655%, 18.841553%)" offset="0.382812"/><stop stop-opacity="1" stop-color="rgb(92.715454%, 34.910583%, 19.143677%)" offset="0.386719"/><stop stop-opacity="1" stop-color="rgb(92.570496%, 33.876038%, 19.445801%)" offset="0.390625"/><stop stop-opacity="1" stop-color="rgb(92.424011%, 32.839966%, 19.746399%)" offset="0.394531"/><stop stop-opacity="1" stop-color="rgb(92.279053%, 31.80542%, 20.048523%)" offset="0.398438"/><stop stop-opacity="1" stop-color="rgb(92.132568%, 30.769348%, 20.349121%)" offset="0.402344"/><stop stop-opacity="1" stop-color="rgb(91.98761%, 29.734802%, 20.651245%)" offset="0.40625"/><stop stop-opacity="1" stop-color="rgb(91.842651%, 28.69873%, 20.951843%)" offset="0.410156"/><stop stop-opacity="1" stop-color="rgb(91.697693%, 27.664185%, 21.253967%)" offset="0.414062"/><stop stop-opacity="1" stop-color="rgb(91.551208%, 26.628113%, 21.554565%)" offset="0.417969"/><stop stop-opacity="1" stop-color="rgb(91.40625%, 25.593567%, 21.856689%)" offset="0.421875"/><stop stop-opacity="1" stop-color="rgb(91.259766%, 24.557495%, 22.157288%)" offset="0.425781"/><stop stop-opacity="1" stop-color="rgb(91.114807%, 23.522949%, 22.459412%)" offset="0.429688"/><stop stop-opacity="1" stop-color="rgb(90.708923%, 23.300171%, 23.352051%)" offset="0.433594"/><stop stop-opacity="1" stop-color="rgb(90.30304%, 23.077393%, 24.24469%)" offset="0.4375"/><stop stop-opacity="1" stop-color="rgb(89.724731%, 23.390198%, 25.527954%)" offset="0.441406"/><stop stop-opacity="1" stop-color="rgb(89.147949%, 23.703003%, 26.812744%)" offset="0.445312"/><stop stop-opacity="1" stop-color="rgb(88.569641%, 24.015808%, 28.096008%)" offset="0.449219"/><stop stop-opacity="1" stop-color="rgb(87.992859%, 24.330139%, 29.380798%)" offset="0.453125"/><stop stop-opacity="1" stop-color="rgb(87.414551%, 24.642944%, 30.664062%)" offset="0.457031"/><stop stop-opacity="1" stop-color="rgb(86.837769%, 24.957275%, 31.948853%)" offset="0.460938"/><stop stop-opacity="1" stop-color="rgb(86.25946%, 25.270081%, 33.232117%)" offset="0.464844"/><stop stop-opacity="1" stop-color="rgb(85.682678%, 25.584412%, 34.516907%)" offset="0.46875"/><stop stop-opacity="1" stop-color="rgb(85.10437%, 25.897217%, 35.800171%)" offset="0.472656"/><stop stop-opacity="1" stop-color="rgb(84.527588%, 26.210022%, 37.084961%)" offset="0.476563"/><stop stop-opacity="1" stop-color="rgb(83.94928%, 26.522827%, 38.368225%)" offset="0.480469"/><stop stop-opacity="1" stop-color="rgb(83.372498%, 26.837158%, 39.653015%)" offset="0.484375"/><stop stop-opacity="1" stop-color="rgb(82.794189%, 27.149963%, 40.936279%)" offset="0.488281"/><stop stop-opacity="1" stop-color="rgb(82.215881%, 27.464294%, 42.221069%)" offset="0.492187"/><stop stop-opacity="1" stop-color="rgb(81.637573%, 27.7771%, 43.504333%)" offset="0.496094"/><stop stop-opacity="1" stop-color="rgb(81.060791%, 28.091431%, 44.787598%)" offset="0.5"/><stop stop-opacity="1" stop-color="rgb(80.482483%, 28.404236%, 46.070862%)" offset="0.503906"/><stop stop-opacity="1" stop-color="rgb(79.905701%, 28.717041%, 47.355652%)" offset="0.507812"/><stop stop-opacity="1" stop-color="rgb(79.327393%, 29.029846%, 48.638916%)" offset="0.511719"/><stop stop-opacity="1" stop-color="rgb(78.75061%, 29.344177%, 49.923706%)" offset="0.515625"/><stop stop-opacity="1" stop-color="rgb(78.172302%, 29.656982%, 51.20697%)" offset="0.519531"/><stop stop-opacity="1" stop-color="rgb(77.59552%, 29.971313%, 52.49176%)" offset="0.523438"/><stop stop-opacity="1" stop-color="rgb(77.017212%, 30.284119%, 53.775024%)" offset="0.527344"/><stop stop-opacity="1" stop-color="rgb(76.44043%, 30.59845%, 55.059814%)" offset="0.53125"/><stop stop-opacity="1" stop-color="rgb(75.862122%, 30.911255%, 56.343079%)" offset="0.535156"/><stop stop-opacity="1" stop-color="rgb(75.285339%, 31.22406%, 57.627869%)" offset="0.539062"/><stop stop-opacity="1" stop-color="rgb(74.707031%, 31.536865%, 58.911133%)" offset="0.542969"/><stop stop-opacity="1" stop-color="rgb(74.128723%, 31.851196%, 60.195923%)" offset="0.546875"/><stop stop-opacity="1" stop-color="rgb(73.550415%, 32.164001%, 61.479187%)" offset="0.550781"/><stop stop-opacity="1" stop-color="rgb(72.973633%, 32.478333%, 62.763977%)" offset="0.554688"/><stop stop-opacity="1" stop-color="rgb(72.395325%, 32.791138%, 64.047241%)" offset="0.558594"/><stop stop-opacity="1" stop-color="rgb(71.818542%, 33.105469%, 65.332031%)" offset="0.5625"/><stop stop-opacity="1" stop-color="rgb(71.240234%, 33.418274%, 66.615295%)" offset="0.566406"/><stop stop-opacity="1" stop-color="rgb(70.663452%, 33.731079%, 67.89856%)" offset="0.570312"/><stop stop-opacity="1" stop-color="rgb(70.085144%, 34.043884%, 69.181824%)" offset="0.574219"/><stop stop-opacity="1" stop-color="rgb(69.508362%, 34.358215%, 70.466614%)" offset="0.578125"/><stop stop-opacity="1" stop-color="rgb(68.930054%, 34.671021%, 71.749878%)" offset="0.582031"/><stop stop-opacity="1" stop-color="rgb(68.353271%, 34.985352%, 73.034668%)" offset="0.585938"/><stop stop-opacity="1" stop-color="rgb(67.774963%, 35.298157%, 74.317932%)" offset="0.589844"/><stop stop-opacity="1" stop-color="rgb(67.198181%, 35.612488%, 75.602722%)" offset="0.59375"/><stop stop-opacity="1" stop-color="rgb(66.609192%, 36.068726%, 76.649475%)" offset="0.597656"/><stop stop-opacity="1" stop-color="rgb(66.020203%, 36.526489%, 77.697754%)" offset="0.601562"/><stop stop-opacity="1" stop-color="rgb(65.393066%, 37.486267%, 77.920532%)" offset="0.605469"/><stop stop-opacity="1" stop-color="rgb(64.76593%, 38.446045%, 78.143311%)" offset="0.609375"/><stop stop-opacity="1" stop-color="rgb(64.138794%, 39.405823%, 78.366089%)" offset="0.613281"/><stop stop-opacity="1" stop-color="rgb(63.511658%, 40.367126%, 78.588867%)" offset="0.617188"/><stop stop-opacity="1" stop-color="rgb(62.882996%, 41.326904%, 78.811646%)" offset="0.621094"/><stop stop-opacity="1" stop-color="rgb(62.255859%, 42.286682%, 79.034424%)" offset="0.625"/><stop stop-opacity="1" stop-color="rgb(61.628723%, 43.24646%, 79.255676%)" offset="0.628906"/><stop stop-opacity="1" stop-color="rgb(61.001587%, 44.206238%, 79.478455%)" offset="0.632812"/><stop stop-opacity="1" stop-color="rgb(60.374451%, 45.166016%, 79.701233%)" offset="0.636719"/><stop stop-opacity="1" stop-color="rgb(59.747314%, 46.127319%, 79.924011%)" offset="0.640625"/><stop stop-opacity="1" stop-color="rgb(59.120178%, 47.087097%, 80.14679%)" offset="0.644531"/><stop stop-opacity="1" stop-color="rgb(58.493042%, 48.046875%, 80.369568%)" offset="0.648438"/><stop stop-opacity="1" stop-color="rgb(57.865906%, 49.006653%, 80.592346%)" offset="0.652344"/><stop stop-opacity="1" stop-color="rgb(57.23877%, 49.966431%, 80.815125%)" offset="0.65625"/><stop stop-opacity="1" stop-color="rgb(56.610107%, 50.926208%, 81.036377%)" offset="0.660156"/><stop stop-opacity="1" stop-color="rgb(55.982971%, 51.887512%, 81.259155%)" offset="0.664062"/><stop stop-opacity="1" stop-color="rgb(55.355835%, 52.84729%, 81.481934%)" offset="0.667969"/><stop stop-opacity="1" stop-color="rgb(54.728699%, 53.807068%, 81.704712%)" offset="0.671875"/><stop stop-opacity="1" stop-color="rgb(54.101562%, 54.766846%, 81.92749%)" offset="0.675781"/><stop stop-opacity="1" stop-color="rgb(53.474426%, 55.726624%, 82.150269%)" offset="0.679688"/><stop stop-opacity="1" stop-color="rgb(52.84729%, 56.686401%, 82.373047%)" offset="0.683594"/><stop stop-opacity="1" stop-color="rgb(52.220154%, 57.647705%, 82.595825%)" offset="0.6875"/><stop stop-opacity="1" stop-color="rgb(51.593018%, 58.607483%, 82.817078%)" offset="0.691406"/><stop stop-opacity="1" stop-color="rgb(50.965881%, 59.567261%, 83.039856%)" offset="0.695312"/><stop stop-opacity="1" stop-color="rgb(50.337219%, 60.527039%, 83.262634%)" offset="0.699219"/><stop stop-opacity="1" stop-color="rgb(49.710083%, 61.486816%, 83.485413%)" offset="0.703125"/><stop stop-opacity="1" stop-color="rgb(49.082947%, 62.446594%, 83.708191%)" offset="0.707031"/><stop stop-opacity="1" stop-color="rgb(48.455811%, 63.407898%, 83.930969%)" offset="0.710938"/><stop stop-opacity="1" stop-color="rgb(47.828674%, 64.367676%, 84.153748%)" offset="0.714844"/><stop stop-opacity="1" stop-color="rgb(47.201538%, 65.327454%, 84.376526%)" offset="0.71875"/><stop stop-opacity="1" stop-color="rgb(46.574402%, 66.287231%, 84.597778%)" offset="0.722656"/><stop stop-opacity="1" stop-color="rgb(45.947266%, 67.248535%, 84.820557%)" offset="0.726562"/><stop stop-opacity="1" stop-color="rgb(45.320129%, 68.208313%, 85.043335%)" offset="0.730469"/><stop stop-opacity="1" stop-color="rgb(44.692993%, 69.168091%, 85.266113%)" offset="0.734375"/><stop stop-opacity="1" stop-color="rgb(44.064331%, 70.127869%, 85.488892%)" offset="0.738281"/><stop stop-opacity="1" stop-color="rgb(43.437195%, 71.087646%, 85.71167%)" offset="0.742188"/><stop stop-opacity="1" stop-color="rgb(42.810059%, 72.047424%, 85.934448%)" offset="0.746094"/><stop stop-opacity="1" stop-color="rgb(42.182922%, 73.008728%, 86.157227%)" offset="0.75"/><stop stop-opacity="1" stop-color="rgb(41.555786%, 73.968506%, 86.378479%)" offset="0.753906"/><stop stop-opacity="1" stop-color="rgb(40.92865%, 74.928284%, 86.601257%)" offset="0.757812"/><stop stop-opacity="1" stop-color="rgb(40.301514%, 75.888062%, 86.824036%)" offset="0.761719"/><stop stop-opacity="1" stop-color="rgb(39.674377%, 76.847839%, 87.046814%)" offset="0.765625"/><stop stop-opacity="1" stop-color="rgb(39.047241%, 77.807617%, 87.269592%)" offset="0.769531"/><stop stop-opacity="1" stop-color="rgb(38.420105%, 78.768921%, 87.492371%)" offset="0.773438"/><stop stop-opacity="1" stop-color="rgb(38.409424%, 78.78418%, 87.495422%)" offset="0.78125"/><stop stop-opacity="1" stop-color="rgb(38.398743%, 78.799438%, 87.5%)" offset="0.8125"/><stop stop-opacity="1" stop-color="rgb(38.398743%, 78.799438%, 87.5%)" offset="0.875"/><stop stop-opacity="1" stop-color="rgb(38.398743%, 78.799438%, 87.5%)" offset="1"/></linearGradient></defs><path stroke-linecap="butt" transform="matrix(1.162633, 0, 0, 1.162633, 77.588753, 57.217325)" fill="none" stroke-linejoin="miter" d="M 7.096901 33.001486 L 7.096901 4.143897 L 25.885076 4.143897 L 25.885076 9.482669 L 14.132387 9.482669 L 14.132387 15.698356 L 22.925065 15.698356 L 22.925065 21.037128 L 14.132387 21.037128 L 14.132387 33.001486 Z M 40.070282 21.366391 L 40.070282 4.143897 L 47.095689 4.143897 L 47.095689 21.366391 C 47.095689 23.093344 47.522388 24.420477 48.372425 25.351151 C 49.219102 26.281824 50.468959 26.74884 52.115277 26.74884 C 53.761594 26.74884 55.02153 26.281824 55.898446 25.351151 C 56.775362 24.420477 57.21214 23.093344 57.21214 21.366391 L 57.21214 4.143897 L 64.237547 4.143897 L 64.237547 21.366391 C 64.237547 23.916503 63.642857 26.117192 62.453477 27.971819 C 61.260737 29.819726 59.752172 31.167018 57.924424 32.017055 C 56.106756 32.867093 54.127815 33.290431 51.994323 33.290431 C 48.647931 33.290431 45.825673 32.252243 43.524189 30.169148 C 41.222704 28.082693 40.070282 25.149561 40.070282 21.366391 Z M 77.730628 9.482669 L 77.730628 4.143897 L 100.503563 4.143897 L 100.503563 9.482669 L 92.6046 9.482669 L 92.6046 33.001486 L 85.579193 33.001486 L 85.579193 9.482669 Z M 114.026882 21.366391 L 114.026882 4.143897 L 121.052289 4.143897 L 121.052289 21.366391 C 121.052289 23.093344 121.478988 24.420477 122.329025 25.351151 C 123.179062 26.281824 124.425559 26.74884 126.071877 26.74884 C 127.718194 26.74884 128.97813 26.281824 129.855046 25.351151 C 130.731962 24.420477 131.1721 23.093344 131.1721 21.366391 L 131.1721 4.143897 L 138.197507 4.143897 L 138.197507 21.366391 C 138.197507 23.916503 137.599457 26.117192 136.410077 27.971819 C 135.217337 29.819726 133.708772 31.167018 131.884384 32.017055 C 130.063356 32.867093 128.087775 33.290431 125.950923 33.290431 C 122.604531 33.290431 119.782273 32.252243 117.480789 30.169148 C 115.179304 28.082693 114.026882 25.149561 114.026882 21.366391 Z M 160.691575 21.77965 L 160.691575 33.001486 L 153.656089 33.001486 L 153.656089 4.143897 L 165.045916 4.143897 C 168.392308 4.143897 170.996177 5.007374 172.854164 6.734327 C 174.72223 8.46128 175.656263 10.541016 175.656263 12.976893 C 175.656263 14.650089 175.148928 16.282967 174.130899 17.875527 C 173.112871 19.461367 171.453114 20.58355 169.15163 21.245437 L 176.227434 33.001486 L 168.009287 33.001486 L 161.514734 21.77965 Z M 160.691575 9.482669 L 160.691575 16.430799 L 165.045916 16.430799 C 166.117702 16.430799 166.96102 16.114975 167.575869 15.486687 C 168.190718 14.858398 168.499823 14.03188 168.499823 13.007131 C 168.499823 11.975663 168.180639 11.132346 167.545631 10.477179 C 166.917342 9.815292 166.084104 9.482669 165.045916 9.482669 Z M 208.045033 4.053182 L 208.045033 9.405393 L 197.609398 9.405393 L 197.609398 15.607641 L 206.811975 15.607641 L 206.811975 20.956492 L 197.609398 20.956492 L 197.609398 27.659354 L 208.045033 27.659354 L 208.045033 33.001486 L 190.573912 33.001486 L 190.573912 4.053182 Z M 208.045033 4.053182 " stroke="#8c52ff" stroke-width="1.233414" stroke-opacity="1" stroke-miterlimit="4"/><g fill="#141313" fill-opacity="1"><g transform="translate(82.257451, 95.58421)"><g><path d="M 3.578125 0 L 3.578125 -33.546875 L 25.421875 -33.546875 L 25.421875 -27.34375 L 11.765625 -27.34375 L 11.765625 -20.125 L 21.984375 -20.125 L 21.984375 -13.90625 L 11.765625 -13.90625 L 11.765625 0 Z M 3.578125 0 "/></g></g></g><g fill="#141313" fill-opacity="1"><g transform="translate(120.733665, 95.58421)"><g><path d="M 3.4375 -13.53125 L 3.4375 -33.546875 L 11.609375 -33.546875 L 11.609375 -13.53125 C 11.609375 -11.519531 12.101562 -9.972656 13.09375 -8.890625 C 14.082031 -7.804688 15.53125 -7.265625 17.4375 -7.265625 C 19.351562 -7.265625 20.820312 -7.804688 21.84375 -8.890625 C 22.863281 -9.972656 23.375 -11.519531 23.375 -13.53125 L 23.375 -33.546875 L 31.546875 -33.546875 L 31.546875 -13.53125 C 31.546875 -10.5625 30.851562 -8 29.46875 -5.84375 C 28.082031 -3.695312 26.328125 -2.128906 24.203125 -1.140625 C 22.085938 -0.160156 19.785156 0.328125 17.296875 0.328125 C 13.410156 0.328125 10.128906 -0.878906 7.453125 -3.296875 C 4.773438 -5.722656 3.4375 -9.132812 3.4375 -13.53125 Z M 3.4375 -13.53125 "/></g></g></g><g fill="#141313" fill-opacity="1"><g transform="translate(166.66591, 95.58421)"><g><path d="M 1.296875 -27.34375 L 1.296875 -33.546875 L 27.765625 -33.546875 L 27.765625 -27.34375 L 18.59375 -27.34375 L 18.59375 0 L 10.421875 0 L 10.421875 -27.34375 Z M 1.296875 -27.34375 "/></g></g></g><g fill="#141313" fill-opacity="1"><g transform="translate(206.719362, 95.58421)"><g><path d="M 3.4375 -13.53125 L 3.4375 -33.546875 L 11.609375 -33.546875 L 11.609375 -13.53125 C 11.609375 -11.519531 12.101562 -9.972656 13.09375 -8.890625 C 14.082031 -7.804688 15.53125 -7.265625 17.4375 -7.265625 C 19.351562 -7.265625 20.820312 -7.804688 21.84375 -8.890625 C 22.863281 -9.972656 23.375 -11.519531 23.375 -13.53125 L 23.375 -33.546875 L 31.546875 -33.546875 L 31.546875 -13.53125 C 31.546875 -10.5625 30.851562 -8 29.46875 -5.84375 C 28.082031 -3.695312 26.328125 -2.128906 24.203125 -1.140625 C 22.085938 -0.160156 19.785156 0.328125 17.296875 0.328125 C 13.410156 0.328125 10.128906 -0.878906 7.453125 -3.296875 C 4.773438 -5.722656 3.4375 -9.132812 3.4375 -13.53125 Z M 3.4375 -13.53125 "/></g></g></g><g fill="#141313" fill-opacity="1"><g transform="translate(252.65161, 95.58421)"><g><path d="M 11.765625 -13.046875 L 11.765625 0 L 3.578125 0 L 3.578125 -33.546875 L 16.828125 -33.546875 C 20.710938 -33.546875 23.738281 -32.539062 25.90625 -30.53125 C 28.070312 -28.53125 29.15625 -26.113281 29.15625 -23.28125 C 29.15625 -21.332031 28.566406 -19.429688 27.390625 -17.578125 C 26.210938 -15.734375 24.285156 -14.429688 21.609375 -13.671875 L 29.828125 0 L 20.265625 0 L 12.71875 -13.046875 Z M 11.765625 -27.34375 L 11.765625 -19.265625 L 16.828125 -19.265625 C 18.066406 -19.265625 19.046875 -19.628906 19.765625 -20.359375 C 20.484375 -21.085938 20.84375 -22.050781 20.84375 -23.25 C 20.84375 -24.445312 20.472656 -25.425781 19.734375 -26.1875 C 19.003906 -26.957031 18.035156 -27.34375 16.828125 -27.34375 Z M 11.765625 -27.34375 "/></g></g></g><g fill="#141313" fill-opacity="1"><g transform="translate(295.572768, 95.58421)"><g><path d="M 23.90625 -33.65625 L 23.90625 -27.4375 L 11.765625 -27.4375 L 11.765625 -20.21875 L 22.46875 -20.21875 L 22.46875 -14 L 11.765625 -14 L 11.765625 -6.21875 L 23.90625 -6.21875 L 23.90625 0 L 3.578125 0 L 3.578125 -33.65625 Z M 23.90625 -33.65625 "/></g></g></g><path fill="#ffed00" d="M 50.648438 105.210938 L 348.703125 105.210938 C 350.328125 105.210938 351.882812 105.859375 353.03125 107.007812 C 354.179688 108.15625 354.824219 109.710938 354.824219 111.335938 L 354.824219 123.582031 C 354.824219 125.207031 354.179688 126.761719 353.03125 127.910156 C 351.882812 129.058594 350.328125 129.707031 348.703125 129.707031 L 50.648438 129.707031 C 47.265625 129.707031 44.527344 126.964844 44.527344 123.582031 L 44.527344 111.335938 C 44.527344 107.953125 47.265625 105.210938 50.648438 105.210938 Z M 50.648438 105.210938 " fill-opacity="0.1" fill-rule="nonzero"/><g fill="#141313" fill-opacity="1"><g transform="translate(48.19553, 123.438765)"><g><path d="M 11.609375 -12.296875 L 10.078125 -12.296875 L 10.078125 -6.65625 L 3.3125 -6.65625 L 3.3125 -12.296875 L 1.78125 -12.296875 L 1.78125 0 L 3.3125 0 L 3.3125 -5.375 L 10.078125 -5.375 L 10.078125 0 L 11.609375 0 Z M 11.609375 -12.296875 "/></g></g></g><g fill="#141313" fill-opacity="1"><g transform="translate(61.411368, 123.438765)"><g><path d="M 10.90625 -12.296875 L 9.375 -12.296875 L 9.375 -4.6875 C 9.375 -4.296875 9.375 -3.921875 9.328125 -3.59375 C 9.1875 -2.046875 8.171875 -0.96875 6.28125 -0.96875 C 4.40625 -0.96875 3.390625 -2.046875 3.234375 -3.59375 C 3.203125 -3.921875 3.203125 -4.296875 3.203125 -4.6875 L 3.203125 -12.296875 L 1.671875 -12.296875 L 1.671875 -4.546875 C 1.671875 -4.15625 1.671875 -3.796875 1.703125 -3.4375 C 1.890625 -1.390625 3.28125 0.25 6.28125 0.25 C 9.296875 0.25 10.6875 -1.390625 10.859375 -3.4375 C 10.90625 -3.796875 10.90625 -4.15625 10.90625 -4.546875 Z M 10.90625 -12.296875 "/></g></g></g><g fill="#141313" fill-opacity="1"><g transform="translate(73.772281, 123.438765)"><g><path d="M 14.03125 -12.296875 L 11.5625 -12.296875 L 7.9375 -1.296875 L 4.3125 -12.296875 L 1.78125 -12.296875 L 1.78125 0 L 3.3125 0 L 3.3125 -6.328125 C 3.3125 -7.84375 3.3125 -9.53125 3.28125 -10.859375 C 3.671875 -9.546875 4.234375 -7.84375 4.734375 -6.375 L 6.953125 0 L 8.875 0 L 11.046875 -6.34375 C 11.5625 -7.84375 12.125 -9.5625 12.546875 -10.90625 C 12.5 -9.5625 12.5 -7.859375 12.5 -6.328125 L 12.5 0 L 14.03125 0 Z M 14.03125 -12.296875 "/></g></g></g><g fill="#141313" fill-opacity="1"><g transform="translate(89.410422, 123.438765)"><g><path d="M 8.125 -4.34375 L 9.578125 0 L 11.234375 0 L 7 -12.296875 L 4.9375 -12.296875 L 0.515625 0 L 2.15625 0 L 3.59375 -4.34375 Z M 4.03125 -5.59375 L 5.9375 -11.078125 L 7.71875 -5.59375 Z M 4.03125 -5.59375 "/></g></g></g><g fill="#141313" fill-opacity="1"><g transform="translate(101.005456, 123.438765)"><g><path d="M 11.40625 0 L 11.359375 -12.296875 L 9.875 -12.296875 L 9.875 -6.140625 C 9.875 -4.703125 9.890625 -2.9375 9.921875 -1.5 L 4.125 -12.296875 L 1.78125 -12.296875 L 1.78125 0 L 3.3125 0 L 3.3125 -6.140625 C 3.3125 -7.59375 3.296875 -9.34375 3.265625 -10.796875 L 9.046875 0 Z M 11.40625 0 "/></g></g></g><g fill="#141313" fill-opacity="1"><g transform="translate(114.007564, 123.438765)"><g/></g></g><g fill="#141313" fill-opacity="1"><g transform="translate(118.068525, 123.438765)"><g><path d="M 9.875 -3.21875 C 9.765625 -4.453125 9.28125 -5.578125 8.28125 -6.03125 C 9.421875 -6.390625 10.46875 -7.328125 10.46875 -8.9375 C 10.46875 -11.015625 9.1875 -11.984375 7.40625 -12.21875 C 6.859375 -12.296875 6.4375 -12.296875 5.8125 -12.296875 L 1.78125 -12.296875 L 1.78125 0 L 3.3125 0 L 3.3125 -5.296875 L 5.625 -5.296875 C 5.90625 -5.296875 6.21875 -5.296875 6.5 -5.265625 C 7.71875 -5.1875 8.1875 -4.34375 8.34375 -3.078125 C 8.5 -1.5625 8.65625 -0.78125 9 0 L 10.6875 0 C 10.1875 -0.65625 10.015625 -1.625 9.875 -3.21875 Z M 3.3125 -6.53125 L 3.3125 -11.046875 L 5.8125 -11.046875 C 6.359375 -11.046875 6.703125 -11.03125 7.03125 -10.96875 C 8.171875 -10.796875 8.828125 -10.171875 8.828125 -8.796875 C 8.828125 -7.40625 8 -6.671875 6.859375 -6.578125 C 6.515625 -6.53125 6.21875 -6.53125 5.671875 -6.53125 Z M 3.3125 -6.53125 "/></g></g></g><g fill="#141313" fill-opacity="1"><g transform="translate(129.307348, 123.438765)"><g><path d="M 9.953125 -1.25 L 3.3125 -1.25 L 3.3125 -5.515625 L 9.25 -5.515625 L 9.25 -6.765625 L 3.3125 -6.765625 L 3.3125 -11.046875 L 9.78125 -11.046875 L 9.78125 -12.296875 L 1.78125 -12.296875 L 1.78125 0 L 9.953125 0 Z M 9.953125 -1.25 "/></g></g></g><g fill="#141313" fill-opacity="1"><g transform="translate(139.976217, 123.438765)"><g><path d="M 5.59375 -12.546875 C 3.328125 -12.546875 1.5 -11.203125 1.5 -9.078125 C 1.5 -7.046875 3.015625 -6.1875 5.1875 -5.6875 C 7.34375 -5.1875 8.1875 -4.5 8.1875 -3.015625 C 8.1875 -1.734375 7.046875 -0.96875 5.640625 -0.96875 C 4.046875 -0.96875 2.921875 -1.875 2.5625 -3.484375 L 0.921875 -3.484375 C 1.1875 -1.125 2.90625 0.25 5.609375 0.25 C 7.984375 0.25 9.828125 -1.140625 9.828125 -3.296875 C 9.828125 -5.375 8.484375 -6.484375 5.765625 -7.109375 C 3.90625 -7.53125 3.140625 -8.109375 3.140625 -9.4375 C 3.140625 -10.71875 4.171875 -11.328125 5.46875 -11.328125 C 7.015625 -11.328125 7.921875 -10.4375 8.0625 -8.890625 L 9.703125 -8.890625 C 9.46875 -10.984375 8.140625 -12.546875 5.59375 -12.546875 Z M 5.59375 -12.546875 "/></g></g></g><g fill="#141313" fill-opacity="1"><g transform="translate(150.609449, 123.438765)"><g><path d="M 6.640625 -12.546875 C 2.90625 -12.546875 0.84375 -9.90625 0.84375 -6.140625 C 0.84375 -2.40625 2.90625 0.25 6.640625 0.25 C 10.390625 0.25 12.453125 -2.40625 12.453125 -6.140625 C 12.453125 -9.90625 10.390625 -12.546875 6.640625 -12.546875 Z M 6.640625 -0.96875 C 4.0625 -0.96875 2.546875 -2.953125 2.546875 -6.140625 C 2.546875 -9.34375 4.0625 -11.328125 6.640625 -11.328125 C 9.234375 -11.328125 10.734375 -9.34375 10.734375 -6.140625 C 10.734375 -2.953125 9.234375 -0.96875 6.640625 -0.96875 Z M 6.640625 -0.96875 "/></g></g></g><g fill="#141313" fill-opacity="1"><g transform="translate(163.949976, 123.438765)"><g><path d="M 10.90625 -12.296875 L 9.375 -12.296875 L 9.375 -4.6875 C 9.375 -4.296875 9.375 -3.921875 9.328125 -3.59375 C 9.1875 -2.046875 8.171875 -0.96875 6.28125 -0.96875 C 4.40625 -0.96875 3.390625 -2.046875 3.234375 -3.59375 C 3.203125 -3.921875 3.203125 -4.296875 3.203125 -4.6875 L 3.203125 -12.296875 L 1.671875 -12.296875 L 1.671875 -4.546875 C 1.671875 -4.15625 1.671875 -3.796875 1.703125 -3.4375 C 1.890625 -1.390625 3.28125 0.25 6.28125 0.25 C 9.296875 0.25 10.6875 -1.390625 10.859375 -3.4375 C 10.90625 -3.796875 10.90625 -4.15625 10.90625 -4.546875 Z M 10.90625 -12.296875 "/></g></g></g><g fill="#141313" fill-opacity="1"><g transform="translate(176.31089, 123.438765)"><g><path d="M 9.875 -3.21875 C 9.765625 -4.453125 9.28125 -5.578125 8.28125 -6.03125 C 9.421875 -6.390625 10.46875 -7.328125 10.46875 -8.9375 C 10.46875 -11.015625 9.1875 -11.984375 7.40625 -12.21875 C 6.859375 -12.296875 6.4375 -12.296875 5.8125 -12.296875 L 1.78125 -12.296875 L 1.78125 0 L 3.3125 0 L 3.3125 -5.296875 L 5.625 -5.296875 C 5.90625 -5.296875 6.21875 -5.296875 6.5 -5.265625 C 7.71875 -5.1875 8.1875 -4.34375 8.34375 -3.078125 C 8.5 -1.5625 8.65625 -0.78125 9 0 L 10.6875 0 C 10.1875 -0.65625 10.015625 -1.625 9.875 -3.21875 Z M 3.3125 -6.53125 L 3.3125 -11.046875 L 5.8125 -11.046875 C 6.359375 -11.046875 6.703125 -11.03125 7.03125 -10.96875 C 8.171875 -10.796875 8.828125 -10.171875 8.828125 -8.796875 C 8.828125 -7.40625 8 -6.671875 6.859375 -6.578125 C 6.515625 -6.53125 6.21875 -6.53125 5.671875 -6.53125 Z M 3.3125 -6.53125 "/></g></g></g><g fill="#141313" fill-opacity="1"><g transform="translate(187.549713, 123.438765)"><g><path d="M 6.640625 -12.546875 C 3.15625 -12.546875 0.84375 -9.828125 0.84375 -6.09375 C 0.84375 -2.5 2.828125 0.25 6.40625 0.25 C 9.65625 0.25 11.3125 -1.6875 11.546875 -3.921875 L 11.5625 -4.09375 L 10.03125 -4.09375 L 10 -3.921875 C 9.640625 -2.15625 8.546875 -0.96875 6.5 -0.96875 C 4.078125 -0.96875 2.546875 -3.140625 2.546875 -6.15625 C 2.546875 -9.140625 4.09375 -11.328125 6.609375 -11.328125 C 8.65625 -11.328125 9.75 -10.140625 10.09375 -8.375 L 10.140625 -8.1875 L 11.671875 -8.1875 L 11.65625 -8.375 C 11.40625 -10.78125 9.765625 -12.546875 6.640625 -12.546875 Z M 6.640625 -12.546875 "/></g></g></g><g fill="#141313" fill-opacity="1"><g transform="translate(200.213414, 123.438765)"><g><path d="M 9.953125 -1.25 L 3.3125 -1.25 L 3.3125 -5.515625 L 9.25 -5.515625 L 9.25 -6.765625 L 3.3125 -6.765625 L 3.3125 -11.046875 L 9.78125 -11.046875 L 9.78125 -12.296875 L 1.78125 -12.296875 L 1.78125 0 L 9.953125 0 Z M 9.953125 -1.25 "/></g></g></g><g fill="#141313" fill-opacity="1"><g transform="translate(210.882283, 123.438765)"><g><path d="M 5.59375 -12.546875 C 3.328125 -12.546875 1.5 -11.203125 1.5 -9.078125 C 1.5 -7.046875 3.015625 -6.1875 5.1875 -5.6875 C 7.34375 -5.1875 8.1875 -4.5 8.1875 -3.015625 C 8.1875 -1.734375 7.046875 -0.96875 5.640625 -0.96875 C 4.046875 -0.96875 2.921875 -1.875 2.5625 -3.484375 L 0.921875 -3.484375 C 1.1875 -1.125 2.90625 0.25 5.609375 0.25 C 7.984375 0.25 9.828125 -1.140625 9.828125 -3.296875 C 9.828125 -5.375 8.484375 -6.484375 5.765625 -7.109375 C 3.90625 -7.53125 3.140625 -8.109375 3.140625 -9.4375 C 3.140625 -10.71875 4.171875 -11.328125 5.46875 -11.328125 C 7.015625 -11.328125 7.921875 -10.4375 8.0625 -8.890625 L 9.703125 -8.890625 C 9.46875 -10.984375 8.140625 -12.546875 5.59375 -12.546875 Z M 5.59375 -12.546875 "/></g></g></g><g fill="#141313" fill-opacity="1"><g transform="translate(221.515521, 123.438765)"><g/></g></g><g fill="#141313" fill-opacity="1"><g transform="translate(225.576482, 123.438765)"><g><path d="M 14.03125 -12.296875 L 11.5625 -12.296875 L 7.9375 -1.296875 L 4.3125 -12.296875 L 1.78125 -12.296875 L 1.78125 0 L 3.3125 0 L 3.3125 -6.328125 C 3.3125 -7.84375 3.3125 -9.53125 3.28125 -10.859375 C 3.671875 -9.546875 4.234375 -7.84375 4.734375 -6.375 L 6.953125 0 L 8.875 0 L 11.046875 -6.34375 C 11.5625 -7.84375 12.125 -9.5625 12.546875 -10.90625 C 12.5 -9.5625 12.5 -7.859375 12.5 -6.328125 L 12.5 0 L 14.03125 0 Z M 14.03125 -12.296875 "/></g></g></g><g fill="#141313" fill-opacity="1"><g transform="translate(241.214627, 123.438765)"><g><path d="M 8.125 -4.34375 L 9.578125 0 L 11.234375 0 L 7 -12.296875 L 4.9375 -12.296875 L 0.515625 0 L 2.15625 0 L 3.59375 -4.34375 Z M 4.03125 -5.59375 L 5.9375 -11.078125 L 7.71875 -5.59375 Z M 4.03125 -5.59375 "/></g></g></g><g fill="#141313" fill-opacity="1"><g transform="translate(252.809649, 123.438765)"><g><path d="M 11.40625 0 L 11.359375 -12.296875 L 9.875 -12.296875 L 9.875 -6.140625 C 9.875 -4.703125 9.890625 -2.9375 9.921875 -1.5 L 4.125 -12.296875 L 1.78125 -12.296875 L 1.78125 0 L 3.3125 0 L 3.3125 -6.140625 C 3.3125 -7.59375 3.296875 -9.34375 3.265625 -10.796875 L 9.046875 0 Z M 11.40625 0 "/></g></g></g><g fill="#141313" fill-opacity="1"><g transform="translate(265.811746, 123.438765)"><g><path d="M 8.125 -4.34375 L 9.578125 0 L 11.234375 0 L 7 -12.296875 L 4.9375 -12.296875 L 0.515625 0 L 2.15625 0 L 3.59375 -4.34375 Z M 4.03125 -5.59375 L 5.9375 -11.078125 L 7.71875 -5.59375 Z M 4.03125 -5.59375 "/></g></g></g><g fill="#141313" fill-opacity="1"><g transform="translate(277.406768, 123.438765)"><g><path d="M 7.109375 -5.9375 L 7.109375 -4.6875 L 9.96875 -4.6875 C 9.96875 -2.5 8.5 -0.96875 6.5 -0.96875 C 4.078125 -0.96875 2.546875 -3.140625 2.546875 -6.15625 C 2.546875 -9.140625 4.09375 -11.328125 6.609375 -11.328125 C 8.65625 -11.328125 9.75 -10.140625 10.09375 -8.375 L 10.140625 -8.1875 L 11.671875 -8.1875 L 11.65625 -8.375 C 11.40625 -10.78125 9.765625 -12.546875 6.640625 -12.546875 C 3.15625 -12.546875 0.84375 -9.828125 0.84375 -6.09375 C 0.84375 -2.5 2.828125 0.25 6.40625 0.25 C 7.8125 0.25 8.90625 -0.21875 9.59375 -1 L 10.15625 -2.140625 L 10.15625 0 L 11.5 0 L 11.5 -5.9375 Z M 7.109375 -5.9375 "/></g></g></g><g fill="#141313" fill-opacity="1"><g transform="translate(290.266385, 123.438765)"><g><path d="M 9.953125 -1.25 L 3.3125 -1.25 L 3.3125 -5.515625 L 9.25 -5.515625 L 9.25 -6.765625 L 3.3125 -6.765625 L 3.3125 -11.046875 L 9.78125 -11.046875 L 9.78125 -12.296875 L 1.78125 -12.296875 L 1.78125 0 L 9.953125 0 Z M 9.953125 -1.25 "/></g></g></g><g fill="#141313" fill-opacity="1"><g transform="translate(300.935243, 123.438765)"><g><path d="M 14.03125 -12.296875 L 11.5625 -12.296875 L 7.9375 -1.296875 L 4.3125 -12.296875 L 1.78125 -12.296875 L 1.78125 0 L 3.3125 0 L 3.3125 -6.328125 C 3.3125 -7.84375 3.3125 -9.53125 3.28125 -10.859375 C 3.671875 -9.546875 4.234375 -7.84375 4.734375 -6.375 L 6.953125 0 L 8.875 0 L 11.046875 -6.34375 C 11.5625 -7.84375 12.125 -9.5625 12.546875 -10.90625 C 12.5 -9.5625 12.5 -7.859375 12.5 -6.328125 L 12.5 0 L 14.03125 0 Z M 14.03125 -12.296875 "/></g></g></g><g fill="#141313" fill-opacity="1"><g transform="translate(316.573376, 123.438765)"><g><path d="M 9.953125 -1.25 L 3.3125 -1.25 L 3.3125 -5.515625 L 9.25 -5.515625 L 9.25 -6.765625 L 3.3125 -6.765625 L 3.3125 -11.046875 L 9.78125 -11.046875 L 9.78125 -12.296875 L 1.78125 -12.296875 L 1.78125 0 L 9.953125 0 Z M 9.953125 -1.25 "/></g></g></g><g fill="#141313" fill-opacity="1"><g transform="translate(327.242234, 123.438765)"><g><path d="M 11.40625 0 L 11.359375 -12.296875 L 9.875 -12.296875 L 9.875 -6.140625 C 9.875 -4.703125 9.890625 -2.9375 9.921875 -1.5 L 4.125 -12.296875 L 1.78125 -12.296875 L 1.78125 0 L 3.3125 0 L 3.3125 -6.140625 C 3.3125 -7.59375 3.296875 -9.34375 3.265625 -10.796875 L 9.046875 0 Z M 11.40625 0 "/></g></g></g><g fill="#141313" fill-opacity="1"><g transform="translate(340.244331, 123.438765)"><g><path d="M 10.90625 -11.046875 L 10.90625 -12.296875 L 0.609375 -12.296875 L 0.609375 -11.046875 L 4.984375 -11.046875 L 4.984375 0 L 6.515625 0 L 6.515625 -11.046875 Z M 10.90625 -11.046875 "/></g></g></g><g clip-path="url(#53134ee254)"><g clip-path="url(#55c5b8daa2)"><path fill="url(#7e1b7a5cac)" d="M 0.738281 0 L 0.738281 147.976562 L 87.972656 147.976562 L 87.972656 0 Z M 0.738281 0 " fill-rule="nonzero"/></g></g></svg>