<svg xmlns="http://www.w3.org/2000/svg" xmlns:xlink="http://www.w3.org/1999/xlink" width="489" zoomAndPan="magnify" viewBox="0 0 366.75 148.499996" height="198" preserveAspectRatio="xMidYMid meet" version="1.0"><defs><g/><clipPath id="5aac3d33a4"><path d="M 6 0 L 83 0 L 83 148 L 6 148 Z M 6 0 " clip-rule="nonzero"/></clipPath><clipPath id="6c65ee96cc"><path d="M 6.894531 85.917969 C 0.589844 29.3125 61.242188 42.957031 82.027344 20.445312 C 87.824219 71.597656 28.535156 50.453125 6.894531 85.917969 Z M 75.894531 62.726562 C 68.058594 76.03125 18.570312 73.535156 12.515625 97.847656 C 1.273438 144.566406 52.378906 147.976562 52.378906 147.976562 C 52.378906 147.976562 23.082031 138.765625 29.214844 111.828125 C 32.621094 98.53125 78.285156 105.351562 75.894531 62.726562 Z M 35.792969 -0.0117188 C 28.160156 -0.0117188 21.96875 6.183594 21.96875 13.824219 C 21.96875 21.464844 28.160156 27.65625 35.792969 27.65625 C 43.429688 27.65625 49.617188 21.464844 49.617188 13.824219 C 49.617188 6.183594 43.429688 -0.0117188 35.792969 -0.0117188 Z M 35.792969 -0.0117188 " clip-rule="nonzero"/></clipPath><linearGradient x1="64.987441" gradientTransform="matrix(0.353771, 0, 0, 0.353986, -44.012056, -14.513433)" y1="353.228814" x2="430.937292" gradientUnits="userSpaceOnUse" y2="141.948196" id="7c23502ad8"><stop stop-opacity="1" stop-color="rgb(97.999573%, 72.499084%, 8.198547%)" offset="0"/><stop stop-opacity="1" stop-color="rgb(97.999573%, 72.499084%, 8.198547%)" offset="0.125"/><stop stop-opacity="1" stop-color="rgb(97.999573%, 72.499084%, 8.198547%)" offset="0.1875"/><stop stop-opacity="1" stop-color="rgb(97.999573%, 72.499084%, 8.198547%)" offset="0.21875"/><stop stop-opacity="1" stop-color="rgb(97.999573%, 72.499084%, 8.198547%)" offset="0.234375"/><stop stop-opacity="1" stop-color="rgb(97.999573%, 72.499084%, 8.198547%)" offset="0.242188"/><stop stop-opacity="1" stop-color="rgb(97.903442%, 71.821594%, 8.395386%)" offset="0.246094"/><stop stop-opacity="1" stop-color="rgb(97.808838%, 71.144104%, 8.59375%)" offset="0.25"/><stop stop-opacity="1" stop-color="rgb(97.662354%, 70.108032%, 8.894348%)" offset="0.253906"/><stop stop-opacity="1" stop-color="rgb(97.517395%, 69.073486%, 9.196472%)" offset="0.257812"/><stop stop-opacity="1" stop-color="rgb(97.372437%, 68.03894%, 9.49707%)" offset="0.261719"/><stop stop-opacity="1" stop-color="rgb(97.227478%, 67.004395%, 9.799194%)" offset="0.265625"/><stop stop-opacity="1" stop-color="rgb(97.080994%, 65.968323%, 10.099792%)" offset="0.269531"/><stop stop-opacity="1" stop-color="rgb(96.936035%, 64.933777%, 10.401917%)" offset="0.273438"/><stop stop-opacity="1" stop-color="rgb(96.789551%, 63.897705%, 10.702515%)" offset="0.277344"/><stop stop-opacity="1" stop-color="rgb(96.644592%, 62.863159%, 11.004639%)" offset="0.28125"/><stop stop-opacity="1" stop-color="rgb(96.498108%, 61.827087%, 11.305237%)" offset="0.285156"/><stop stop-opacity="1" stop-color="rgb(96.353149%, 60.792542%, 11.607361%)" offset="0.289062"/><stop stop-opacity="1" stop-color="rgb(96.208191%, 59.75647%, 11.907959%)" offset="0.292969"/><stop stop-opacity="1" stop-color="rgb(96.063232%, 58.721924%, 12.210083%)" offset="0.296875"/><stop stop-opacity="1" stop-color="rgb(95.916748%, 57.685852%, 12.512207%)" offset="0.300781"/><stop stop-opacity="1" stop-color="rgb(95.77179%, 56.651306%, 12.814331%)" offset="0.304687"/><stop stop-opacity="1" stop-color="rgb(95.625305%, 55.615234%, 13.114929%)" offset="0.308594"/><stop stop-opacity="1" stop-color="rgb(95.480347%, 54.580688%, 13.417053%)" offset="0.3125"/><stop stop-opacity="1" stop-color="rgb(95.333862%, 53.544617%, 13.717651%)" offset="0.316406"/><stop stop-opacity="1" stop-color="rgb(95.188904%, 52.510071%, 14.019775%)" offset="0.320312"/><stop stop-opacity="1" stop-color="rgb(95.043945%, 51.473999%, 14.320374%)" offset="0.324219"/><stop stop-opacity="1" stop-color="rgb(94.898987%, 50.439453%, 14.622498%)" offset="0.328125"/><stop stop-opacity="1" stop-color="rgb(94.752502%, 49.403381%, 14.923096%)" offset="0.332031"/><stop stop-opacity="1" stop-color="rgb(94.607544%, 48.368835%, 15.22522%)" offset="0.335937"/><stop stop-opacity="1" stop-color="rgb(94.46106%, 47.332764%, 15.525818%)" offset="0.339844"/><stop stop-opacity="1" stop-color="rgb(94.316101%, 46.298218%, 15.827942%)" offset="0.34375"/><stop stop-opacity="1" stop-color="rgb(94.169617%, 45.262146%, 16.12854%)" offset="0.347656"/><stop stop-opacity="1" stop-color="rgb(94.024658%, 44.2276%, 16.430664%)" offset="0.351562"/><stop stop-opacity="1" stop-color="rgb(93.8797%, 43.191528%, 16.731262%)" offset="0.355469"/><stop stop-opacity="1" stop-color="rgb(93.734741%, 42.156982%, 17.033386%)" offset="0.359375"/><stop stop-opacity="1" stop-color="rgb(93.588257%, 41.120911%, 17.333984%)" offset="0.363281"/><stop stop-opacity="1" stop-color="rgb(93.443298%, 40.086365%, 17.636108%)" offset="0.367187"/><stop stop-opacity="1" stop-color="rgb(93.296814%, 39.051819%, 17.936707%)" offset="0.371094"/><stop stop-opacity="1" stop-color="rgb(93.151855%, 38.017273%, 18.238831%)" offset="0.375"/><stop stop-opacity="1" stop-color="rgb(93.006897%, 36.981201%, 18.539429%)" offset="0.378906"/><stop stop-opacity="1" stop-color="rgb(92.861938%, 35.946655%, 18.841553%)" offset="0.382812"/><stop stop-opacity="1" stop-color="rgb(92.715454%, 34.910583%, 19.143677%)" offset="0.386719"/><stop stop-opacity="1" stop-color="rgb(92.570496%, 33.876038%, 19.445801%)" offset="0.390625"/><stop stop-opacity="1" stop-color="rgb(92.424011%, 32.839966%, 19.746399%)" offset="0.394531"/><stop stop-opacity="1" stop-color="rgb(92.279053%, 31.80542%, 20.048523%)" offset="0.398437"/><stop stop-opacity="1" stop-color="rgb(92.132568%, 30.769348%, 20.349121%)" offset="0.402344"/><stop stop-opacity="1" stop-color="rgb(91.98761%, 29.734802%, 20.651245%)" offset="0.40625"/><stop stop-opacity="1" stop-color="rgb(91.842651%, 28.69873%, 20.951843%)" offset="0.410156"/><stop stop-opacity="1" stop-color="rgb(91.697693%, 27.664185%, 21.253967%)" offset="0.414062"/><stop stop-opacity="1" stop-color="rgb(91.551208%, 26.628113%, 21.554565%)" offset="0.417969"/><stop stop-opacity="1" stop-color="rgb(91.40625%, 25.593567%, 21.856689%)" offset="0.421875"/><stop stop-opacity="1" stop-color="rgb(91.259766%, 24.557495%, 22.157288%)" offset="0.425781"/><stop stop-opacity="1" stop-color="rgb(91.114807%, 23.522949%, 22.459412%)" offset="0.429687"/><stop stop-opacity="1" stop-color="rgb(90.708923%, 23.300171%, 23.352051%)" offset="0.433594"/><stop stop-opacity="1" stop-color="rgb(90.30304%, 23.077393%, 24.24469%)" offset="0.4375"/><stop stop-opacity="1" stop-color="rgb(89.724731%, 23.390198%, 25.527954%)" offset="0.441406"/><stop stop-opacity="1" stop-color="rgb(89.147949%, 23.703003%, 26.812744%)" offset="0.445312"/><stop stop-opacity="1" stop-color="rgb(88.569641%, 24.015808%, 28.096008%)" offset="0.449219"/><stop stop-opacity="1" stop-color="rgb(87.992859%, 24.330139%, 29.380798%)" offset="0.453125"/><stop stop-opacity="1" stop-color="rgb(87.414551%, 24.642944%, 30.664062%)" offset="0.457031"/><stop stop-opacity="1" stop-color="rgb(86.837769%, 24.957275%, 31.948853%)" offset="0.460938"/><stop stop-opacity="1" stop-color="rgb(86.25946%, 25.270081%, 33.232117%)" offset="0.464844"/><stop stop-opacity="1" stop-color="rgb(85.682678%, 25.584412%, 34.516907%)" offset="0.46875"/><stop stop-opacity="1" stop-color="rgb(85.10437%, 25.897217%, 35.800171%)" offset="0.472656"/><stop stop-opacity="1" stop-color="rgb(84.527588%, 26.210022%, 37.084961%)" offset="0.476562"/><stop stop-opacity="1" stop-color="rgb(83.94928%, 26.522827%, 38.368225%)" offset="0.480469"/><stop stop-opacity="1" stop-color="rgb(83.372498%, 26.837158%, 39.653015%)" offset="0.484375"/><stop stop-opacity="1" stop-color="rgb(82.794189%, 27.149963%, 40.936279%)" offset="0.488281"/><stop stop-opacity="1" stop-color="rgb(82.215881%, 27.464294%, 42.221069%)" offset="0.492187"/><stop stop-opacity="1" stop-color="rgb(81.637573%, 27.7771%, 43.504333%)" offset="0.496094"/><stop stop-opacity="1" stop-color="rgb(81.060791%, 28.091431%, 44.787598%)" offset="0.5"/><stop stop-opacity="1" stop-color="rgb(80.482483%, 28.404236%, 46.070862%)" offset="0.503906"/><stop stop-opacity="1" stop-color="rgb(79.905701%, 28.717041%, 47.355652%)" offset="0.507812"/><stop stop-opacity="1" stop-color="rgb(79.327393%, 29.029846%, 48.638916%)" offset="0.511719"/><stop stop-opacity="1" stop-color="rgb(78.75061%, 29.344177%, 49.923706%)" offset="0.515625"/><stop stop-opacity="1" stop-color="rgb(78.172302%, 29.656982%, 51.20697%)" offset="0.519531"/><stop stop-opacity="1" stop-color="rgb(77.59552%, 29.971313%, 52.49176%)" offset="0.523437"/><stop stop-opacity="1" stop-color="rgb(77.017212%, 30.284119%, 53.775024%)" offset="0.527344"/><stop stop-opacity="1" stop-color="rgb(76.44043%, 30.59845%, 55.059814%)" offset="0.53125"/><stop stop-opacity="1" stop-color="rgb(75.862122%, 30.911255%, 56.343079%)" offset="0.535156"/><stop stop-opacity="1" stop-color="rgb(75.285339%, 31.22406%, 57.627869%)" offset="0.539062"/><stop stop-opacity="1" stop-color="rgb(74.707031%, 31.536865%, 58.911133%)" offset="0.542969"/><stop stop-opacity="1" stop-color="rgb(74.128723%, 31.851196%, 60.195923%)" offset="0.546875"/><stop stop-opacity="1" stop-color="rgb(73.550415%, 32.164001%, 61.479187%)" offset="0.550781"/><stop stop-opacity="1" stop-color="rgb(72.973633%, 32.478333%, 62.763977%)" offset="0.554687"/><stop stop-opacity="1" stop-color="rgb(72.395325%, 32.791138%, 64.047241%)" offset="0.558594"/><stop stop-opacity="1" stop-color="rgb(71.818542%, 33.105469%, 65.332031%)" offset="0.5625"/><stop stop-opacity="1" stop-color="rgb(71.240234%, 33.418274%, 66.615295%)" offset="0.566406"/><stop stop-opacity="1" stop-color="rgb(70.663452%, 33.731079%, 67.89856%)" offset="0.570312"/><stop stop-opacity="1" stop-color="rgb(70.085144%, 34.043884%, 69.181824%)" offset="0.574219"/><stop stop-opacity="1" stop-color="rgb(69.508362%, 34.358215%, 70.466614%)" offset="0.578125"/><stop stop-opacity="1" stop-color="rgb(68.930054%, 34.671021%, 71.749878%)" offset="0.582031"/><stop stop-opacity="1" stop-color="rgb(68.353271%, 34.985352%, 73.034668%)" offset="0.585937"/><stop stop-opacity="1" stop-color="rgb(67.774963%, 35.298157%, 74.317932%)" offset="0.589844"/><stop stop-opacity="1" stop-color="rgb(67.198181%, 35.612488%, 75.602722%)" offset="0.59375"/><stop stop-opacity="1" stop-color="rgb(66.609192%, 36.068726%, 76.649475%)" offset="0.597656"/><stop stop-opacity="1" stop-color="rgb(66.020203%, 36.526489%, 77.697754%)" offset="0.601562"/><stop stop-opacity="1" stop-color="rgb(65.393066%, 37.486267%, 77.920532%)" offset="0.605469"/><stop stop-opacity="1" stop-color="rgb(64.76593%, 38.446045%, 78.143311%)" offset="0.609375"/><stop stop-opacity="1" stop-color="rgb(64.138794%, 39.405823%, 78.366089%)" offset="0.613281"/><stop stop-opacity="1" stop-color="rgb(63.511658%, 40.367126%, 78.588867%)" offset="0.617188"/><stop stop-opacity="1" stop-color="rgb(62.882996%, 41.326904%, 78.811646%)" offset="0.621094"/><stop stop-opacity="1" stop-color="rgb(62.255859%, 42.286682%, 79.034424%)" offset="0.625"/><stop stop-opacity="1" stop-color="rgb(61.628723%, 43.24646%, 79.255676%)" offset="0.628906"/><stop stop-opacity="1" stop-color="rgb(61.001587%, 44.206238%, 79.478455%)" offset="0.632812"/><stop stop-opacity="1" stop-color="rgb(60.374451%, 45.166016%, 79.701233%)" offset="0.636719"/><stop stop-opacity="1" stop-color="rgb(59.747314%, 46.127319%, 79.924011%)" offset="0.640625"/><stop stop-opacity="1" stop-color="rgb(59.120178%, 47.087097%, 80.14679%)" offset="0.644531"/><stop stop-opacity="1" stop-color="rgb(58.493042%, 48.046875%, 80.369568%)" offset="0.648438"/><stop stop-opacity="1" stop-color="rgb(57.865906%, 49.006653%, 80.592346%)" offset="0.652344"/><stop stop-opacity="1" stop-color="rgb(57.23877%, 49.966431%, 80.815125%)" offset="0.65625"/><stop stop-opacity="1" stop-color="rgb(56.610107%, 50.926208%, 81.036377%)" offset="0.660156"/><stop stop-opacity="1" stop-color="rgb(55.982971%, 51.887512%, 81.259155%)" offset="0.664062"/><stop stop-opacity="1" stop-color="rgb(55.355835%, 52.84729%, 81.481934%)" offset="0.667969"/><stop stop-opacity="1" stop-color="rgb(54.728699%, 53.807068%, 81.704712%)" offset="0.671875"/><stop stop-opacity="1" stop-color="rgb(54.101562%, 54.766846%, 81.92749%)" offset="0.675781"/><stop stop-opacity="1" stop-color="rgb(53.474426%, 55.726624%, 82.150269%)" offset="0.679687"/><stop stop-opacity="1" stop-color="rgb(52.84729%, 56.686401%, 82.373047%)" offset="0.683594"/><stop stop-opacity="1" stop-color="rgb(52.220154%, 57.647705%, 82.595825%)" offset="0.6875"/><stop stop-opacity="1" stop-color="rgb(51.593018%, 58.607483%, 82.817078%)" offset="0.691406"/><stop stop-opacity="1" stop-color="rgb(50.965881%, 59.567261%, 83.039856%)" offset="0.695312"/><stop stop-opacity="1" stop-color="rgb(50.337219%, 60.527039%, 83.262634%)" offset="0.699219"/><stop stop-opacity="1" stop-color="rgb(49.710083%, 61.486816%, 83.485413%)" offset="0.703125"/><stop stop-opacity="1" stop-color="rgb(49.082947%, 62.446594%, 83.708191%)" offset="0.707031"/><stop stop-opacity="1" stop-color="rgb(48.455811%, 63.407898%, 83.930969%)" offset="0.710937"/><stop stop-opacity="1" stop-color="rgb(47.828674%, 64.367676%, 84.153748%)" offset="0.714844"/><stop stop-opacity="1" stop-color="rgb(47.201538%, 65.327454%, 84.376526%)" offset="0.71875"/><stop stop-opacity="1" stop-color="rgb(46.574402%, 66.287231%, 84.597778%)" offset="0.722656"/><stop stop-opacity="1" stop-color="rgb(45.947266%, 67.248535%, 84.820557%)" offset="0.726562"/><stop stop-opacity="1" stop-color="rgb(45.320129%, 68.208313%, 85.043335%)" offset="0.730469"/><stop stop-opacity="1" stop-color="rgb(44.692993%, 69.168091%, 85.266113%)" offset="0.734375"/><stop stop-opacity="1" stop-color="rgb(44.064331%, 70.127869%, 85.488892%)" offset="0.738281"/><stop stop-opacity="1" stop-color="rgb(43.437195%, 71.087646%, 85.71167%)" offset="0.742188"/><stop stop-opacity="1" stop-color="rgb(42.810059%, 72.047424%, 85.934448%)" offset="0.746094"/><stop stop-opacity="1" stop-color="rgb(42.182922%, 73.008728%, 86.157227%)" offset="0.75"/><stop stop-opacity="1" stop-color="rgb(41.555786%, 73.968506%, 86.378479%)" offset="0.753906"/><stop stop-opacity="1" stop-color="rgb(40.92865%, 74.928284%, 86.601257%)" offset="0.757812"/><stop stop-opacity="1" stop-color="rgb(40.301514%, 75.888062%, 86.824036%)" offset="0.761719"/><stop stop-opacity="1" stop-color="rgb(39.674377%, 76.847839%, 87.046814%)" offset="0.765625"/><stop stop-opacity="1" stop-color="rgb(39.047241%, 77.807617%, 87.269592%)" offset="0.769531"/><stop stop-opacity="1" stop-color="rgb(38.420105%, 78.768921%, 87.492371%)" offset="0.773438"/><stop stop-opacity="1" stop-color="rgb(38.409424%, 78.78418%, 87.495422%)" offset="0.78125"/><stop stop-opacity="1" stop-color="rgb(38.398743%, 78.799438%, 87.5%)" offset="0.8125"/><stop stop-opacity="1" stop-color="rgb(38.398743%, 78.799438%, 87.5%)" offset="0.875"/><stop stop-opacity="1" stop-color="rgb(38.398743%, 78.799438%, 87.5%)" offset="1"/></linearGradient></defs><path stroke-linecap="butt" transform="matrix(1.162633, 0, 0, 1.162633, 77.44027, 57.21733)" fill="none" stroke-linejoin="miter" d="M 7.09694 33.001482 L 7.09694 4.143893 L 25.885115 4.143893 L 25.885115 9.482665 L 14.132426 9.482665 L 14.132426 15.698352 L 22.925104 15.698352 L 22.925104 21.037123 L 14.132426 21.037123 L 14.132426 33.001482 Z M 40.070321 21.366387 L 40.070321 4.143893 L 47.095728 4.143893 L 47.095728 21.366387 C 47.095728 23.09334 47.522427 24.420473 48.369104 25.351146 C 49.219141 26.28182 50.468998 26.748836 52.115316 26.748836 C 53.761633 26.748836 55.021569 26.28182 55.898485 25.351146 C 56.775401 24.420473 57.212179 23.09334 57.212179 21.366387 L 57.212179 4.143893 L 64.237586 4.143893 L 64.237586 21.366387 C 64.237586 23.916499 63.642896 26.117188 62.453516 27.971815 C 61.260776 29.819722 59.752212 31.167014 57.924463 32.017051 C 56.106795 32.867088 54.127854 33.290427 51.994362 33.290427 C 48.64797 33.290427 45.825712 32.252239 43.524228 30.169144 C 41.222744 28.082689 40.070321 25.149557 40.070321 21.366387 Z M 77.730667 9.482665 L 77.730667 4.143893 L 100.503602 4.143893 L 100.503602 9.482665 L 92.604639 9.482665 L 92.604639 33.001482 L 85.579232 33.001482 L 85.579232 9.482665 Z M 114.026922 21.366387 L 114.026922 4.143893 L 121.052328 4.143893 L 121.052328 21.366387 C 121.052328 23.09334 121.479027 24.420473 122.329064 25.351146 C 123.179101 26.28182 124.425599 26.748836 126.071916 26.748836 C 127.718233 26.748836 128.97817 26.28182 129.855085 25.351146 C 130.732001 24.420473 131.172139 23.09334 131.172139 21.366387 L 131.172139 4.143893 L 138.197546 4.143893 L 138.197546 21.366387 C 138.197546 23.916499 137.599496 26.117188 136.410116 27.971815 C 135.217376 29.819722 133.708812 31.167014 131.884423 32.017051 C 130.063395 32.867088 128.087814 33.290427 125.950962 33.290427 C 122.60457 33.290427 119.782312 32.252239 117.480828 30.169144 C 115.179344 28.082689 114.026922 25.149557 114.026922 21.366387 Z M 160.691614 21.779646 L 160.691614 33.001482 L 153.656128 33.001482 L 153.656128 4.143893 L 165.045955 4.143893 C 168.392347 4.143893 170.996216 5.00737 172.854203 6.734323 C 174.722269 8.461276 175.656302 10.541011 175.656302 12.976889 C 175.656302 14.650085 175.148967 16.282963 174.130938 17.875522 C 173.11291 19.461363 171.453153 20.583546 169.151669 21.248793 L 176.227473 33.001482 L 168.009326 33.001482 L 161.514773 21.779646 Z M 160.691614 9.482665 L 160.691614 16.430795 L 165.045955 16.430795 C 166.117741 16.430795 166.961059 16.114971 167.575908 15.486683 C 168.190757 14.858394 168.499862 14.031876 168.499862 13.007127 C 168.499862 11.975659 168.180678 11.132342 167.54567 10.477175 C 166.917381 9.815288 166.084143 9.482665 165.045955 9.482665 Z M 208.045073 4.053178 L 208.045073 9.405389 L 197.609437 9.405389 L 197.609437 15.607637 L 206.812015 15.607637 L 206.812015 20.956488 L 197.609437 20.956488 L 197.609437 27.65935 L 208.045073 27.65935 L 208.045073 33.001482 L 190.573951 33.001482 L 190.573951 4.053178 Z M 208.045073 4.053178 " stroke="#8c52ff" stroke-width="1.233414" stroke-opacity="1" stroke-miterlimit="4"/><g fill="#141313" fill-opacity="1"><g transform="translate(82.108968, 95.584215)"><g><path d="M 3.578125 0 L 3.578125 -33.546875 L 25.421875 -33.546875 L 25.421875 -27.34375 L 11.765625 -27.34375 L 11.765625 -20.125 L 21.984375 -20.125 L 21.984375 -13.90625 L 11.765625 -13.90625 L 11.765625 0 Z M 3.578125 0 "/></g></g></g><g fill="#141313" fill-opacity="1"><g transform="translate(120.585183, 95.584215)"><g><path d="M 3.4375 -13.53125 L 3.4375 -33.546875 L 11.609375 -33.546875 L 11.609375 -13.53125 C 11.609375 -11.519531 12.101562 -9.972656 13.09375 -8.890625 C 14.082031 -7.804688 15.53125 -7.265625 17.4375 -7.265625 C 19.351562 -7.265625 20.820312 -7.804688 21.84375 -8.890625 C 22.863281 -9.972656 23.375 -11.519531 23.375 -13.53125 L 23.375 -33.546875 L 31.546875 -33.546875 L 31.546875 -13.53125 C 31.546875 -10.5625 30.851562 -8 29.46875 -5.84375 C 28.082031 -3.695312 26.328125 -2.128906 24.203125 -1.140625 C 22.085938 -0.160156 19.785156 0.328125 17.296875 0.328125 C 13.410156 0.328125 10.128906 -0.878906 7.453125 -3.296875 C 4.773438 -5.722656 3.4375 -9.132812 3.4375 -13.53125 Z M 3.4375 -13.53125 "/></g></g></g><g fill="#141313" fill-opacity="1"><g transform="translate(166.517427, 95.584215)"><g><path d="M 1.296875 -27.34375 L 1.296875 -33.546875 L 27.765625 -33.546875 L 27.765625 -27.34375 L 18.59375 -27.34375 L 18.59375 0 L 10.421875 0 L 10.421875 -27.34375 Z M 1.296875 -27.34375 "/></g></g></g><g fill="#141313" fill-opacity="1"><g transform="translate(206.570879, 95.584215)"><g><path d="M 3.4375 -13.53125 L 3.4375 -33.546875 L 11.609375 -33.546875 L 11.609375 -13.53125 C 11.609375 -11.519531 12.101562 -9.972656 13.09375 -8.890625 C 14.082031 -7.804688 15.53125 -7.265625 17.4375 -7.265625 C 19.351562 -7.265625 20.820312 -7.804688 21.84375 -8.890625 C 22.863281 -9.972656 23.375 -11.519531 23.375 -13.53125 L 23.375 -33.546875 L 31.546875 -33.546875 L 31.546875 -13.53125 C 31.546875 -10.5625 30.851562 -8 29.46875 -5.84375 C 28.082031 -3.695312 26.328125 -2.128906 24.203125 -1.140625 C 22.085938 -0.160156 19.785156 0.328125 17.296875 0.328125 C 13.410156 0.328125 10.128906 -0.878906 7.453125 -3.296875 C 4.773438 -5.722656 3.4375 -9.132812 3.4375 -13.53125 Z M 3.4375 -13.53125 "/></g></g></g><g fill="#141313" fill-opacity="1"><g transform="translate(252.503127, 95.584215)"><g><path d="M 11.765625 -13.046875 L 11.765625 0 L 3.578125 0 L 3.578125 -33.546875 L 16.828125 -33.546875 C 20.710938 -33.546875 23.738281 -32.539062 25.90625 -30.53125 C 28.070312 -28.53125 29.15625 -26.113281 29.15625 -23.28125 C 29.15625 -21.332031 28.566406 -19.429688 27.390625 -17.578125 C 26.210938 -15.734375 24.285156 -14.429688 21.609375 -13.671875 L 29.828125 0 L 20.265625 0 L 12.71875 -13.046875 Z M 11.765625 -27.34375 L 11.765625 -19.265625 L 16.828125 -19.265625 C 18.066406 -19.265625 19.046875 -19.628906 19.765625 -20.359375 C 20.484375 -21.085938 20.84375 -22.050781 20.84375 -23.25 C 20.84375 -24.445312 20.472656 -25.425781 19.734375 -26.1875 C 19.003906 -26.957031 18.035156 -27.34375 16.828125 -27.34375 Z M 11.765625 -27.34375 "/></g></g></g><g fill="#141313" fill-opacity="1"><g transform="translate(295.424285, 95.584215)"><g><path d="M 23.90625 -33.65625 L 23.90625 -27.4375 L 11.765625 -27.4375 L 11.765625 -20.21875 L 22.46875 -20.21875 L 22.46875 -14 L 11.765625 -14 L 11.765625 -6.21875 L 23.90625 -6.21875 L 23.90625 0 L 3.578125 0 L 3.578125 -33.65625 Z M 23.90625 -33.65625 "/></g></g></g><path fill="#ffed00" d="M 29.90625 107.804688 L 339.800781 107.804688 C 341.425781 107.804688 342.984375 108.449219 344.132812 109.597656 C 345.28125 110.746094 345.925781 112.304688 345.925781 113.925781 L 345.925781 126.171875 C 345.925781 127.796875 345.28125 129.355469 344.132812 130.503906 C 342.984375 131.652344 341.425781 132.296875 339.800781 132.296875 L 29.90625 132.296875 C 26.523438 132.296875 23.78125 129.554688 23.78125 126.171875 L 23.78125 113.925781 C 23.78125 110.546875 26.523438 107.804688 29.90625 107.804688 Z M 29.90625 107.804688 " fill-opacity="0.1" fill-rule="nonzero"/><g fill="#141313" fill-opacity="1"><g transform="translate(27.451462, 126.030065)"><g><path d="M 12.234375 -12.296875 L 12.234375 0 L 9.796875 0 L 9.796875 -5.046875 L 4.046875 -5.046875 L 4.046875 0 L 1.578125 0 L 1.578125 -12.296875 L 4.046875 -12.296875 L 4.046875 -7 L 9.796875 -7 L 9.796875 -12.296875 Z M 12.234375 -12.296875 "/></g></g></g><g fill="#141313" fill-opacity="1"><g transform="translate(41.059154, 126.030065)"><g><path d="M 11.5625 -12.296875 L 11.5625 -5 C 11.5625 -4.414062 11.550781 -3.9375 11.53125 -3.5625 C 11.445312 -2.445312 10.988281 -1.53125 10.15625 -0.8125 C 9.332031 -0.101562 8.113281 0.25 6.5 0.25 C 4.875 0.25 3.644531 -0.101562 2.8125 -0.8125 C 1.988281 -1.53125 1.535156 -2.445312 1.453125 -3.5625 C 1.429688 -3.9375 1.421875 -4.414062 1.421875 -5 L 1.421875 -12.296875 L 3.859375 -12.296875 L 3.859375 -4.75 C 3.859375 -4.332031 3.875 -4.035156 3.90625 -3.859375 C 3.957031 -3.140625 4.203125 -2.578125 4.640625 -2.171875 C 5.078125 -1.773438 5.695312 -1.578125 6.5 -1.578125 C 7.289062 -1.578125 7.90625 -1.773438 8.34375 -2.171875 C 8.78125 -2.578125 9.023438 -3.140625 9.078125 -3.859375 C 9.109375 -4.035156 9.125 -4.332031 9.125 -4.75 L 9.125 -12.296875 Z M 11.5625 -12.296875 "/></g></g></g><g fill="#141313" fill-opacity="1"><g transform="translate(53.77629, 126.030065)"><g><path d="M 14.84375 -12.296875 L 14.84375 0 L 12.375 0 L 12.375 -5.6875 C 12.375 -7.632812 12.390625 -9.035156 12.421875 -9.890625 C 12.085938 -8.460938 11.707031 -7.066406 11.28125 -5.703125 L 9.546875 0 L 6.875 0 L 5.109375 -5.71875 C 4.660156 -7.226562 4.289062 -8.613281 4 -9.875 C 4.03125 -9.007812 4.046875 -7.613281 4.046875 -5.6875 L 4.046875 0 L 1.578125 0 L 1.578125 -12.296875 L 5.46875 -12.296875 L 8.25 -2.265625 L 11.03125 -12.296875 Z M 14.84375 -12.296875 "/></g></g></g><g fill="#141313" fill-opacity="1"><g transform="translate(69.966582, 126.030065)"><g><path d="M 8.25 -3.703125 L 4.109375 -3.703125 L 2.890625 0 L 0.265625 0 L 4.703125 -12.296875 L 7.78125 -12.296875 L 12.125 0 L 9.453125 0 Z M 6.203125 -10.1875 L 4.734375 -5.640625 L 7.625 -5.640625 Z M 6.203125 -10.1875 "/></g></g></g><g fill="#141313" fill-opacity="1"><g transform="translate(82.220626, 126.030065)"><g><path d="M 12.375 0 L 9.015625 0 L 3.953125 -9.328125 C 4.015625 -8.210938 4.046875 -6.957031 4.046875 -5.5625 L 4.046875 0 L 1.578125 0 L 1.578125 -12.296875 L 4.84375 -12.296875 L 10.015625 -2.78125 C 9.953125 -3.882812 9.921875 -5.171875 9.921875 -6.640625 L 9.921875 -12.296875 L 12.359375 -12.296875 Z M 12.375 0 "/></g></g></g><g fill="#141313" fill-opacity="1"><g transform="translate(95.9708, 126.030065)"><g/></g></g><g fill="#141313" fill-opacity="1"><g transform="translate(99.639919, 126.030065)"><g><path d="M 10.484375 -3.09375 C 10.640625 -1.632812 10.9375 -0.601562 11.375 0 L 8.6875 0 C 8.394531 -0.820312 8.195312 -1.738281 8.09375 -2.75 C 7.925781 -4.132812 7.375 -4.863281 6.4375 -4.9375 C 6.207031 -4.945312 5.882812 -4.953125 5.46875 -4.953125 L 4.046875 -4.953125 L 4.046875 0 L 1.578125 0 L 1.578125 -12.296875 L 6.078125 -12.296875 C 6.753906 -12.296875 7.347656 -12.265625 7.859375 -12.203125 C 8.828125 -12.078125 9.601562 -11.75 10.1875 -11.21875 C 10.78125 -10.695312 11.078125 -9.9375 11.078125 -8.9375 C 11.078125 -8.164062 10.863281 -7.523438 10.4375 -7.015625 C 10.007812 -6.515625 9.421875 -6.160156 8.671875 -5.953125 C 9.734375 -5.546875 10.335938 -4.59375 10.484375 -3.09375 Z M 4.046875 -6.78125 L 5.734375 -6.78125 C 6.222656 -6.78125 6.554688 -6.785156 6.734375 -6.796875 C 7.910156 -6.910156 8.5 -7.5 8.5 -8.5625 C 8.5 -9.125 8.359375 -9.535156 8.078125 -9.796875 C 7.796875 -10.066406 7.394531 -10.238281 6.875 -10.3125 C 6.59375 -10.34375 6.25 -10.359375 5.84375 -10.359375 L 4.046875 -10.359375 Z M 4.046875 -6.78125 "/></g></g></g><g fill="#141313" fill-opacity="1"><g transform="translate(111.50212, 126.030065)"><g><path d="M 10.453125 -1.9375 L 10.453125 0 L 1.578125 0 L 1.578125 -12.296875 L 10.28125 -12.296875 L 10.28125 -10.359375 L 4.046875 -10.359375 L 4.046875 -7.125 L 9.828125 -7.125 L 9.828125 -5.1875 L 4.046875 -5.1875 L 4.046875 -1.9375 Z M 10.453125 -1.9375 "/></g></g></g><g fill="#141313" fill-opacity="1"><g transform="translate(122.687508, 126.030065)"><g><path d="M 5.671875 -12.546875 C 7.066406 -12.546875 8.132812 -12.191406 8.875 -11.484375 C 9.625 -10.785156 10.066406 -9.847656 10.203125 -8.671875 L 7.6875 -8.671875 C 7.625 -9.316406 7.410156 -9.816406 7.046875 -10.171875 C 6.691406 -10.523438 6.203125 -10.703125 5.578125 -10.703125 C 5.066406 -10.703125 4.648438 -10.578125 4.328125 -10.328125 C 4.003906 -10.078125 3.84375 -9.71875 3.84375 -9.25 C 3.84375 -8.71875 4.035156 -8.300781 4.421875 -8 C 4.804688 -7.707031 5.488281 -7.453125 6.46875 -7.234375 C 7.8125 -6.921875 8.800781 -6.445312 9.4375 -5.8125 C 10.070312 -5.1875 10.390625 -4.378906 10.390625 -3.390625 C 10.390625 -2.265625 9.945312 -1.375 9.0625 -0.71875 C 8.1875 -0.0703125 7.113281 0.25 5.84375 0.25 C 4.34375 0.25 3.144531 -0.078125 2.25 -0.734375 C 1.363281 -1.398438 0.863281 -2.367188 0.75 -3.640625 L 3.265625 -3.640625 C 3.390625 -2.984375 3.679688 -2.472656 4.140625 -2.109375 C 4.609375 -1.753906 5.164062 -1.578125 5.8125 -1.578125 C 6.375 -1.578125 6.847656 -1.71875 7.234375 -2 C 7.617188 -2.289062 7.8125 -2.671875 7.8125 -3.140625 C 7.8125 -3.660156 7.625 -4.078125 7.25 -4.390625 C 6.882812 -4.710938 6.253906 -4.984375 5.359375 -5.203125 C 3.984375 -5.535156 2.957031 -5.976562 2.28125 -6.53125 C 1.601562 -7.082031 1.265625 -7.882812 1.265625 -8.9375 C 1.265625 -10.03125 1.691406 -10.90625 2.546875 -11.5625 C 3.398438 -12.21875 4.441406 -12.546875 5.671875 -12.546875 Z M 5.671875 -12.546875 "/></g></g></g><g fill="#141313" fill-opacity="1"><g transform="translate(133.730399, 126.030065)"><g><path d="M 6.984375 -12.546875 C 8.859375 -12.546875 10.335938 -11.960938 11.421875 -10.796875 C 12.515625 -9.640625 13.0625 -8.085938 13.0625 -6.140625 C 13.0625 -4.203125 12.515625 -2.648438 11.421875 -1.484375 C 10.335938 -0.328125 8.859375 0.25 6.984375 0.25 C 5.109375 0.25 3.625 -0.328125 2.53125 -1.484375 C 1.445312 -2.648438 0.90625 -4.203125 0.90625 -6.140625 C 0.90625 -8.085938 1.445312 -9.640625 2.53125 -10.796875 C 3.613281 -11.960938 5.097656 -12.546875 6.984375 -12.546875 Z M 4.40625 -2.78125 C 5.03125 -1.976562 5.890625 -1.578125 6.984375 -1.578125 C 8.078125 -1.578125 8.929688 -1.976562 9.546875 -2.78125 C 10.160156 -3.59375 10.46875 -4.710938 10.46875 -6.140625 C 10.46875 -7.578125 10.160156 -8.695312 9.546875 -9.5 C 8.929688 -10.300781 8.078125 -10.703125 6.984375 -10.703125 C 5.878906 -10.703125 5.015625 -10.300781 4.390625 -9.5 C 3.773438 -8.695312 3.46875 -7.578125 3.46875 -6.140625 C 3.46875 -4.703125 3.78125 -3.582031 4.40625 -2.78125 Z M 4.40625 -2.78125 "/></g></g></g><g fill="#141313" fill-opacity="1"><g transform="translate(147.569628, 126.030065)"><g><path d="M 11.5625 -12.296875 L 11.5625 -5 C 11.5625 -4.414062 11.550781 -3.9375 11.53125 -3.5625 C 11.445312 -2.445312 10.988281 -1.53125 10.15625 -0.8125 C 9.332031 -0.101562 8.113281 0.25 6.5 0.25 C 4.875 0.25 3.644531 -0.101562 2.8125 -0.8125 C 1.988281 -1.53125 1.535156 -2.445312 1.453125 -3.5625 C 1.429688 -3.9375 1.421875 -4.414062 1.421875 -5 L 1.421875 -12.296875 L 3.859375 -12.296875 L 3.859375 -4.75 C 3.859375 -4.332031 3.875 -4.035156 3.90625 -3.859375 C 3.957031 -3.140625 4.203125 -2.578125 4.640625 -2.171875 C 5.078125 -1.773438 5.695312 -1.578125 6.5 -1.578125 C 7.289062 -1.578125 7.90625 -1.773438 8.34375 -2.171875 C 8.78125 -2.578125 9.023438 -3.140625 9.078125 -3.859375 C 9.109375 -4.035156 9.125 -4.332031 9.125 -4.75 L 9.125 -12.296875 Z M 11.5625 -12.296875 "/></g></g></g><g fill="#141313" fill-opacity="1"><g transform="translate(160.286766, 126.030065)"><g><path d="M 10.484375 -3.09375 C 10.640625 -1.632812 10.9375 -0.601562 11.375 0 L 8.6875 0 C 8.394531 -0.820312 8.195312 -1.738281 8.09375 -2.75 C 7.925781 -4.132812 7.375 -4.863281 6.4375 -4.9375 C 6.207031 -4.945312 5.882812 -4.953125 5.46875 -4.953125 L 4.046875 -4.953125 L 4.046875 0 L 1.578125 0 L 1.578125 -12.296875 L 6.078125 -12.296875 C 6.753906 -12.296875 7.347656 -12.265625 7.859375 -12.203125 C 8.828125 -12.078125 9.601562 -11.75 10.1875 -11.21875 C 10.78125 -10.695312 11.078125 -9.9375 11.078125 -8.9375 C 11.078125 -8.164062 10.863281 -7.523438 10.4375 -7.015625 C 10.007812 -6.515625 9.421875 -6.160156 8.671875 -5.953125 C 9.734375 -5.546875 10.335938 -4.59375 10.484375 -3.09375 Z M 4.046875 -6.78125 L 5.734375 -6.78125 C 6.222656 -6.78125 6.554688 -6.785156 6.734375 -6.796875 C 7.910156 -6.910156 8.5 -7.5 8.5 -8.5625 C 8.5 -9.125 8.359375 -9.535156 8.078125 -9.796875 C 7.796875 -10.066406 7.394531 -10.238281 6.875 -10.3125 C 6.59375 -10.34375 6.25 -10.359375 5.84375 -10.359375 L 4.046875 -10.359375 Z M 4.046875 -6.78125 "/></g></g></g><g fill="#141313" fill-opacity="1"><g transform="translate(172.148967, 126.030065)"><g><path d="M 6.859375 -12.546875 C 8.460938 -12.546875 9.710938 -12.15625 10.609375 -11.375 C 11.515625 -10.59375 12.035156 -9.566406 12.171875 -8.296875 L 12.1875 -8.125 L 9.71875 -8.125 L 9.6875 -8.296875 C 9.363281 -9.898438 8.410156 -10.703125 6.828125 -10.703125 C 5.828125 -10.703125 5.023438 -10.300781 4.421875 -9.5 C 3.816406 -8.695312 3.515625 -7.601562 3.515625 -6.21875 C 3.515625 -4.726562 3.816406 -3.582031 4.421875 -2.78125 C 5.023438 -1.976562 5.8125 -1.578125 6.78125 -1.578125 C 7.570312 -1.578125 8.203125 -1.796875 8.671875 -2.234375 C 9.148438 -2.679688 9.472656 -3.296875 9.640625 -4.078125 L 9.671875 -4.25 L 12.109375 -4.25 L 12.09375 -4.078125 C 11.96875 -2.742188 11.421875 -1.6875 10.453125 -0.90625 C 9.492188 -0.132812 8.234375 0.25 6.671875 0.25 C 4.941406 0.25 3.546875 -0.316406 2.484375 -1.453125 C 1.429688 -2.597656 0.90625 -4.140625 0.90625 -6.078125 C 0.90625 -8.046875 1.460938 -9.613281 2.578125 -10.78125 C 3.691406 -11.957031 5.117188 -12.546875 6.859375 -12.546875 Z M 6.859375 -12.546875 "/></g></g></g><g fill="#141313" fill-opacity="1"><g transform="translate(185.151076, 126.030065)"><g><path d="M 10.453125 -1.9375 L 10.453125 0 L 1.578125 0 L 1.578125 -12.296875 L 10.28125 -12.296875 L 10.28125 -10.359375 L 4.046875 -10.359375 L 4.046875 -7.125 L 9.828125 -7.125 L 9.828125 -5.1875 L 4.046875 -5.1875 L 4.046875 -1.9375 Z M 10.453125 -1.9375 "/></g></g></g><g fill="#141313" fill-opacity="1"><g transform="translate(196.336464, 126.030065)"><g><path d="M 5.671875 -12.546875 C 7.066406 -12.546875 8.132812 -12.191406 8.875 -11.484375 C 9.625 -10.785156 10.066406 -9.847656 10.203125 -8.671875 L 7.6875 -8.671875 C 7.625 -9.316406 7.410156 -9.816406 7.046875 -10.171875 C 6.691406 -10.523438 6.203125 -10.703125 5.578125 -10.703125 C 5.066406 -10.703125 4.648438 -10.578125 4.328125 -10.328125 C 4.003906 -10.078125 3.84375 -9.71875 3.84375 -9.25 C 3.84375 -8.71875 4.035156 -8.300781 4.421875 -8 C 4.804688 -7.707031 5.488281 -7.453125 6.46875 -7.234375 C 7.8125 -6.921875 8.800781 -6.445312 9.4375 -5.8125 C 10.070312 -5.1875 10.390625 -4.378906 10.390625 -3.390625 C 10.390625 -2.265625 9.945312 -1.375 9.0625 -0.71875 C 8.1875 -0.0703125 7.113281 0.25 5.84375 0.25 C 4.34375 0.25 3.144531 -0.078125 2.25 -0.734375 C 1.363281 -1.398438 0.863281 -2.367188 0.75 -3.640625 L 3.265625 -3.640625 C 3.390625 -2.984375 3.679688 -2.472656 4.140625 -2.109375 C 4.609375 -1.753906 5.164062 -1.578125 5.8125 -1.578125 C 6.375 -1.578125 6.847656 -1.71875 7.234375 -2 C 7.617188 -2.289062 7.8125 -2.671875 7.8125 -3.140625 C 7.8125 -3.660156 7.625 -4.078125 7.25 -4.390625 C 6.882812 -4.710938 6.253906 -4.984375 5.359375 -5.203125 C 3.984375 -5.535156 2.957031 -5.976562 2.28125 -6.53125 C 1.601562 -7.082031 1.265625 -7.882812 1.265625 -8.9375 C 1.265625 -10.03125 1.691406 -10.90625 2.546875 -11.5625 C 3.398438 -12.21875 4.441406 -12.546875 5.671875 -12.546875 Z M 5.671875 -12.546875 "/></g></g></g><g fill="#141313" fill-opacity="1"><g transform="translate(207.37936, 126.030065)"><g/></g></g><g fill="#141313" fill-opacity="1"><g transform="translate(211.048479, 126.030065)"><g><path d="M 14.84375 -12.296875 L 14.84375 0 L 12.375 0 L 12.375 -5.6875 C 12.375 -7.632812 12.390625 -9.035156 12.421875 -9.890625 C 12.085938 -8.460938 11.707031 -7.066406 11.28125 -5.703125 L 9.546875 0 L 6.875 0 L 5.109375 -5.71875 C 4.660156 -7.226562 4.289062 -8.613281 4 -9.875 C 4.03125 -9.007812 4.046875 -7.613281 4.046875 -5.6875 L 4.046875 0 L 1.578125 0 L 1.578125 -12.296875 L 5.46875 -12.296875 L 8.25 -2.265625 L 11.03125 -12.296875 Z M 14.84375 -12.296875 "/></g></g></g><g fill="#141313" fill-opacity="1"><g transform="translate(227.238774, 126.030065)"><g><path d="M 8.25 -3.703125 L 4.109375 -3.703125 L 2.890625 0 L 0.265625 0 L 4.703125 -12.296875 L 7.78125 -12.296875 L 12.125 0 L 9.453125 0 Z M 6.203125 -10.1875 L 4.734375 -5.640625 L 7.625 -5.640625 Z M 6.203125 -10.1875 "/></g></g></g><g fill="#141313" fill-opacity="1"><g transform="translate(239.492818, 126.030065)"><g><path d="M 12.375 0 L 9.015625 0 L 3.953125 -9.328125 C 4.015625 -8.210938 4.046875 -6.957031 4.046875 -5.5625 L 4.046875 0 L 1.578125 0 L 1.578125 -12.296875 L 4.84375 -12.296875 L 10.015625 -2.78125 C 9.953125 -3.882812 9.921875 -5.171875 9.921875 -6.640625 L 9.921875 -12.296875 L 12.359375 -12.296875 Z M 12.375 0 "/></g></g></g><g fill="#141313" fill-opacity="1"><g transform="translate(253.242992, 126.030065)"><g><path d="M 8.25 -3.703125 L 4.109375 -3.703125 L 2.890625 0 L 0.265625 0 L 4.703125 -12.296875 L 7.78125 -12.296875 L 12.125 0 L 9.453125 0 Z M 6.203125 -10.1875 L 4.734375 -5.640625 L 7.625 -5.640625 Z M 6.203125 -10.1875 "/></g></g></g><g fill="#141313" fill-opacity="1"><g transform="translate(265.497036, 126.030065)"><g><path d="M 7.21875 -6.265625 L 12.171875 -6.265625 L 12.171875 0 L 10.1875 0 L 10.03125 -2 L 9.46875 -0.75 C 8.789062 -0.0820312 7.796875 0.25 6.484375 0.25 C 4.773438 0.25 3.414062 -0.316406 2.40625 -1.453125 C 1.40625 -2.585938 0.90625 -4.128906 0.90625 -6.078125 C 0.90625 -8.046875 1.472656 -9.613281 2.609375 -10.78125 C 3.753906 -11.957031 5.207031 -12.546875 6.96875 -12.546875 C 8.570312 -12.546875 9.820312 -12.15625 10.71875 -11.375 C 11.625 -10.59375 12.140625 -9.566406 12.265625 -8.296875 L 12.296875 -8.125 L 9.828125 -8.125 L 9.796875 -8.296875 C 9.472656 -9.898438 8.515625 -10.703125 6.921875 -10.703125 C 5.921875 -10.703125 5.101562 -10.296875 4.46875 -9.484375 C 3.832031 -8.679688 3.515625 -7.59375 3.515625 -6.21875 C 3.515625 -4.726562 3.820312 -3.582031 4.4375 -2.78125 C 5.050781 -1.976562 5.859375 -1.578125 6.859375 -1.578125 C 7.648438 -1.578125 8.3125 -1.820312 8.84375 -2.3125 C 9.375 -2.800781 9.695312 -3.476562 9.8125 -4.34375 L 7.21875 -4.34375 Z M 7.21875 -6.265625 "/></g></g></g><g fill="#141313" fill-opacity="1"><g transform="translate(278.837563, 126.030065)"><g><path d="M 10.453125 -1.9375 L 10.453125 0 L 1.578125 0 L 1.578125 -12.296875 L 10.28125 -12.296875 L 10.28125 -10.359375 L 4.046875 -10.359375 L 4.046875 -7.125 L 9.828125 -7.125 L 9.828125 -5.1875 L 4.046875 -5.1875 L 4.046875 -1.9375 Z M 10.453125 -1.9375 "/></g></g></g><g fill="#141313" fill-opacity="1"><g transform="translate(290.022939, 126.030065)"><g><path d="M 14.84375 -12.296875 L 14.84375 0 L 12.375 0 L 12.375 -5.6875 C 12.375 -7.632812 12.390625 -9.035156 12.421875 -9.890625 C 12.085938 -8.460938 11.707031 -7.066406 11.28125 -5.703125 L 9.546875 0 L 6.875 0 L 5.109375 -5.71875 C 4.660156 -7.226562 4.289062 -8.613281 4 -9.875 C 4.03125 -9.007812 4.046875 -7.613281 4.046875 -5.6875 L 4.046875 0 L 1.578125 0 L 1.578125 -12.296875 L 5.46875 -12.296875 L 8.25 -2.265625 L 11.03125 -12.296875 Z M 14.84375 -12.296875 "/></g></g></g><g fill="#141313" fill-opacity="1"><g transform="translate(306.213223, 126.030065)"><g><path d="M 10.453125 -1.9375 L 10.453125 0 L 1.578125 0 L 1.578125 -12.296875 L 10.28125 -12.296875 L 10.28125 -10.359375 L 4.046875 -10.359375 L 4.046875 -7.125 L 9.828125 -7.125 L 9.828125 -5.1875 L 4.046875 -5.1875 L 4.046875 -1.9375 Z M 10.453125 -1.9375 "/></g></g></g><g fill="#141313" fill-opacity="1"><g transform="translate(317.3986, 126.030065)"><g><path d="M 12.375 0 L 9.015625 0 L 3.953125 -9.328125 C 4.015625 -8.210938 4.046875 -6.957031 4.046875 -5.5625 L 4.046875 0 L 1.578125 0 L 1.578125 -12.296875 L 4.84375 -12.296875 L 10.015625 -2.78125 C 9.953125 -3.882812 9.921875 -5.171875 9.921875 -6.640625 L 9.921875 -12.296875 L 12.359375 -12.296875 Z M 12.375 0 "/></g></g></g><g fill="#141313" fill-opacity="1"><g transform="translate(331.148773, 126.030065)"><g><path d="M 11.203125 -10.359375 L 7.03125 -10.359375 L 7.03125 0 L 4.578125 0 L 4.578125 -10.359375 L 0.40625 -10.359375 L 0.40625 -12.296875 L 11.203125 -12.296875 Z M 11.203125 -10.359375 "/></g></g></g><g clip-path="url(#5aac3d33a4)"><g clip-path="url(#6c65ee96cc)"><path fill="url(#7c23502ad8)" d="M 0.589844 0 L 0.589844 147.976562 L 87.824219 147.976562 L 87.824219 0 Z M 0.589844 0 " fill-rule="nonzero"/></g></g></svg>