<svg xmlns="http://www.w3.org/2000/svg" xmlns:xlink="http://www.w3.org/1999/xlink" width="442" zoomAndPan="magnify" viewBox="0 0 331.5 119.999999" height="160" preserveAspectRatio="xMidYMid meet" version="1.0"><defs><g/><clipPath id="14fd3e2bb2"><path d="M 4 0.0898438 L 67 0.0898438 L 67 119.910156 L 4 119.910156 Z M 4 0.0898438 " clip-rule="nonzero"/></clipPath><clipPath id="f2faa5d709"><path d="M 5.207031 69.648438 C 0.0742188 23.820312 49.421875 34.867188 66.332031 16.640625 C 71.046875 58.054688 22.808594 40.933594 5.207031 69.648438 Z M 61.339844 50.871094 C 54.96875 61.644531 14.703125 59.621094 9.78125 79.304688 C 0.632812 117.128906 42.210938 119.890625 42.210938 119.890625 C 42.210938 119.890625 18.375 112.433594 23.363281 90.625 C 26.136719 79.859375 63.289062 85.382812 61.339844 50.871094 Z M 28.71875 0.0820312 C 22.503906 0.0820312 17.46875 5.097656 17.46875 11.28125 C 17.46875 17.464844 22.503906 22.480469 28.71875 22.480469 C 34.929688 22.480469 39.964844 17.464844 39.964844 11.28125 C 39.964844 5.097656 34.929688 0.0820312 28.71875 0.0820312 Z M 28.71875 0.0820312 " clip-rule="nonzero"/></clipPath><linearGradient x1="64.987437" gradientTransform="matrix(0.287815, 0, 0, 0.28658, -36.209808, -11.659432)" y1="353.228816" x2="430.937293" gradientUnits="userSpaceOnUse" y2="141.948195" id="704389eba8"><stop stop-opacity="1" stop-color="rgb(97.999573%, 72.499084%, 8.198547%)" offset="0"/><stop stop-opacity="1" stop-color="rgb(97.999573%, 72.499084%, 8.198547%)" offset="0.125"/><stop stop-opacity="1" stop-color="rgb(97.999573%, 72.499084%, 8.198547%)" offset="0.1875"/><stop stop-opacity="1" stop-color="rgb(97.999573%, 72.499084%, 8.198547%)" offset="0.21875"/><stop stop-opacity="1" stop-color="rgb(97.999573%, 72.499084%, 8.198547%)" offset="0.234375"/><stop stop-opacity="1" stop-color="rgb(97.999573%, 72.499084%, 8.198547%)" offset="0.242187"/><stop stop-opacity="1" stop-color="rgb(97.903442%, 71.821594%, 8.395386%)" offset="0.246094"/><stop stop-opacity="1" stop-color="rgb(97.808838%, 71.144104%, 8.59375%)" offset="0.25"/><stop stop-opacity="1" stop-color="rgb(97.662354%, 70.108032%, 8.894348%)" offset="0.253906"/><stop stop-opacity="1" stop-color="rgb(97.517395%, 69.073486%, 9.196472%)" offset="0.257812"/><stop stop-opacity="1" stop-color="rgb(97.372437%, 68.03894%, 9.49707%)" offset="0.261719"/><stop stop-opacity="1" stop-color="rgb(97.227478%, 67.004395%, 9.799194%)" offset="0.265625"/><stop stop-opacity="1" stop-color="rgb(97.080994%, 65.968323%, 10.099792%)" offset="0.269531"/><stop stop-opacity="1" stop-color="rgb(96.936035%, 64.933777%, 10.401917%)" offset="0.273438"/><stop stop-opacity="1" stop-color="rgb(96.789551%, 63.897705%, 10.702515%)" offset="0.277344"/><stop stop-opacity="1" stop-color="rgb(96.644592%, 62.863159%, 11.004639%)" offset="0.28125"/><stop stop-opacity="1" stop-color="rgb(96.498108%, 61.827087%, 11.305237%)" offset="0.285156"/><stop stop-opacity="1" stop-color="rgb(96.353149%, 60.792542%, 11.607361%)" offset="0.289062"/><stop stop-opacity="1" stop-color="rgb(96.208191%, 59.75647%, 11.907959%)" offset="0.292969"/><stop stop-opacity="1" stop-color="rgb(96.063232%, 58.721924%, 12.210083%)" offset="0.296875"/><stop stop-opacity="1" stop-color="rgb(95.916748%, 57.685852%, 12.512207%)" offset="0.300781"/><stop stop-opacity="1" stop-color="rgb(95.77179%, 56.651306%, 12.814331%)" offset="0.304688"/><stop stop-opacity="1" stop-color="rgb(95.625305%, 55.615234%, 13.114929%)" offset="0.308594"/><stop stop-opacity="1" stop-color="rgb(95.480347%, 54.580688%, 13.417053%)" offset="0.3125"/><stop stop-opacity="1" stop-color="rgb(95.333862%, 53.544617%, 13.717651%)" offset="0.316406"/><stop stop-opacity="1" stop-color="rgb(95.188904%, 52.510071%, 14.019775%)" offset="0.320312"/><stop stop-opacity="1" stop-color="rgb(95.043945%, 51.473999%, 14.320374%)" offset="0.324219"/><stop stop-opacity="1" stop-color="rgb(94.898987%, 50.439453%, 14.622498%)" offset="0.328125"/><stop stop-opacity="1" stop-color="rgb(94.752502%, 49.403381%, 14.923096%)" offset="0.332031"/><stop stop-opacity="1" stop-color="rgb(94.607544%, 48.368835%, 15.22522%)" offset="0.335938"/><stop stop-opacity="1" stop-color="rgb(94.46106%, 47.332764%, 15.525818%)" offset="0.339844"/><stop stop-opacity="1" stop-color="rgb(94.316101%, 46.298218%, 15.827942%)" offset="0.34375"/><stop stop-opacity="1" stop-color="rgb(94.169617%, 45.262146%, 16.12854%)" offset="0.347656"/><stop stop-opacity="1" stop-color="rgb(94.024658%, 44.2276%, 16.430664%)" offset="0.351562"/><stop stop-opacity="1" stop-color="rgb(93.8797%, 43.191528%, 16.731262%)" offset="0.355469"/><stop stop-opacity="1" stop-color="rgb(93.734741%, 42.156982%, 17.033386%)" offset="0.359375"/><stop stop-opacity="1" stop-color="rgb(93.588257%, 41.120911%, 17.333984%)" offset="0.363281"/><stop stop-opacity="1" stop-color="rgb(93.443298%, 40.086365%, 17.636108%)" offset="0.367187"/><stop stop-opacity="1" stop-color="rgb(93.296814%, 39.051819%, 17.936707%)" offset="0.371094"/><stop stop-opacity="1" stop-color="rgb(93.151855%, 38.017273%, 18.238831%)" offset="0.375"/><stop stop-opacity="1" stop-color="rgb(93.006897%, 36.981201%, 18.539429%)" offset="0.378906"/><stop stop-opacity="1" stop-color="rgb(92.861938%, 35.946655%, 18.841553%)" offset="0.382812"/><stop stop-opacity="1" stop-color="rgb(92.715454%, 34.910583%, 19.143677%)" offset="0.386719"/><stop stop-opacity="1" stop-color="rgb(92.570496%, 33.876038%, 19.445801%)" offset="0.390625"/><stop stop-opacity="1" stop-color="rgb(92.424011%, 32.839966%, 19.746399%)" offset="0.394531"/><stop stop-opacity="1" stop-color="rgb(92.279053%, 31.80542%, 20.048523%)" offset="0.398437"/><stop stop-opacity="1" stop-color="rgb(92.132568%, 30.769348%, 20.349121%)" offset="0.402344"/><stop stop-opacity="1" stop-color="rgb(91.98761%, 29.734802%, 20.651245%)" offset="0.40625"/><stop stop-opacity="1" stop-color="rgb(91.842651%, 28.69873%, 20.951843%)" offset="0.410156"/><stop stop-opacity="1" stop-color="rgb(91.697693%, 27.664185%, 21.253967%)" offset="0.414062"/><stop stop-opacity="1" stop-color="rgb(91.551208%, 26.628113%, 21.554565%)" offset="0.417969"/><stop stop-opacity="1" stop-color="rgb(91.40625%, 25.593567%, 21.856689%)" offset="0.421875"/><stop stop-opacity="1" stop-color="rgb(91.259766%, 24.557495%, 22.157288%)" offset="0.425781"/><stop stop-opacity="1" stop-color="rgb(91.114807%, 23.522949%, 22.459412%)" offset="0.429688"/><stop stop-opacity="1" stop-color="rgb(90.708923%, 23.300171%, 23.352051%)" offset="0.433594"/><stop stop-opacity="1" stop-color="rgb(90.30304%, 23.077393%, 24.24469%)" offset="0.4375"/><stop stop-opacity="1" stop-color="rgb(89.724731%, 23.390198%, 25.527954%)" offset="0.441406"/><stop stop-opacity="1" stop-color="rgb(89.147949%, 23.703003%, 26.812744%)" offset="0.445312"/><stop stop-opacity="1" stop-color="rgb(88.569641%, 24.015808%, 28.096008%)" offset="0.449219"/><stop stop-opacity="1" stop-color="rgb(87.992859%, 24.330139%, 29.380798%)" offset="0.453125"/><stop stop-opacity="1" stop-color="rgb(87.414551%, 24.642944%, 30.664062%)" offset="0.457031"/><stop stop-opacity="1" stop-color="rgb(86.837769%, 24.957275%, 31.948853%)" offset="0.460937"/><stop stop-opacity="1" stop-color="rgb(86.25946%, 25.270081%, 33.232117%)" offset="0.464844"/><stop stop-opacity="1" stop-color="rgb(85.682678%, 25.584412%, 34.516907%)" offset="0.46875"/><stop stop-opacity="1" stop-color="rgb(85.10437%, 25.897217%, 35.800171%)" offset="0.472656"/><stop stop-opacity="1" stop-color="rgb(84.527588%, 26.210022%, 37.084961%)" offset="0.476562"/><stop stop-opacity="1" stop-color="rgb(83.94928%, 26.522827%, 38.368225%)" offset="0.480469"/><stop stop-opacity="1" stop-color="rgb(83.372498%, 26.837158%, 39.653015%)" offset="0.484375"/><stop stop-opacity="1" stop-color="rgb(82.794189%, 27.149963%, 40.936279%)" offset="0.488281"/><stop stop-opacity="1" stop-color="rgb(82.215881%, 27.464294%, 42.221069%)" offset="0.492187"/><stop stop-opacity="1" stop-color="rgb(81.637573%, 27.7771%, 43.504333%)" offset="0.496094"/><stop stop-opacity="1" stop-color="rgb(81.060791%, 28.091431%, 44.787598%)" offset="0.5"/><stop stop-opacity="1" stop-color="rgb(80.482483%, 28.404236%, 46.070862%)" offset="0.503906"/><stop stop-opacity="1" stop-color="rgb(79.905701%, 28.717041%, 47.355652%)" offset="0.507812"/><stop stop-opacity="1" stop-color="rgb(79.327393%, 29.029846%, 48.638916%)" offset="0.511719"/><stop stop-opacity="1" stop-color="rgb(78.75061%, 29.344177%, 49.923706%)" offset="0.515625"/><stop stop-opacity="1" stop-color="rgb(78.172302%, 29.656982%, 51.20697%)" offset="0.519531"/><stop stop-opacity="1" stop-color="rgb(77.59552%, 29.971313%, 52.49176%)" offset="0.523438"/><stop stop-opacity="1" stop-color="rgb(77.017212%, 30.284119%, 53.775024%)" offset="0.527344"/><stop stop-opacity="1" stop-color="rgb(76.44043%, 30.59845%, 55.059814%)" offset="0.53125"/><stop stop-opacity="1" stop-color="rgb(75.862122%, 30.911255%, 56.343079%)" offset="0.535156"/><stop stop-opacity="1" stop-color="rgb(75.285339%, 31.22406%, 57.627869%)" offset="0.539062"/><stop stop-opacity="1" stop-color="rgb(74.707031%, 31.536865%, 58.911133%)" offset="0.542969"/><stop stop-opacity="1" stop-color="rgb(74.128723%, 31.851196%, 60.195923%)" offset="0.546875"/><stop stop-opacity="1" stop-color="rgb(73.550415%, 32.164001%, 61.479187%)" offset="0.550781"/><stop stop-opacity="1" stop-color="rgb(72.973633%, 32.478333%, 62.763977%)" offset="0.554688"/><stop stop-opacity="1" stop-color="rgb(72.395325%, 32.791138%, 64.047241%)" offset="0.558594"/><stop stop-opacity="1" stop-color="rgb(71.818542%, 33.105469%, 65.332031%)" offset="0.5625"/><stop stop-opacity="1" stop-color="rgb(71.240234%, 33.418274%, 66.615295%)" offset="0.566406"/><stop stop-opacity="1" stop-color="rgb(70.663452%, 33.731079%, 67.89856%)" offset="0.570312"/><stop stop-opacity="1" stop-color="rgb(70.085144%, 34.043884%, 69.181824%)" offset="0.574219"/><stop stop-opacity="1" stop-color="rgb(69.508362%, 34.358215%, 70.466614%)" offset="0.578125"/><stop stop-opacity="1" stop-color="rgb(68.930054%, 34.671021%, 71.749878%)" offset="0.582031"/><stop stop-opacity="1" stop-color="rgb(68.353271%, 34.985352%, 73.034668%)" offset="0.585938"/><stop stop-opacity="1" stop-color="rgb(67.774963%, 35.298157%, 74.317932%)" offset="0.589844"/><stop stop-opacity="1" stop-color="rgb(67.198181%, 35.612488%, 75.602722%)" offset="0.59375"/><stop stop-opacity="1" stop-color="rgb(66.609192%, 36.068726%, 76.649475%)" offset="0.597656"/><stop stop-opacity="1" stop-color="rgb(66.020203%, 36.526489%, 77.697754%)" offset="0.601562"/><stop stop-opacity="1" stop-color="rgb(65.393066%, 37.486267%, 77.920532%)" offset="0.605469"/><stop stop-opacity="1" stop-color="rgb(64.76593%, 38.446045%, 78.143311%)" offset="0.609375"/><stop stop-opacity="1" stop-color="rgb(64.138794%, 39.405823%, 78.366089%)" offset="0.613281"/><stop stop-opacity="1" stop-color="rgb(63.511658%, 40.367126%, 78.588867%)" offset="0.617188"/><stop stop-opacity="1" stop-color="rgb(62.882996%, 41.326904%, 78.811646%)" offset="0.621094"/><stop stop-opacity="1" stop-color="rgb(62.255859%, 42.286682%, 79.034424%)" offset="0.625"/><stop stop-opacity="1" stop-color="rgb(61.628723%, 43.24646%, 79.255676%)" offset="0.628906"/><stop stop-opacity="1" stop-color="rgb(61.001587%, 44.206238%, 79.478455%)" offset="0.632812"/><stop stop-opacity="1" stop-color="rgb(60.374451%, 45.166016%, 79.701233%)" offset="0.636719"/><stop stop-opacity="1" stop-color="rgb(59.747314%, 46.127319%, 79.924011%)" offset="0.640625"/><stop stop-opacity="1" stop-color="rgb(59.120178%, 47.087097%, 80.14679%)" offset="0.644531"/><stop stop-opacity="1" stop-color="rgb(58.493042%, 48.046875%, 80.369568%)" offset="0.648437"/><stop stop-opacity="1" stop-color="rgb(57.865906%, 49.006653%, 80.592346%)" offset="0.652344"/><stop stop-opacity="1" stop-color="rgb(57.23877%, 49.966431%, 80.815125%)" offset="0.65625"/><stop stop-opacity="1" stop-color="rgb(56.610107%, 50.926208%, 81.036377%)" offset="0.660156"/><stop stop-opacity="1" stop-color="rgb(55.982971%, 51.887512%, 81.259155%)" offset="0.664062"/><stop stop-opacity="1" stop-color="rgb(55.355835%, 52.84729%, 81.481934%)" offset="0.667969"/><stop stop-opacity="1" stop-color="rgb(54.728699%, 53.807068%, 81.704712%)" offset="0.671875"/><stop stop-opacity="1" stop-color="rgb(54.101562%, 54.766846%, 81.92749%)" offset="0.675781"/><stop stop-opacity="1" stop-color="rgb(53.474426%, 55.726624%, 82.150269%)" offset="0.679687"/><stop stop-opacity="1" stop-color="rgb(52.84729%, 56.686401%, 82.373047%)" offset="0.683594"/><stop stop-opacity="1" stop-color="rgb(52.220154%, 57.647705%, 82.595825%)" offset="0.6875"/><stop stop-opacity="1" stop-color="rgb(51.593018%, 58.607483%, 82.817078%)" offset="0.691406"/><stop stop-opacity="1" stop-color="rgb(50.965881%, 59.567261%, 83.039856%)" offset="0.695312"/><stop stop-opacity="1" stop-color="rgb(50.337219%, 60.527039%, 83.262634%)" offset="0.699219"/><stop stop-opacity="1" stop-color="rgb(49.710083%, 61.486816%, 83.485413%)" offset="0.703125"/><stop stop-opacity="1" stop-color="rgb(49.082947%, 62.446594%, 83.708191%)" offset="0.707031"/><stop stop-opacity="1" stop-color="rgb(48.455811%, 63.407898%, 83.930969%)" offset="0.710937"/><stop stop-opacity="1" stop-color="rgb(47.828674%, 64.367676%, 84.153748%)" offset="0.714844"/><stop stop-opacity="1" stop-color="rgb(47.201538%, 65.327454%, 84.376526%)" offset="0.71875"/><stop stop-opacity="1" stop-color="rgb(46.574402%, 66.287231%, 84.597778%)" offset="0.722656"/><stop stop-opacity="1" stop-color="rgb(45.947266%, 67.247009%, 84.820557%)" offset="0.726562"/><stop stop-opacity="1" stop-color="rgb(45.320129%, 68.206787%, 85.043335%)" offset="0.730469"/><stop stop-opacity="1" stop-color="rgb(44.692993%, 69.168091%, 85.266113%)" offset="0.734375"/><stop stop-opacity="1" stop-color="rgb(44.064331%, 70.127869%, 85.488892%)" offset="0.738281"/><stop stop-opacity="1" stop-color="rgb(43.437195%, 71.087646%, 85.71167%)" offset="0.742187"/><stop stop-opacity="1" stop-color="rgb(42.810059%, 72.047424%, 85.934448%)" offset="0.746094"/><stop stop-opacity="1" stop-color="rgb(42.182922%, 73.008728%, 86.157227%)" offset="0.75"/><stop stop-opacity="1" stop-color="rgb(41.555786%, 73.968506%, 86.378479%)" offset="0.753906"/><stop stop-opacity="1" stop-color="rgb(40.92865%, 74.928284%, 86.601257%)" offset="0.757813"/><stop stop-opacity="1" stop-color="rgb(40.301514%, 75.888062%, 86.824036%)" offset="0.761719"/><stop stop-opacity="1" stop-color="rgb(39.674377%, 76.847839%, 87.046814%)" offset="0.765625"/><stop stop-opacity="1" stop-color="rgb(39.047241%, 77.807617%, 87.269592%)" offset="0.769531"/><stop stop-opacity="1" stop-color="rgb(38.420105%, 78.768921%, 87.492371%)" offset="0.773438"/><stop stop-opacity="1" stop-color="rgb(38.409424%, 78.78418%, 87.495422%)" offset="0.78125"/><stop stop-opacity="1" stop-color="rgb(38.398743%, 78.799438%, 87.5%)" offset="0.8125"/><stop stop-opacity="1" stop-color="rgb(38.398743%, 78.799438%, 87.5%)" offset="0.875"/><stop stop-opacity="1" stop-color="rgb(38.398743%, 78.799438%, 87.5%)" offset="1"/></linearGradient></defs><path fill="#ffed00" d="M 79.121094 31.160156 L 196.945312 31.160156 C 204.578125 31.160156 211.902344 34.191406 217.300781 39.589844 C 222.699219 44.988281 225.730469 52.308594 225.730469 59.945312 C 225.730469 67.578125 222.699219 74.902344 217.300781 80.300781 C 211.902344 85.699219 204.578125 88.730469 196.945312 88.730469 L 79.121094 88.730469 C 63.222656 88.730469 50.335938 75.84375 50.335938 59.945312 C 50.335938 44.046875 63.222656 31.160156 79.121094 31.160156 Z M 79.121094 31.160156 " fill-opacity="0.13" fill-rule="nonzero"/><g fill="#141313" fill-opacity="1"><g transform="translate(60.526511, 68.931629)"><g><path d="M 2.3125 0 L 2.3125 -21.609375 L 16.375 -21.609375 L 16.375 -17.609375 L 7.578125 -17.609375 L 7.578125 -12.953125 L 14.15625 -12.953125 L 14.15625 -8.953125 L 7.578125 -8.953125 L 7.578125 0 Z M 2.3125 0 "/></g></g></g><g fill="#141313" fill-opacity="1"><g transform="translate(85.309656, 68.931629)"><g><path d="M 2.21875 -8.71875 L 2.21875 -21.609375 L 7.484375 -21.609375 L 7.484375 -8.71875 C 7.484375 -7.414062 7.800781 -6.414062 8.4375 -5.71875 C 9.070312 -5.019531 10.003906 -4.671875 11.234375 -4.671875 C 12.460938 -4.671875 13.40625 -5.019531 14.0625 -5.71875 C 14.71875 -6.414062 15.046875 -7.414062 15.046875 -8.71875 L 15.046875 -21.609375 L 20.3125 -21.609375 L 20.3125 -8.71875 C 20.3125 -6.800781 19.863281 -5.148438 18.96875 -3.765625 C 18.082031 -2.378906 16.957031 -1.367188 15.59375 -0.734375 C 14.226562 -0.0976562 12.742188 0.21875 11.140625 0.21875 C 8.640625 0.21875 6.523438 -0.5625 4.796875 -2.125 C 3.078125 -3.6875 2.21875 -5.882812 2.21875 -8.71875 Z M 2.21875 -8.71875 "/></g></g></g><g fill="#141313" fill-opacity="1"><g transform="translate(114.89535, 68.931629)"><g><path d="M 0.828125 -17.609375 L 0.828125 -21.609375 L 17.890625 -21.609375 L 17.890625 -17.609375 L 11.96875 -17.609375 L 11.96875 0 L 6.703125 0 L 6.703125 -17.609375 Z M 0.828125 -17.609375 "/></g></g></g><g fill="#141313" fill-opacity="1"><g transform="translate(140.69442, 68.931629)"><g><path d="M 2.21875 -8.71875 L 2.21875 -21.609375 L 7.484375 -21.609375 L 7.484375 -8.71875 C 7.484375 -7.414062 7.800781 -6.414062 8.4375 -5.71875 C 9.070312 -5.019531 10.003906 -4.671875 11.234375 -4.671875 C 12.460938 -4.671875 13.40625 -5.019531 14.0625 -5.71875 C 14.71875 -6.414062 15.046875 -7.414062 15.046875 -8.71875 L 15.046875 -21.609375 L 20.3125 -21.609375 L 20.3125 -8.71875 C 20.3125 -6.800781 19.863281 -5.148438 18.96875 -3.765625 C 18.082031 -2.378906 16.957031 -1.367188 15.59375 -0.734375 C 14.226562 -0.0976562 12.742188 0.21875 11.140625 0.21875 C 8.640625 0.21875 6.523438 -0.5625 4.796875 -2.125 C 3.078125 -3.6875 2.21875 -5.882812 2.21875 -8.71875 Z M 2.21875 -8.71875 "/></g></g></g><g fill="#141313" fill-opacity="1"><g transform="translate(170.280116, 68.931629)"><g><path d="M 7.578125 -8.40625 L 7.578125 0 L 2.3125 0 L 2.3125 -21.609375 L 10.828125 -21.609375 C 13.335938 -21.609375 15.289062 -20.960938 16.6875 -19.671875 C 18.082031 -18.378906 18.78125 -16.816406 18.78125 -14.984375 C 18.78125 -13.734375 18.398438 -12.515625 17.640625 -11.328125 C 16.878906 -10.140625 15.632812 -9.296875 13.90625 -8.796875 L 19.203125 0 L 13.046875 0 L 8.1875 -8.40625 Z M 7.578125 -17.609375 L 7.578125 -12.40625 L 10.828125 -12.40625 C 11.628906 -12.40625 12.257812 -12.640625 12.71875 -13.109375 C 13.1875 -13.585938 13.421875 -14.207031 13.421875 -14.96875 C 13.421875 -15.738281 13.179688 -16.367188 12.703125 -16.859375 C 12.234375 -17.359375 11.609375 -17.609375 10.828125 -17.609375 Z M 7.578125 -17.609375 "/></g></g></g><g fill="#141313" fill-opacity="1"><g transform="translate(197.926321, 68.931629)"><g><path d="M 15.390625 -21.671875 L 15.390625 -17.671875 L 7.578125 -17.671875 L 7.578125 -13.015625 L 14.46875 -13.015625 L 14.46875 -9.015625 L 7.578125 -9.015625 L 7.578125 -4 L 15.390625 -4 L 15.390625 0 L 2.3125 0 L 2.3125 -21.671875 Z M 15.390625 -21.671875 "/></g></g></g><path fill="#ffed00" d="M 39.125 79.640625 L 311.730469 79.640625 C 313.003906 79.640625 314.230469 80.148438 315.132812 81.050781 C 316.035156 81.953125 316.539062 83.175781 316.539062 84.453125 L 316.539062 94.074219 C 316.539062 95.351562 316.035156 96.574219 315.132812 97.476562 C 314.230469 98.378906 313.003906 98.886719 311.730469 98.886719 L 39.125 98.886719 C 36.46875 98.886719 34.316406 96.734375 34.316406 94.074219 L 34.316406 84.453125 C 34.316406 81.796875 36.46875 79.640625 39.125 79.640625 Z M 39.125 79.640625 " fill-opacity="0.1" fill-rule="nonzero"/><g fill="#141313" fill-opacity="1"><g transform="translate(37.958612, 93.757888)"><g><path d="M 9.03125 -9.546875 L 7.828125 -9.546875 L 7.828125 -5.171875 L 2.578125 -5.171875 L 2.578125 -9.546875 L 1.390625 -9.546875 L 1.390625 0 L 2.578125 0 L 2.578125 -4.1875 L 7.828125 -4.1875 L 7.828125 0 L 9.03125 0 Z M 9.03125 -9.546875 "/></g></g></g><g fill="#141313" fill-opacity="1"><g transform="translate(49.809132, 93.757888)"><g><path d="M 8.46875 -9.546875 L 7.28125 -9.546875 L 7.28125 -3.640625 C 7.28125 -3.34375 7.28125 -3.046875 7.25 -2.796875 C 7.140625 -1.59375 6.359375 -0.75 4.890625 -0.75 C 3.421875 -0.75 2.625 -1.59375 2.515625 -2.796875 C 2.484375 -3.046875 2.484375 -3.34375 2.484375 -3.640625 L 2.484375 -9.546875 L 1.296875 -9.546875 L 1.296875 -3.53125 C 1.296875 -3.21875 1.296875 -2.953125 1.328125 -2.671875 C 1.46875 -1.078125 2.546875 0.1875 4.890625 0.1875 C 7.21875 0.1875 8.3125 -1.078125 8.4375 -2.671875 C 8.46875 -2.953125 8.46875 -3.21875 8.46875 -3.53125 Z M 8.46875 -9.546875 "/></g></g></g><g fill="#141313" fill-opacity="1"><g transform="translate(60.995214, 93.757888)"><g><path d="M 10.90625 -9.546875 L 8.984375 -9.546875 L 6.171875 -1.015625 L 3.34375 -9.546875 L 1.390625 -9.546875 L 1.390625 0 L 2.578125 0 L 2.578125 -4.921875 C 2.578125 -6.09375 2.578125 -7.40625 2.546875 -8.4375 C 2.859375 -7.421875 3.296875 -6.09375 3.6875 -4.953125 L 5.40625 0 L 6.890625 0 L 8.578125 -4.921875 C 8.984375 -6.09375 9.421875 -7.4375 9.75 -8.46875 C 9.71875 -7.4375 9.71875 -6.109375 9.71875 -4.921875 L 9.71875 0 L 10.90625 0 Z M 10.90625 -9.546875 "/></g></g></g><g fill="#141313" fill-opacity="1"><g transform="translate(74.728299, 93.757888)"><g><path d="M 6.3125 -3.375 L 7.453125 0 L 8.734375 0 L 5.4375 -9.546875 L 3.828125 -9.546875 L 0.40625 0 L 1.671875 0 L 2.796875 -3.375 Z M 3.125 -4.34375 L 4.609375 -8.609375 L 6 -4.34375 Z M 3.125 -4.34375 "/></g></g></g><g fill="#141313" fill-opacity="1"><g transform="translate(85.319166, 93.757888)"><g><path d="M 8.859375 0 L 8.828125 -9.546875 L 7.671875 -9.546875 L 7.671875 -4.78125 C 7.671875 -3.65625 7.6875 -2.28125 7.71875 -1.15625 L 3.21875 -9.546875 L 1.390625 -9.546875 L 1.390625 0 L 2.578125 0 L 2.578125 -4.78125 C 2.578125 -5.890625 2.5625 -7.265625 2.53125 -8.390625 L 7.03125 0 Z M 8.859375 0 "/></g></g></g><g fill="#141313" fill-opacity="1"><g transform="translate(97.003572, 93.757888)"><g/></g></g><g fill="#141313" fill-opacity="1"><g transform="translate(101.739102, 93.757888)"><g><path d="M 7.671875 -2.5 C 7.59375 -3.46875 7.21875 -4.328125 6.4375 -4.6875 C 7.328125 -4.96875 8.140625 -5.6875 8.140625 -6.953125 C 8.140625 -8.5625 7.140625 -9.3125 5.765625 -9.5 C 5.328125 -9.546875 5 -9.546875 4.515625 -9.546875 L 1.390625 -9.546875 L 1.390625 0 L 2.578125 0 L 2.578125 -4.109375 L 4.375 -4.109375 C 4.59375 -4.109375 4.828125 -4.109375 5.046875 -4.09375 C 6 -4.03125 6.375 -3.375 6.484375 -2.390625 C 6.609375 -1.21875 6.734375 -0.609375 6.984375 0 L 8.3125 0 C 7.921875 -0.515625 7.78125 -1.265625 7.671875 -2.5 Z M 2.578125 -5.078125 L 2.578125 -8.578125 L 4.515625 -8.578125 C 4.9375 -8.578125 5.203125 -8.5625 5.46875 -8.53125 C 6.359375 -8.390625 6.859375 -7.90625 6.859375 -6.84375 C 6.859375 -5.765625 6.21875 -5.1875 5.328125 -5.109375 C 5.0625 -5.078125 4.828125 -5.078125 4.40625 -5.078125 Z M 2.578125 -5.078125 "/></g></g></g><g fill="#141313" fill-opacity="1"><g transform="translate(112.053119, 93.757888)"><g><path d="M 7.734375 -0.96875 L 2.578125 -0.96875 L 2.578125 -4.296875 L 7.1875 -4.296875 L 7.1875 -5.265625 L 2.578125 -5.265625 L 2.578125 -8.578125 L 7.59375 -8.578125 L 7.59375 -9.546875 L 1.390625 -9.546875 L 1.390625 0 L 7.734375 0 Z M 7.734375 -0.96875 "/></g></g></g><g fill="#141313" fill-opacity="1"><g transform="translate(121.924175, 93.757888)"><g><path d="M 4.34375 -9.75 C 2.59375 -9.75 1.15625 -8.703125 1.15625 -7.0625 C 1.15625 -5.484375 2.34375 -4.796875 4.03125 -4.421875 C 5.703125 -4.03125 6.375 -3.5 6.375 -2.34375 C 6.375 -1.34375 5.484375 -0.75 4.390625 -0.75 C 3.140625 -0.75 2.265625 -1.453125 2 -2.71875 L 0.71875 -2.71875 C 0.921875 -0.875 2.25 0.1875 4.359375 0.1875 C 6.203125 0.1875 7.640625 -0.890625 7.640625 -2.5625 C 7.640625 -4.1875 6.59375 -5.046875 4.484375 -5.53125 C 3.03125 -5.859375 2.4375 -6.296875 2.4375 -7.34375 C 2.4375 -8.328125 3.234375 -8.796875 4.25 -8.796875 C 5.453125 -8.796875 6.15625 -8.109375 6.265625 -6.90625 L 7.546875 -6.90625 C 7.359375 -8.546875 6.328125 -9.75 4.34375 -9.75 Z M 4.34375 -9.75 "/></g></g></g><g fill="#141313" fill-opacity="1"><g transform="translate(131.767554, 93.757888)"><g><path d="M 5.15625 -9.75 C 2.25 -9.75 0.65625 -7.703125 0.65625 -4.78125 C 0.65625 -1.875 2.25 0.1875 5.15625 0.1875 C 8.078125 0.1875 9.671875 -1.875 9.671875 -4.78125 C 9.671875 -7.703125 8.078125 -9.75 5.15625 -9.75 Z M 5.15625 -0.75 C 3.15625 -0.75 1.984375 -2.296875 1.984375 -4.78125 C 1.984375 -7.265625 3.15625 -8.796875 5.15625 -8.796875 C 7.171875 -8.796875 8.34375 -7.265625 8.34375 -4.78125 C 8.34375 -2.296875 7.171875 -0.75 5.15625 -0.75 Z M 5.15625 -0.75 "/></g></g></g><g fill="#141313" fill-opacity="1"><g transform="translate(143.714978, 93.757888)"><g><path d="M 8.46875 -9.546875 L 7.28125 -9.546875 L 7.28125 -3.640625 C 7.28125 -3.34375 7.28125 -3.046875 7.25 -2.796875 C 7.140625 -1.59375 6.359375 -0.75 4.890625 -0.75 C 3.421875 -0.75 2.625 -1.59375 2.515625 -2.796875 C 2.484375 -3.046875 2.484375 -3.34375 2.484375 -3.640625 L 2.484375 -9.546875 L 1.296875 -9.546875 L 1.296875 -3.53125 C 1.296875 -3.21875 1.296875 -2.953125 1.328125 -2.671875 C 1.46875 -1.078125 2.546875 0.1875 4.890625 0.1875 C 7.21875 0.1875 8.3125 -1.078125 8.4375 -2.671875 C 8.46875 -2.953125 8.46875 -3.21875 8.46875 -3.53125 Z M 8.46875 -9.546875 "/></g></g></g><g fill="#141313" fill-opacity="1"><g transform="translate(154.901059, 93.757888)"><g><path d="M 7.671875 -2.5 C 7.59375 -3.46875 7.21875 -4.328125 6.4375 -4.6875 C 7.328125 -4.96875 8.140625 -5.6875 8.140625 -6.953125 C 8.140625 -8.5625 7.140625 -9.3125 5.765625 -9.5 C 5.328125 -9.546875 5 -9.546875 4.515625 -9.546875 L 1.390625 -9.546875 L 1.390625 0 L 2.578125 0 L 2.578125 -4.109375 L 4.375 -4.109375 C 4.59375 -4.109375 4.828125 -4.109375 5.046875 -4.09375 C 6 -4.03125 6.375 -3.375 6.484375 -2.390625 C 6.609375 -1.21875 6.734375 -0.609375 6.984375 0 L 8.3125 0 C 7.921875 -0.515625 7.78125 -1.265625 7.671875 -2.5 Z M 2.578125 -5.078125 L 2.578125 -8.578125 L 4.515625 -8.578125 C 4.9375 -8.578125 5.203125 -8.5625 5.46875 -8.53125 C 6.359375 -8.390625 6.859375 -7.90625 6.859375 -6.84375 C 6.859375 -5.765625 6.21875 -5.1875 5.328125 -5.109375 C 5.0625 -5.078125 4.828125 -5.078125 4.40625 -5.078125 Z M 2.578125 -5.078125 "/></g></g></g><g fill="#141313" fill-opacity="1"><g transform="translate(165.215077, 93.757888)"><g><path d="M 5.15625 -9.75 C 2.453125 -9.75 0.65625 -7.640625 0.65625 -4.734375 C 0.65625 -1.9375 2.203125 0.1875 4.984375 0.1875 C 7.5 0.1875 8.796875 -1.3125 8.96875 -3.046875 L 8.984375 -3.1875 L 7.796875 -3.1875 L 7.765625 -3.046875 C 7.484375 -1.671875 6.640625 -0.75 5.046875 -0.75 C 3.171875 -0.75 1.984375 -2.4375 1.984375 -4.796875 C 1.984375 -7.109375 3.1875 -8.796875 5.140625 -8.796875 C 6.734375 -8.796875 7.578125 -7.875 7.84375 -6.5 L 7.875 -6.375 L 9.0625 -6.375 L 9.046875 -6.5 C 8.859375 -8.375 7.59375 -9.75 5.15625 -9.75 Z M 5.15625 -9.75 "/></g></g></g><g fill="#141313" fill-opacity="1"><g transform="translate(176.636482, 93.757888)"><g><path d="M 7.734375 -0.96875 L 2.578125 -0.96875 L 2.578125 -4.296875 L 7.1875 -4.296875 L 7.1875 -5.265625 L 2.578125 -5.265625 L 2.578125 -8.578125 L 7.59375 -8.578125 L 7.59375 -9.546875 L 1.390625 -9.546875 L 1.390625 0 L 7.734375 0 Z M 7.734375 -0.96875 "/></g></g></g><g fill="#141313" fill-opacity="1"><g transform="translate(186.507538, 93.757888)"><g><path d="M 4.34375 -9.75 C 2.59375 -9.75 1.15625 -8.703125 1.15625 -7.0625 C 1.15625 -5.484375 2.34375 -4.796875 4.03125 -4.421875 C 5.703125 -4.03125 6.375 -3.5 6.375 -2.34375 C 6.375 -1.34375 5.484375 -0.75 4.390625 -0.75 C 3.140625 -0.75 2.265625 -1.453125 2 -2.71875 L 0.71875 -2.71875 C 0.921875 -0.875 2.25 0.1875 4.359375 0.1875 C 6.203125 0.1875 7.640625 -0.890625 7.640625 -2.5625 C 7.640625 -4.1875 6.59375 -5.046875 4.484375 -5.53125 C 3.03125 -5.859375 2.4375 -6.296875 2.4375 -7.34375 C 2.4375 -8.328125 3.234375 -8.796875 4.25 -8.796875 C 5.453125 -8.796875 6.15625 -8.109375 6.265625 -6.90625 L 7.546875 -6.90625 C 7.359375 -8.546875 6.328125 -9.75 4.34375 -9.75 Z M 4.34375 -9.75 "/></g></g></g><g fill="#141313" fill-opacity="1"><g transform="translate(196.350917, 93.757888)"><g/></g></g><g fill="#141313" fill-opacity="1"><g transform="translate(201.086447, 93.757888)"><g><path d="M 10.90625 -9.546875 L 8.984375 -9.546875 L 6.171875 -1.015625 L 3.34375 -9.546875 L 1.390625 -9.546875 L 1.390625 0 L 2.578125 0 L 2.578125 -4.921875 C 2.578125 -6.09375 2.578125 -7.40625 2.546875 -8.4375 C 2.859375 -7.421875 3.296875 -6.09375 3.6875 -4.953125 L 5.40625 0 L 6.890625 0 L 8.578125 -4.921875 C 8.984375 -6.09375 9.421875 -7.4375 9.75 -8.46875 C 9.71875 -7.4375 9.71875 -6.109375 9.71875 -4.921875 L 9.71875 0 L 10.90625 0 Z M 10.90625 -9.546875 "/></g></g></g><g fill="#141313" fill-opacity="1"><g transform="translate(214.819528, 93.757888)"><g><path d="M 6.3125 -3.375 L 7.453125 0 L 8.734375 0 L 5.4375 -9.546875 L 3.828125 -9.546875 L 0.40625 0 L 1.671875 0 L 2.796875 -3.375 Z M 3.125 -4.34375 L 4.609375 -8.609375 L 6 -4.34375 Z M 3.125 -4.34375 "/></g></g></g><g fill="#141313" fill-opacity="1"><g transform="translate(225.410395, 93.757888)"><g><path d="M 8.859375 0 L 8.828125 -9.546875 L 7.671875 -9.546875 L 7.671875 -4.78125 C 7.671875 -3.65625 7.6875 -2.28125 7.71875 -1.15625 L 3.21875 -9.546875 L 1.390625 -9.546875 L 1.390625 0 L 2.578125 0 L 2.578125 -4.78125 C 2.578125 -5.890625 2.5625 -7.265625 2.53125 -8.390625 L 7.03125 0 Z M 8.859375 0 "/></g></g></g><g fill="#141313" fill-opacity="1"><g transform="translate(237.094802, 93.757888)"><g><path d="M 6.3125 -3.375 L 7.453125 0 L 8.734375 0 L 5.4375 -9.546875 L 3.828125 -9.546875 L 0.40625 0 L 1.671875 0 L 2.796875 -3.375 Z M 3.125 -4.34375 L 4.609375 -8.609375 L 6 -4.34375 Z M 3.125 -4.34375 "/></g></g></g><g fill="#141313" fill-opacity="1"><g transform="translate(247.685669, 93.757888)"><g><path d="M 5.53125 -4.609375 L 5.53125 -3.640625 L 7.75 -3.640625 C 7.75 -1.9375 6.609375 -0.75 5.046875 -0.75 C 3.171875 -0.75 1.984375 -2.4375 1.984375 -4.796875 C 1.984375 -7.109375 3.1875 -8.796875 5.140625 -8.796875 C 6.734375 -8.796875 7.578125 -7.875 7.84375 -6.5 L 7.875 -6.375 L 9.0625 -6.375 L 9.046875 -6.5 C 8.859375 -8.375 7.59375 -9.75 5.15625 -9.75 C 2.453125 -9.75 0.65625 -7.640625 0.65625 -4.734375 C 0.65625 -1.9375 2.203125 0.1875 4.984375 0.1875 C 6.078125 0.1875 6.921875 -0.171875 7.46875 -0.78125 L 7.890625 -1.65625 L 7.890625 0 L 8.9375 0 L 8.9375 -4.609375 Z M 5.53125 -4.609375 "/></g></g></g><g fill="#141313" fill-opacity="1"><g transform="translate(259.259338, 93.757888)"><g><path d="M 7.734375 -0.96875 L 2.578125 -0.96875 L 2.578125 -4.296875 L 7.1875 -4.296875 L 7.1875 -5.265625 L 2.578125 -5.265625 L 2.578125 -8.578125 L 7.59375 -8.578125 L 7.59375 -9.546875 L 1.390625 -9.546875 L 1.390625 0 L 7.734375 0 Z M 7.734375 -0.96875 "/></g></g></g><g fill="#141313" fill-opacity="1"><g transform="translate(269.130404, 93.757888)"><g><path d="M 10.90625 -9.546875 L 8.984375 -9.546875 L 6.171875 -1.015625 L 3.34375 -9.546875 L 1.390625 -9.546875 L 1.390625 0 L 2.578125 0 L 2.578125 -4.921875 C 2.578125 -6.09375 2.578125 -7.40625 2.546875 -8.4375 C 2.859375 -7.421875 3.296875 -6.09375 3.6875 -4.953125 L 5.40625 0 L 6.890625 0 L 8.578125 -4.921875 C 8.984375 -6.09375 9.421875 -7.4375 9.75 -8.46875 C 9.71875 -7.4375 9.71875 -6.109375 9.71875 -4.921875 L 9.71875 0 L 10.90625 0 Z M 10.90625 -9.546875 "/></g></g></g><g fill="#141313" fill-opacity="1"><g transform="translate(282.863497, 93.757888)"><g><path d="M 7.734375 -0.96875 L 2.578125 -0.96875 L 2.578125 -4.296875 L 7.1875 -4.296875 L 7.1875 -5.265625 L 2.578125 -5.265625 L 2.578125 -8.578125 L 7.59375 -8.578125 L 7.59375 -9.546875 L 1.390625 -9.546875 L 1.390625 0 L 7.734375 0 Z M 7.734375 -0.96875 "/></g></g></g><g fill="#141313" fill-opacity="1"><g transform="translate(292.734564, 93.757888)"><g><path d="M 8.859375 0 L 8.828125 -9.546875 L 7.671875 -9.546875 L 7.671875 -4.78125 C 7.671875 -3.65625 7.6875 -2.28125 7.71875 -1.15625 L 3.21875 -9.546875 L 1.390625 -9.546875 L 1.390625 0 L 2.578125 0 L 2.578125 -4.78125 C 2.578125 -5.890625 2.5625 -7.265625 2.53125 -8.390625 L 7.03125 0 Z M 8.859375 0 "/></g></g></g><g fill="#141313" fill-opacity="1"><g transform="translate(304.418982, 93.757888)"><g><path d="M 8.46875 -8.578125 L 8.46875 -9.546875 L 0.46875 -9.546875 L 0.46875 -8.578125 L 3.875 -8.578125 L 3.875 0 L 5.0625 0 L 5.0625 -8.578125 Z M 8.46875 -8.578125 "/></g></g></g><g clip-path="url(#14fd3e2bb2)"><g clip-path="url(#f2faa5d709)"><path fill="url(#704389eba8)" d="M 0.0742188 0.0898438 L 0.0742188 119.890625 L 71.046875 119.890625 L 71.046875 0.0898438 Z M 0.0742188 0.0898438 " fill-rule="nonzero"/></g></g></svg>